<?xml version="1.0" encoding="UTF-8" standalone="no"?>
<!DOCTYPE svg PUBLIC "-//W3C//DTD SVG 1.1//EN" "http://www.w3.org/Graphics/SVG/1.1/DTD/svg11.dtd">
<svg xmlns="http://www.w3.org/2000/svg" version="1.1" viewBox="0 0 92 92" width="92.0pt" height="92.0pt">
<path d="M 0.00 0.00 L 92.00 0.00 L 92.00 92.00 L 0.00 92.00 L 0.00 0.00 Z" fill="#ffffff" />
<path d="M 23.47 9.68 C 27.54 9.27 31.84 8.90 35.92 9.20 C 37.94 9.61 37.99 12.97 38.69 14.54 C 40.22 20.36 49.21 21.02 52.13 16.11 C 53.22 14.21 53.11 10.29 55.19 9.30 C 59.05 8.76 63.14 9.33 67.03 9.55 C 68.53 9.59 69.51 10.45 70.71 11.25 C 75.91 15.04 80.88 19.13 86.03 22.99 C 85.98 27.30 86.44 32.10 85.14 36.22 C 83.70 40.96 81.81 46.07 77.99 49.43 C 76.68 49.47 75.37 49.44 74.06 49.34 C 75.59 56.14 76.37 63.12 77.46 70.02 C 77.66 72.30 78.35 74.68 76.40 76.41 C 71.78 79.75 65.46 81.39 60.07 83.05 C 56.29 84.33 51.98 84.29 48.01 84.62 C 40.74 85.12 34.27 83.34 27.25 81.76 C 23.14 80.58 18.91 79.04 15.35 76.64 C 13.71 75.49 13.49 73.90 13.70 72.03 C 14.55 64.43 16.13 56.90 17.25 49.34 C 15.40 49.29 13.90 50.23 12.58 48.52 C 8.31 43.95 6.27 37.07 5.22 31.03 C 5.05 28.75 4.24 25.47 5.35 23.40 C 7.97 20.68 11.37 18.72 14.24 16.24 C 17.21 14.04 20.12 11.22 23.47 9.68 Z" fill="#000000" />
<path d="M 32.13 16.62 C 33.24 18.95 34.11 21.14 36.00 22.98 C 39.90 27.21 46.63 27.90 51.74 25.71 C 55.65 23.77 57.68 20.39 59.40 16.54 C 62.67 16.99 65.98 16.46 68.57 18.70 C 72.31 21.57 76.23 24.29 79.73 27.44 C 80.14 32.08 78.04 37.26 76.09 41.40 C 73.96 40.45 71.06 37.75 68.64 38.53 C 67.06 40.18 66.74 41.55 67.04 43.81 C 68.15 52.97 69.75 62.10 71.12 71.22 C 66.55 73.28 61.90 74.84 56.99 75.83 C 44.50 78.42 31.77 76.45 20.23 71.20 C 21.79 63.12 22.76 54.97 24.02 46.84 C 24.25 43.84 25.38 41.14 23.01 38.70 C 20.48 37.47 17.67 40.43 15.41 41.41 C 12.98 36.99 11.86 32.59 11.23 27.60 C 15.24 24.46 19.28 21.33 23.38 18.32 C 25.58 16.46 29.36 16.99 32.13 16.62 Z" fill="#fef200" />
</svg>