<svg width="92.0pt" height="92.0pt" xmlns="http://www.w3.org/2000/svg" xmlns:xlink="http://www.w3.org/1999/xlink" overflow="hidden" viewBox="0 0 422 423"><defs><clipPath id="clip0"><rect x="1812" y="945" width="422" height="423" /></clipPath></defs><g clip-path="url(#clip0)" transform="translate(-1812 -945)"><path d="M0 0 422 0 422 422 0 422 0 0Z" fill="#FFFFFF" transform="matrix(1 0 0 1.00237 1812 945)" /><path d="M107.931 44.3559C126.6 42.5211 146.14 40.7781 164.855 42.2459 173.983 44.0348 174.35 59.7222 177.515 66.7402 184.487 93.3905 225.632 96.372 239.072 73.9876 244.118 65.3642 243.613 46.8787 253.338 42.6587 272.557 40.457 293.795 42.3835 313.014 44.7687 341.774 62.0615 367.324 85.7302 394.616 105.454 397.414 147.562 390.717 187.744 363.471 221.091 357.232 230.678 349.297 225.632 339.71 226.366 346.774 257.695 350.352 289.804 355.352 321.5 356.315 332.05 359.388 342.829 350.168 350.719 325.903 367.736 293.29 375.443 265.126 383.837 247.421 386.818 229.027 387.873 211.092 388.378 184.717 389.433 158.984 382.415 132.93 377.002 111.325 371.727 89.0329 363.929 70.4557 351.544 62.9331 346.361 61.8781 338.976 62.8413 330.444 66.7402 295.584 73.9418 261.044 79.1709 226.321 74.0335 226.779 68.942 227.054 63.8046 227.192 51.007 218.844 42.2918 201.78 36.4663 187.974 27.5217 164.075 19.9533 136.141 22.8431 110.546 31.0996 97.5646 48.53 88.9411 60.0891 78.6663 75.4555 67.2448 90.6383 52.3831 107.931 44.3559Z" transform="matrix(1 0 0 1.00237 1812 945)" /><path d="M115.408 78.6205C126.05 77.6572 136.783 77.1985 147.471 76.4187 152.425 86.9229 156.599 97.1059 165.085 105.317 186.414 128.389 227.788 130.224 250.723 108.711 261.457 99.7205 266.411 88.1613 272.511 75.96 283.245 77.2902 294.987 76.9233 305.262 79.9048 327.325 93.7116 347.233 111.325 367.966 127.105 364.388 149.168 359.251 169.809 349.068 189.854 339.068 185.221 327.417 175.084 316.133 175.91 304.299 184.258 307.556 196.276 308.381 208.707 313.794 248.109 319.94 287.419 326.5 326.683 306.225 335.674 285.492 342.783 263.704 347.324 205.633 360.306 146.507 350.902 92.7483 326.546 100.225 288.382 104.812 249.668 110.637 211.138 111.601 198.799 115.912 187.79 105.684 178.066 95.2711 170.589 80.0883 186.23 70.4557 190.038 59.5846 169.396 54.3555 149.489 51.6033 126.371 72.7033 110.316 93.4363 93.5281 115.408 78.6205Z" fill="#C3C3C3" transform="matrix(1 0 0 1.00237 1812 945)" /><path d="M180.176 153.801C181.093 170.635 181.919 187.836 180.359 204.67 179.855 215.449 168.02 224.348 157.975 218.293 147.058 211.917 147.241 200.404 151.278 189.808 157.837 199.349 154.902 217.605 170.956 212.101 174.855 194.9 171.873 178.112 173.846 161.186 175.497 158.571 177.607 156.094 180.176 153.801Z" transform="matrix(1 0 0 1.00237 1812 945)" /><path d="M190.451 157.195C201.184 157.241 211.963 157.333 222.697 157.379L222.88 163.709C214.715 163.754 206.551 163.8 198.432 163.8 198.432 170.405 198.432 177.011 198.432 183.662 205.679 183.662 212.927 183.662 220.174 183.662L220.174 190.129C212.927 190.129 205.679 190.129 198.432 190.129 198.386 197.744 198.386 205.404 198.386 213.064 208.34 213.523 218.11 214.303 228.018 215.404 215.862 221.367 203.615 220.082 190.588 220.403 190.588 199.303 190.634 178.249 190.451 157.195Z" transform="matrix(1 0 0 1.00237 1812 945)" /><path d="M247.696 157.057C261.319 156.14 266.64 171.277 260.677 181.827 258.062 175.359 255.218 169.029 252.191 162.791 245.035 161.69 240.769 164.305 239.393 170.681 233.935 184.717 235.173 199.808 242.65 212.835 256.136 214.67 257.053 198.524 263.246 190.038 263.475 202.973 264.346 213.11 251.503 220.174 233.247 221.321 228.889 202.055 229.256 187.652 229.302 176.277 233.293 157.379 247.696 157.057Z" transform="matrix(1 0 0 1.00237 1812 945)" /><rect x="1955" y="1096" width="136" height="80.0001" fill="#C3C3C3" /><text font-family="HGMaruGothicMPRO,HGMaruGothicMPRO_MSFontService,sans-serif" font-weight="700" font-size="73" transform="matrix(1 0 0 1 1943.1 1167)">JEC</text></g></svg>