<?xml version="1.0" encoding="UTF-8" standalone="no"?>
<!DOCTYPE svg PUBLIC "-//W3C//DTD SVG 1.1//EN" "http://www.w3.org/Graphics/SVG/1.1/DTD/svg11.dtd">
<svg xmlns="http://www.w3.org/2000/svg" version="1.1" viewBox="0 0 92 92" width="92.0pt" height="92.0pt">
<path d="M 0.00 0.00 L 92.00 0.00 L 92.00 92.00 L 0.00 92.00 L 0.00 0.00 Z" fill="#ffffff" />
<path d="M 31.02 9.13 C 32.83 9.20 35.68 8.58 37.13 9.89 C 38.26 12.05 38.40 15.07 39.95 16.96 C 42.86 20.16 48.09 20.13 51.26 17.33 C 53.17 15.34 52.90 11.67 54.59 9.60 C 56.74 8.65 59.67 9.20 61.99 9.21 C 64.84 9.55 67.82 8.95 70.12 10.85 C 75.56 14.70 80.69 19.00 86.03 22.99 C 85.98 27.32 86.44 32.12 85.14 36.24 C 83.72 40.90 81.76 46.17 77.97 49.43 C 76.67 49.48 75.37 49.46 74.06 49.37 C 75.61 56.20 76.39 63.21 77.48 70.13 C 77.68 72.39 78.34 74.82 76.31 76.47 C 71.70 79.76 65.46 81.40 60.09 83.04 C 56.29 84.31 52.01 84.30 48.02 84.62 C 40.84 85.12 34.38 83.37 27.46 81.81 C 23.28 80.63 18.97 79.08 15.36 76.64 C 13.70 75.48 13.50 73.93 13.70 72.04 C 14.55 64.46 16.11 56.94 17.25 49.40 C 15.68 49.29 13.70 50.10 12.63 48.59 C 8.67 44.28 7.04 39.08 5.67 33.53 C 5.19 30.47 4.18 26.42 5.28 23.48 C 10.02 19.18 15.41 15.44 20.44 11.46 C 23.69 8.62 27.03 9.60 31.02 9.13 Z" fill="#000000" />
<path d="M 32.12 16.61 C 33.32 19.17 34.37 21.59 36.55 23.49 C 40.32 27.17 46.37 27.73 51.15 25.97 C 55.42 24.13 57.58 20.59 59.44 16.54 C 61.74 16.80 64.15 16.81 66.40 17.36 C 68.26 18.34 69.96 19.69 71.65 20.95 C 69.47 28.40 64.13 33.70 57.68 37.66 C 52.36 40.87 46.40 43.09 40.83 45.88 C 35.11 48.73 29.18 50.13 23.19 52.39 C 23.69 47.31 25.52 43.13 23.28 38.20 C 20.24 38.42 17.91 39.94 15.32 41.40 C 12.96 36.79 11.84 32.67 11.26 27.51 C 15.31 24.46 19.29 21.30 23.38 18.31 C 25.57 16.42 29.37 17.03 32.12 16.61 Z" fill="#feaec9" />
<path d="M 71.65 20.95 C 74.49 23.21 77.36 25.44 80.21 27.70 C 79.43 32.52 78.33 37.02 76.10 41.40 C 73.87 40.36 71.39 38.16 68.87 38.32 C 67.53 39.74 66.66 41.00 66.98 43.05 C 68.04 52.47 69.68 61.86 71.17 71.21 C 67.01 73.07 62.75 74.58 58.29 75.54 C 45.39 78.64 32.19 76.62 20.22 71.18 C 21.46 64.96 22.29 58.67 23.19 52.39 C 29.18 50.13 35.11 48.73 40.83 45.88 C 46.40 43.09 52.36 40.87 57.68 37.66 C 64.13 33.70 69.47 28.40 71.65 20.95 Z" fill="#ffffff" />
</svg>