<svg width="92pt" height="92pt" xmlns="http://www.w3.org/2000/svg" xmlns:xlink="http://www.w3.org/1999/xlink" overflow="hidden" viewBox="0 0 422 423"><defs><clipPath id="clip0"><rect x="1989" y="1026" width="422" height="423" /></clipPath></defs><g clip-path="url(#clip0)" transform="translate(-1989 -1026)"><path d="M0 0 422 0 422 422 0 422 0 0Z" fill="#FFFFFF" transform="matrix(1 0 0 1.00237 1989 1026)" /><path d="M142.242 41.8789C150.452 42.2918 163.892 39.1726 170.222 45.4109 175.91 54.4931 175.589 69.7218 183.524 78.07 197.285 93.2529 224.486 92.3355 237.467 76.7398 244.577 67.6576 242.558 47.9337 253.108 42.7046 270.585 40.1359 289.162 42.8881 306.776 43.6678 313.931 43.7596 318.702 47.7961 324.344 51.6033 348.196 68.9878 370.993 87.7026 394.616 105.454 394.387 125.178 396.497 147.241 390.579 166.048 383.837 188.065 375.397 210.954 357.829 226.733 351.82 227.009 345.765 226.779 339.71 226.091 346.682 257.374 350.306 289.391 355.306 321.133 356.59 333.38 359.663 344.71 347.646 352.645 322.096 368.654 290.584 376.543 261.732 384.571 233.935 387.598 204.12 390.717 176.46 385.947 139.168 378.608 102.931 372.828 70.4098 351.544 62.9331 346.407 61.8322 338.839 62.8413 330.353 66.7861 295.446 74.0335 260.814 79.125 226.045 73.9876 226.642 68.8044 227.054 63.5752 227.376 42.2 211.321 31.9711 178.662 25.9622 153.663 23.8981 139.81 18.8983 120.362 24.4944 107.289 47.2457 87.2439 72.4281 69.1713 96.4637 50.64 108.298 39.9524 126.829 43.9431 142.242 41.8789Z" transform="matrix(1 0 0 1.00237 1989 1026)" /><path d="M147.562 76.2811C152.425 86.9687 156.461 97.1059 165.13 105.408 187.423 129.26 230.449 130.178 253.2 106.463 262.512 98.0692 266.732 87.4733 271.686 76.327 283.979 77.9324 301.134 75.3178 311.133 83.4368 330.169 96.7848 347.875 112.014 366.819 125.453 365.305 149.351 359.663 168.571 348.93 189.9 338.976 185.13 327.188 174.763 315.812 176.002 309.849 182.102 305.812 188.065 307.189 197.01 311.959 240.357 319.665 283.52 326.454 326.591 307.234 335.261 287.602 342.141 267.007 346.591 208.019 360.489 147.425 351.499 92.7483 326.5 100.73 283.703 106.693 240.265 112.151 197.102 113.665 187.102 108.436 175.359 96.9683 175.772 87.7485 178.983 79.4002 185.267 71.0061 190.129 59.3552 170.268 54.5848 149.397 51.4657 126.829 69.6759 112.105 88.4824 98.0233 107.243 83.9872 117.289 75.1344 134.857 78.1618 147.562 76.2811Z" fill="#C7BFE6" transform="matrix(1 0 0 1.00237 1989 1026)" /><path d="M159.259 168.433C168.662 171.185 174.213 174.717 182.882 167.378 184.533 167.378 186.185 167.378 187.836 167.378 191.872 169.809 196.001 172.194 200.129 174.488 204.349 190.267 189.992 189.946 179.579 194.258 190.221 192.194 196.781 189.395 206.046 197.469 194.625 203.982 183.203 203.202 170.635 203.615 170.497 193.753 170.405 183.937 170.314 174.075 168.571 176.093 166.874 178.112 165.176 180.13 167.929 188.019 168.754 196.184 169.488 204.487 181.139 204.67 192.79 204.395 204.395 204.395L200.312 214.624C184.487 216.275 168.25 215.22 152.47 213.431 154.351 203.432 162.332 199.395 152.516 191.276 156.048 187.423 159.534 183.57 163.066 179.717L152.746 173.892C154.856 172.057 157.057 170.222 159.259 168.433Z" transform="matrix(1 0 0 1.00237 1989 1026)" /><path d="M219.165 166.094C223.66 169.993 228.155 173.892 232.651 177.745 232.834 189.487 233.293 200.863 232.284 212.56 228.064 216.321 222.972 216.459 217.055 213.018 215.266 213.752 213.477 214.486 211.688 215.22 209.899 212.56 208.156 209.945 206.367 207.331 208.89 200.909 211.321 194.441 213.706 187.974 210.908 184.992 208.156 182.056 205.358 179.075 209.991 174.763 214.578 170.405 219.165 166.094Z" transform="matrix(1 0 0 1.00237 1989 1026)" /><path d="M234.715 169.672C241.641 169.809 248.613 169.947 255.539 170.084 255.494 185.038 255.448 199.991 255.494 214.945 248.659 215.037 241.824 215.266 234.99 215.541 234.439 201.413 234.256 187.24 234.623 173.112L234.715 169.672Z" transform="matrix(1 0 0 1.00237 1989 1026)" /><path d="M244.347 179.992C250.769 186.23 251.09 195.083 244.301 201.184 241.136 194.028 241.32 187.148 244.347 179.992Z" fill="#C7BFE6" transform="matrix(1 0 0 1.00237 1989 1026)" /><rect x="2125" y="1187" width="150" height="68.0001" fill="#C7BFE6" /><text font-family="HGMaruGothicMPRO,HGMaruGothicMPRO_MSFontService,sans-serif" font-weight="700" font-size="83" transform="matrix(1 0 0 1 2115.79 1256)">追加</text></g></svg>