<?xml version="1.0" encoding="UTF-8" standalone="no"?>
<!DOCTYPE svg PUBLIC "-//W3C//DTD SVG 1.1//EN" "http://www.w3.org/Graphics/SVG/1.1/DTD/svg11.dtd">
<svg xmlns="http://www.w3.org/2000/svg" version="1.1" viewBox="0 0 92 92" width="92.0pt" height="92.0pt">
<path d="M 0.00 0.00 L 92.00 0.00 L 92.00 92.00 L 0.00 92.00 L 0.00 0.00 Z" fill="#ffffff" />
<path d="M 35.92 9.18 C 38.59 9.97 37.89 14.51 39.55 16.45 C 42.35 20.32 48.71 20.33 51.74 16.77 C 53.09 14.92 53.01 12.12 54.11 10.15 C 55.00 8.88 56.60 9.14 57.96 9.07 C 61.37 9.21 64.85 9.24 68.23 9.71 C 74.47 13.57 80.08 18.66 86.03 22.99 C 86.68 32.30 85.07 41.65 78.69 48.79 C 77.80 50.16 75.41 49.24 74.06 49.20 C 75.57 56.11 76.36 63.08 77.47 70.07 C 77.69 72.43 78.36 74.66 76.35 76.46 C 72.34 79.29 67.23 80.91 62.55 82.28 C 55.78 84.76 48.04 84.81 40.91 84.49 C 32.42 83.12 23.34 81.55 15.93 77.06 C 14.40 76.13 13.50 74.83 13.64 72.97 C 14.37 65.02 16.14 57.12 17.26 49.21 C 16.15 49.37 15.05 49.50 13.94 49.59 C 11.51 48.05 9.83 44.93 8.56 42.40 C 6.25 36.98 4.64 30.90 4.84 24.98 C 4.81 23.01 7.24 21.75 8.57 20.60 C 13.44 17.14 17.91 12.91 23.00 9.79 C 27.13 9.18 31.75 8.99 35.92 9.18 Z" fill="#000000" />
<path d="M 25.17 17.11 C 27.52 16.93 29.87 16.82 32.22 16.65 C 33.20 18.98 34.10 21.21 36.00 22.96 C 40.85 28.20 50.26 28.40 55.21 23.19 C 57.26 21.34 58.17 19.03 59.33 16.59 C 61.69 16.84 64.28 16.73 66.56 17.38 C 71.31 20.50 75.74 24.22 80.21 27.73 C 79.41 32.54 78.39 37.09 76.03 41.42 C 74.35 40.44 72.65 39.37 70.89 38.56 C 68.29 37.32 66.55 40.86 66.97 43.00 C 68.04 52.42 69.69 61.82 71.16 71.19 C 66.30 73.48 61.26 74.98 56.00 76.04 C 43.82 78.36 31.42 76.31 20.22 71.16 C 21.87 62.86 22.83 54.41 24.12 46.04 C 24.36 43.32 25.29 40.99 23.05 38.82 C 20.73 37.16 17.53 40.53 15.44 41.45 C 12.93 37.05 11.85 32.56 11.26 27.55 C 15.85 24.02 20.41 20.41 25.17 17.11 Z" fill="#c3c3c3" />
</svg>