<?xml version="1.0" encoding="UTF-8" standalone="no"?>
<!DOCTYPE svg PUBLIC "-//W3C//DTD SVG 1.1//EN" "http://www.w3.org/Graphics/SVG/1.1/DTD/svg11.dtd">
<svg xmlns="http://www.w3.org/2000/svg" version="1.1" viewBox="0 0 92 92" width="92.0pt" height="92.0pt">
<path d="M 0.00 0.00 L 92.00 0.00 L 92.00 92.00 L 0.00 92.00 L 0.00 0.00 Z" fill="#ffffff" />
<path d="M 23.47 9.69 C 26.61 9.26 29.84 9.20 33.01 9.07 C 34.39 9.14 36.04 8.83 37.12 9.89 C 38.21 11.89 38.34 14.51 39.56 16.45 C 42.32 20.33 48.79 20.32 51.77 16.73 C 53.27 14.73 52.93 10.47 55.18 9.30 C 59.00 8.76 63.03 9.33 66.87 9.53 C 68.66 9.58 69.88 10.72 71.31 11.68 C 76.29 15.36 81.08 19.27 86.03 22.99 C 85.98 27.29 86.43 32.10 85.15 36.21 C 83.71 40.95 81.80 46.07 78.00 49.43 C 76.69 49.47 75.37 49.44 74.06 49.34 C 75.59 56.14 76.37 63.12 77.46 70.02 C 77.73 72.68 78.41 75.17 75.78 76.88 C 70.48 80.25 63.77 81.94 57.77 83.68 C 53.58 84.36 49.25 84.63 45.00 84.68 C 39.69 84.76 34.16 83.26 28.92 82.17 C 24.23 81.03 19.40 79.33 15.35 76.64 C 13.71 75.49 13.49 73.90 13.70 72.02 C 14.56 64.43 16.12 56.90 17.25 49.34 C 15.38 49.28 13.91 50.24 12.57 48.51 C 8.30 43.94 6.27 37.06 5.22 31.03 C 5.05 28.75 4.24 25.46 5.35 23.40 C 7.97 20.68 11.37 18.71 14.24 16.24 C 17.20 14.04 20.11 11.23 23.47 9.69 Z" fill="#000000" />
<path d="M 32.14 16.63 C 33.23 18.95 34.12 21.15 36.00 22.98 C 40.66 27.98 49.67 28.37 54.67 23.69 C 56.99 21.78 58.07 19.26 59.31 16.60 C 61.97 17.00 65.66 16.44 67.83 18.19 C 71.99 21.11 75.88 24.42 80.00 27.40 C 79.59 32.59 78.42 36.68 76.13 41.34 C 73.73 40.07 71.31 38.85 68.77 37.87 C 67.71 39.92 66.55 41.54 67.07 43.98 C 68.17 53.08 69.73 62.16 71.16 71.21 C 66.76 73.18 62.25 74.74 57.52 75.72 C 44.87 78.51 31.94 76.52 20.23 71.19 C 21.85 62.86 22.85 54.41 24.13 46.01 C 24.33 43.34 25.26 40.96 23.07 38.84 C 20.77 37.16 17.52 40.58 15.41 41.43 C 12.98 37.00 11.87 32.60 11.23 27.61 C 15.23 24.45 19.28 21.34 23.38 18.32 C 25.57 16.41 29.38 17.03 32.14 16.63 Z" fill="#feaec9" />
</svg>