<?xml version="1.0" encoding="UTF-8" standalone="no"?>
<!DOCTYPE svg PUBLIC "-//W3C//DTD SVG 1.1//EN" "http://www.w3.org/Graphics/SVG/1.1/DTD/svg11.dtd">
<svg xmlns="http://www.w3.org/2000/svg" version="1.1" viewBox="0 0 92 92" width="92.0pt" height="92.0pt">
<path d="M 0.00 0.00 L 92.00 0.00 L 92.00 92.00 L 0.00 92.00 L 0.00 0.00 Z" fill="#ffffff" />
<path d="M 23.50 9.68 C 27.57 9.25 31.83 8.90 35.92 9.20 C 37.91 9.59 37.99 13.00 38.71 14.55 C 40.20 20.36 49.24 21.01 52.13 16.12 C 53.19 14.21 53.14 10.29 55.20 9.30 C 59.30 8.84 64.20 9.21 68.28 9.78 C 74.54 13.55 80.09 18.70 86.03 22.99 C 85.99 27.81 86.47 32.39 84.91 36.99 C 83.48 41.50 81.61 46.23 77.99 49.44 C 76.68 49.45 75.37 49.42 74.06 49.37 C 75.68 57.11 76.87 65.15 77.73 73.01 C 78.02 76.54 74.46 77.60 71.94 78.96 C 64.89 81.83 57.64 84.36 49.99 84.51 C 41.84 85.33 34.33 83.46 26.51 81.55 C 22.67 80.37 18.68 78.92 15.36 76.63 C 13.70 75.49 13.50 73.91 13.70 72.03 C 14.55 64.44 16.12 56.92 17.25 49.36 C 16.12 49.45 14.99 49.51 13.86 49.53 C 10.90 47.44 8.95 43.55 7.66 40.24 C 5.88 35.22 4.36 29.41 4.98 24.07 C 6.27 21.92 8.97 20.42 10.90 18.84 C 15.05 15.89 18.94 11.91 23.50 9.68 Z" fill="#000000" />
<path d="M 32.12 16.64 C 33.24 18.88 34.18 21.20 35.99 22.98 C 40.99 28.31 50.84 28.32 55.66 22.73 C 57.29 21.02 58.34 18.67 59.41 16.57 C 62.50 16.92 65.95 16.49 68.43 18.60 C 72.37 21.44 76.11 24.56 80.03 27.43 C 79.55 32.65 78.40 36.71 76.11 41.42 C 74.19 40.34 72.24 39.04 70.14 38.35 C 67.44 38.02 66.69 41.73 67.05 43.77 C 68.16 52.94 69.68 62.10 71.19 71.21 C 66.58 73.26 61.84 74.87 56.88 75.87 C 44.42 78.46 31.74 76.43 20.23 71.20 C 21.82 62.85 22.85 54.44 24.13 46.04 C 24.30 43.41 25.25 40.91 23.07 38.85 C 20.81 37.15 17.48 40.61 15.38 41.43 C 12.94 36.80 11.85 32.66 11.28 27.48 C 15.34 24.46 19.28 21.28 23.37 18.32 C 25.61 16.49 29.34 16.92 32.12 16.64 Z" fill="#b5e51d" />
</svg>