<?xml version="1.0" encoding="UTF-8" standalone="no"?>
<!DOCTYPE svg PUBLIC "-//W3C//DTD SVG 1.1//EN" "http://www.w3.org/Graphics/SVG/1.1/DTD/svg11.dtd">
<svg xmlns="http://www.w3.org/2000/svg" version="1.1" viewBox="0 0 92 92" width="92.0pt" height="92.0pt">
<path d="M 0.00 0.00 L 92.00 0.00 L 92.00 92.00 L 0.00 92.00 L 0.00 0.00 Z" fill="#ffffff" />
<path d="M 24.97 9.49 C 28.58 9.32 32.31 8.84 35.92 9.21 C 37.93 9.57 37.97 13.00 38.71 14.54 C 40.20 20.36 49.25 21.02 52.12 16.10 C 53.21 14.22 53.13 10.31 55.18 9.31 C 58.99 8.75 63.04 9.33 66.88 9.53 C 68.66 9.59 69.89 10.73 71.31 11.68 C 76.29 15.35 81.08 19.27 86.03 22.99 C 86.63 32.18 85.18 40.93 79.24 48.21 C 77.88 50.23 76.12 49.25 74.06 49.39 C 75.61 56.17 76.37 63.14 77.46 70.02 C 77.66 72.26 78.36 74.72 76.40 76.40 C 72.41 79.30 67.21 80.88 62.53 82.31 C 55.74 84.67 48.08 84.86 40.96 84.48 C 32.82 83.22 23.74 81.59 16.56 77.44 C 14.82 76.44 13.45 75.21 13.65 73.02 C 14.34 65.11 16.11 57.25 17.25 49.39 C 16.10 49.46 14.96 49.50 13.81 49.51 C 11.27 47.69 9.52 44.53 8.25 41.72 C 6.14 36.50 4.63 30.62 4.84 24.97 C 4.75 23.30 6.89 22.02 8.01 21.02 C 12.05 18.08 15.88 14.85 19.89 11.86 C 21.54 10.73 22.86 9.50 24.97 9.49 Z" fill="#000000" />
<path d="M 32.05 16.59 C 33.20 18.86 34.19 21.15 36.00 22.98 C 40.12 27.49 47.93 28.14 53.00 25.00 C 56.41 22.90 57.43 19.69 59.77 16.72 C 62.33 16.72 65.66 16.59 67.81 18.20 C 72.02 21.06 75.87 24.44 80.01 27.41 C 79.58 32.55 78.38 36.71 76.14 41.35 C 73.88 40.22 71.40 38.43 68.85 38.27 C 67.09 40.17 66.78 41.41 67.08 43.98 C 68.14 53.09 69.75 62.16 71.14 71.23 C 65.95 73.52 60.58 75.27 54.98 76.22 C 43.07 78.21 31.18 76.14 20.23 71.21 C 21.89 62.20 23.14 53.07 24.36 43.99 C 24.76 41.53 24.27 38.31 21.16 38.34 C 19.14 39.09 17.29 40.35 15.42 41.40 C 13.02 37.01 11.87 32.58 11.20 27.64 C 15.23 24.50 19.23 21.29 23.39 18.33 C 25.62 16.53 29.32 16.96 32.05 16.59 Z" fill="#7092bf" />
</svg>