<?xml version="1.0" encoding="UTF-8" standalone="no"?>
<!DOCTYPE svg PUBLIC "-//W3C//DTD SVG 1.1//EN" "http://www.w3.org/Graphics/SVG/1.1/DTD/svg11.dtd">
<svg xmlns="http://www.w3.org/2000/svg" version="1.1" viewBox="0 0 92 92" width="92.0pt" height="92.0pt">
<path d="M 0.00 0.00 L 92.00 0.00 L 92.00 92.00 L 0.00 92.00 L 0.00 0.00 Z" fill="#ffffff" />
<path d="M 35.92 9.19 C 37.97 9.64 37.99 12.94 38.69 14.55 C 40.23 20.36 49.18 21.01 52.14 16.12 C 53.23 14.23 53.09 10.24 55.21 9.29 C 59.01 8.76 63.03 9.34 66.86 9.52 C 68.43 9.54 69.48 10.42 70.72 11.26 C 75.92 15.05 80.89 19.13 86.03 22.99 C 85.98 27.31 86.45 32.12 85.14 36.23 C 83.67 41.04 81.82 46.00 78.00 49.45 C 76.69 49.48 75.37 49.43 74.06 49.31 C 75.59 56.13 76.37 63.13 77.47 70.05 C 77.67 72.36 78.36 74.70 76.37 76.44 C 72.38 79.30 67.21 80.88 62.55 82.30 C 55.75 84.70 48.06 84.85 40.92 84.48 C 32.76 83.20 23.75 81.59 16.55 77.43 C 14.80 76.45 13.45 75.19 13.65 72.99 C 14.35 65.06 16.12 57.19 17.25 49.30 C 16.13 49.42 15.01 49.50 13.89 49.55 C 11.12 47.64 9.23 44.04 7.95 40.98 C 6.00 35.77 4.34 29.66 4.98 24.08 C 6.06 22.09 8.58 20.72 10.31 19.29 C 14.55 16.21 18.49 12.48 23.01 9.83 C 27.14 9.14 31.73 8.98 35.92 9.19 Z" fill="#000000" />
<path d="M 32.19 16.64 C 33.21 18.97 34.10 21.19 36.00 22.97 C 40.84 28.20 50.27 28.39 55.20 23.20 C 57.26 21.34 58.16 19.03 59.32 16.60 C 61.68 16.88 64.28 16.75 66.56 17.38 C 71.32 20.50 75.73 24.22 80.22 27.72 C 79.42 32.53 78.35 37.06 76.07 41.41 C 74.36 40.44 72.67 39.42 70.90 38.57 C 68.29 37.26 66.55 40.90 66.97 43.03 C 68.04 52.45 69.68 61.84 71.16 71.20 C 66.99 73.09 62.72 74.59 58.24 75.54 C 45.37 78.63 32.16 76.62 20.22 71.17 C 21.98 61.84 23.24 52.36 24.47 42.95 C 24.82 40.79 23.59 38.24 21.14 38.29 C 19.13 39.07 17.30 40.39 15.42 41.44 C 12.96 37.01 11.84 32.57 11.26 27.56 C 15.67 24.18 20.02 20.67 24.59 17.52 C 26.82 16.61 29.78 17.00 32.19 16.64 Z" fill="#ffffff" />
</svg>