<?xml version="1.0" encoding="UTF-8" standalone="no"?>
<!DOCTYPE svg PUBLIC "-//W3C//DTD SVG 1.1//EN" "http://www.w3.org/Graphics/SVG/1.1/DTD/svg11.dtd">
<svg xmlns="http://www.w3.org/2000/svg" version="1.1" viewBox="0 0 92 92" width="92.0pt" height="92.0pt">
<path d="M 0.00 0.00 L 92.00 0.00 L 92.00 92.00 L 0.00 92.00 L 0.00 0.00 Z" fill="#ffffff" />
<path d="M 40.38 3.10 C 44.07 5.12 47.46 7.71 51.03 9.95 C 63.90 18.60 77.02 26.90 89.76 35.73 C 85.26 41.27 82.87 47.45 79.93 53.86 C 74.97 65.05 71.16 76.64 67.14 88.17 C 66.36 90.67 63.61 89.76 61.75 89.29 C 53.74 86.63 45.72 84.00 37.68 81.41 C 41.48 70.55 45.78 59.87 49.63 49.04 C 44.34 57.17 39.71 65.52 34.84 73.84 C 34.05 75.34 32.86 76.30 31.54 77.30 C 21.57 74.60 12.33 71.41 4.22 64.76 C 3.06 63.78 2.26 62.57 2.84 61.01 C 3.96 57.10 5.92 53.38 7.79 49.78 C 15.43 35.93 24.49 23.58 33.98 10.99 C 36.01 8.31 38.00 5.48 40.38 3.10 Z" fill="#000200" />
<path d="M 41.40 7.91 C 43.74 8.97 45.89 10.55 48.03 11.95 C 60.31 20.11 72.57 28.31 84.98 36.27 C 84.23 37.65 83.47 39.03 82.72 40.41 C 67.61 31.23 52.48 22.10 37.35 12.97 C 38.64 11.25 39.92 9.47 41.40 7.91 Z" fill="#b5e51e" />
<path d="M 34.22 15.71 C 35.10 16.21 35.99 16.71 36.86 17.21 C 46.31 22.93 55.71 28.71 65.19 34.37 C 63.33 37.94 61.44 41.50 59.55 45.07 C 57.24 43.51 54.97 41.90 52.67 40.33 C 44.11 50.15 37.71 61.99 30.85 73.02 C 22.08 70.90 14.02 67.31 6.75 61.96 C 6.94 61.05 7.13 60.15 7.32 59.25 C 9.04 59.38 10.86 59.75 12.57 59.52 C 15.03 58.86 17.00 56.65 17.10 54.05 C 17.19 51.08 15.77 48.25 14.67 45.55 C 18.93 38.58 23.56 31.86 28.21 25.15 C 30.12 26.80 32.00 29.54 34.89 28.87 C 38.07 27.69 40.00 23.63 38.37 20.51 C 37.25 18.75 35.61 17.27 34.22 15.71 Z" fill="#b5e51e" />
<path d="M 33.14 18.68 C 34.45 19.93 36.22 21.07 36.49 23.02 C 35.83 24.44 35.00 25.69 34.18 27.03 C 32.74 25.69 31.32 24.33 29.92 22.95 C 30.97 21.51 32.02 20.07 33.14 18.68 Z" fill="#b5e51e" />
<path d="M 43.81 26.18 C 44.56 26.55 45.31 26.93 46.06 27.30 C 45.76 29.70 45.53 32.10 45.37 34.51 C 47.13 34.40 48.91 34.39 50.70 34.48 C 50.40 32.54 50.14 30.60 49.90 28.66 C 50.69 28.27 51.47 27.88 52.25 27.50 C 52.65 29.61 53.31 31.90 53.12 34.05 C 52.02 38.44 44.02 38.38 42.91 33.98 C 42.19 31.58 43.34 28.58 43.81 26.18 Z" fill="#000200" />
<path d="M 33.01 35.84 L 32.73 38.32 C 30.68 40.22 27.60 41.09 26.83 44.03 C 27.62 46.69 29.41 47.18 32.02 46.94 C 35.51 46.91 37.68 42.91 40.50 41.10 C 39.94 43.41 40.15 45.55 38.14 47.14 C 35.30 49.50 30.59 50.61 27.23 48.78 C 24.51 47.34 23.63 43.82 25.17 41.18 C 26.73 38.47 30.29 37.09 33.01 35.84 Z" fill="#000200" />
<path d="M 68.15 36.24 C 70.89 37.90 73.63 39.56 76.37 41.22 C 75.32 42.95 74.32 44.66 72.94 46.15 C 70.14 44.79 68.81 42.24 65.39 42.75 C 67.34 45.33 69.37 48.57 73.04 48.46 C 75.82 48.16 77.35 44.50 78.77 42.46 C 79.50 42.97 80.22 43.49 80.95 44.00 C 79.73 46.81 78.49 49.61 77.26 52.41 C 74.72 52.36 71.18 51.57 68.91 52.94 C 66.66 54.26 66.76 57.18 67.70 59.28 C 68.63 61.25 71.17 62.41 72.91 63.57 C 71.44 67.33 70.01 71.09 68.61 74.87 C 65.79 74.30 62.13 72.82 59.54 74.59 C 56.62 76.73 56.93 82.02 60.03 83.87 C 61.48 84.82 63.06 85.61 64.58 86.44 C 56.90 84.74 49.48 81.56 42.15 78.76 C 45.27 77.86 47.99 77.84 49.54 74.57 C 51.35 71.06 48.92 68.92 46.94 66.33 C 49.23 59.45 51.72 52.63 54.21 45.82 C 55.81 46.84 57.41 47.86 59.01 48.88 C 59.99 48.67 60.96 48.46 61.94 48.24 C 63.52 45.08 65.13 41.94 66.79 38.81 C 67.24 37.96 67.70 37.10 68.15 36.24 Z" fill="#b5e51e" />
<path d="M 12.80 48.74 C 14.18 50.70 15.29 53.58 13.76 55.75 C 12.74 57.14 10.19 56.82 8.67 57.18 C 9.75 54.22 11.06 51.38 12.80 48.74 Z" fill="#b5e51e" />
<path d="M 32.70 56.33 C 34.22 58.16 33.45 60.93 33.40 63.13 C 32.72 62.79 32.04 62.44 31.36 62.09 C 30.96 60.58 31.20 58.10 29.76 57.17 C 27.57 56.16 24.56 57.77 23.73 59.94 C 23.35 62.93 25.51 66.13 26.85 68.70 C 26.16 69.19 25.47 69.68 24.78 70.18 C 23.00 66.98 20.69 63.84 21.16 59.99 C 21.57 54.93 29.52 52.09 32.70 56.33 Z" fill="#000200" />
<path d="M 76.22 54.71 C 75.45 56.88 74.65 59.03 73.84 61.18 C 71.47 59.61 70.10 58.49 69.09 55.70 C 71.44 54.81 73.74 54.68 76.22 54.71 Z" fill="#b5e51e" />
<path d="M 61.23 56.69 C 64.78 58.51 64.34 61.92 64.40 65.33 C 63.65 64.95 62.90 64.57 62.15 64.19 C 61.76 62.50 61.45 60.76 60.79 59.18 C 58.43 58.61 56.66 61.11 56.21 63.11 C 56.10 65.10 58.98 66.20 60.24 67.37 C 59.93 68.18 59.63 69.00 59.32 69.82 C 56.86 68.02 53.28 66.66 53.64 62.98 C 53.84 59.90 57.80 55.05 61.23 56.69 Z" fill="#000200" />
<path d="M 46.13 68.73 C 46.57 69.93 47.52 71.26 47.53 72.58 C 47.38 74.47 44.90 75.21 43.61 76.28 C 44.32 73.71 45.14 71.21 46.13 68.73 Z" fill="#b5e51e" />
<path d="M 61.41 76.50 C 63.39 76.17 65.66 76.90 67.60 77.29 C 66.89 79.23 66.16 81.17 65.41 83.09 C 64.22 82.79 63.00 82.53 61.85 82.10 C 59.85 81.02 59.46 77.82 61.41 76.50 Z" fill="#b5e51e" />
</svg>