<?xml version="1.0" encoding="UTF-8" standalone="no"?>
<!DOCTYPE svg PUBLIC "-//W3C//DTD SVG 1.1//EN" "http://www.w3.org/Graphics/SVG/1.1/DTD/svg11.dtd">
<svg xmlns="http://www.w3.org/2000/svg" version="1.1" viewBox="0 0 92 92" width="92.0pt" height="92.0pt">
<path d="M 0.00 0.00 L 92.00 0.00 L 92.00 92.00 L 0.00 92.00 L 0.00 0.00 Z" fill="#ffffff" />
<path d="M 40.39 3.08 C 41.79 3.79 43.11 4.71 44.42 5.58 C 59.49 15.68 74.79 25.46 89.76 35.71 C 85.41 41.04 83.07 47.01 80.22 53.19 C 75.41 64.12 71.41 75.44 67.70 86.79 C 67.22 87.92 67.04 89.23 65.77 89.72 C 63.80 90.08 62.09 89.38 60.25 88.81 C 52.76 86.27 45.23 83.85 37.70 81.43 C 41.46 70.54 45.78 59.87 49.64 49.03 C 44.25 57.27 39.44 66.00 34.45 74.49 C 33.77 75.86 32.58 76.44 31.36 77.26 C 21.48 74.57 12.26 71.35 4.22 64.76 C 3.06 63.83 2.26 62.55 2.83 61.03 C 3.96 57.12 5.92 53.38 7.80 49.78 C 15.43 35.94 24.50 23.58 33.98 10.99 C 36.02 8.31 38.02 5.48 40.39 3.08 Z" fill="#000000" />
<path d="M 41.40 7.83 C 43.51 8.87 45.46 10.28 47.43 11.57 C 59.93 19.83 72.36 28.22 85.00 36.26 C 84.22 37.64 83.46 39.03 82.69 40.42 C 67.62 31.21 52.49 22.12 37.37 12.99 C 38.67 11.25 39.95 9.44 41.40 7.83 Z" fill="#ffffff" />
<path d="M 34.10 15.72 C 44.62 21.64 54.77 28.28 65.20 34.38 C 63.32 37.94 61.43 41.50 59.55 45.07 C 57.25 43.51 54.97 41.91 52.68 40.34 C 44.10 50.12 37.72 61.98 30.86 73.00 C 22.14 70.92 13.86 67.32 6.73 61.85 C 6.93 60.95 7.14 60.05 7.34 59.16 C 8.82 59.33 10.32 59.67 11.81 59.68 C 14.58 59.31 17.06 56.86 17.11 54.00 C 17.20 50.91 15.81 48.34 14.63 45.58 C 18.94 38.58 23.59 31.81 28.27 25.06 C 30.17 26.93 31.78 29.50 34.85 28.90 C 38.09 27.68 39.99 23.70 38.42 20.48 C 37.25 18.71 35.52 17.29 34.10 15.72 Z" fill="#ffffff" />
<path d="M 33.06 18.76 C 34.56 20.08 36.24 20.82 36.47 23.02 C 36.14 24.48 34.87 25.72 34.04 26.94 C 32.61 25.64 31.27 24.29 29.97 22.87 C 30.97 21.48 31.98 20.10 33.06 18.76 Z" fill="#ffffff" />
<path d="M 43.88 26.24 C 44.67 26.57 45.46 26.90 46.24 27.24 C 45.82 29.63 44.90 31.60 45.72 34.02 C 47.36 35.18 49.03 34.35 50.81 34.08 C 50.48 32.28 50.14 30.49 49.78 28.69 C 50.57 28.30 51.36 27.91 52.15 27.52 C 52.64 29.71 53.80 32.75 52.83 34.90 C 50.91 38.38 43.96 38.12 42.91 33.96 C 42.10 31.55 43.31 28.62 43.88 26.24 Z" fill="#000000" />
<path d="M 32.51 36.01 C 32.76 36.84 33.01 37.66 33.27 38.49 C 30.81 39.87 27.52 40.83 26.93 44.00 C 27.54 47.67 31.56 47.31 34.25 46.40 C 37.09 45.44 37.36 42.21 40.46 41.36 C 40.87 48.08 32.48 51.38 27.23 48.78 C 24.50 47.34 23.64 43.83 25.15 41.19 C 26.77 38.49 29.81 37.32 32.51 36.01 Z" fill="#000000" />
<path d="M 68.22 36.37 C 71.00 37.81 73.62 39.58 76.30 41.19 C 75.25 42.99 74.15 44.74 72.98 46.47 C 70.35 45.17 68.75 41.30 65.57 43.09 C 67.54 45.59 69.43 48.54 73.04 48.46 C 76.02 48.12 77.36 44.47 78.78 42.25 L 80.76 44.11 C 79.80 46.99 78.43 49.76 77.19 52.54 C 74.64 52.28 71.13 51.49 68.89 52.96 C 66.65 54.23 66.72 57.25 67.72 59.30 C 68.78 61.52 70.96 62.28 72.96 63.48 C 71.44 67.29 70.00 71.14 68.55 74.97 C 65.89 74.29 62.90 72.97 60.23 74.21 C 57.22 75.55 56.80 80.00 58.57 82.49 C 60.02 84.78 62.23 84.92 64.60 85.82 C 64.18 86.00 63.76 86.18 63.34 86.36 C 56.14 84.08 48.95 81.63 42.03 78.58 C 43.74 78.18 45.71 78.08 47.27 77.27 C 49.04 75.91 50.67 73.41 50.04 71.10 C 49.70 69.30 47.98 67.72 46.87 66.35 C 49.30 59.50 51.69 52.63 54.22 45.82 C 55.82 46.84 57.42 47.87 59.01 48.90 C 59.99 48.68 60.97 48.46 61.95 48.24 C 64.01 44.28 65.85 40.16 68.22 36.37 Z" fill="#ffffff" />
<path d="M 13.04 48.28 C 13.69 50.61 15.42 53.50 13.79 55.71 C 12.48 57.39 10.65 56.80 8.78 56.97 C 9.51 55.01 10.30 53.07 11.31 51.24 C 11.87 50.24 12.45 49.26 13.04 48.28 Z" fill="#ffffff" />
<path d="M 32.70 56.32 C 34.34 58.58 33.57 60.62 33.25 63.12 C 32.49 62.73 31.74 62.34 30.98 61.95 C 30.98 60.72 30.94 59.48 30.86 58.25 C 29.03 55.49 24.67 57.32 23.75 59.95 C 23.27 62.93 25.48 66.13 26.92 68.62 C 26.21 69.13 25.50 69.64 24.79 70.15 C 22.97 67.03 20.68 63.82 21.15 60.01 C 21.56 54.94 29.49 52.10 32.70 56.32 Z" fill="#000000" />
<path d="M 76.18 54.86 C 75.44 56.93 74.67 59.00 73.89 61.05 C 71.67 59.66 69.79 59.00 69.53 56.05 C 71.04 53.86 73.92 55.01 76.18 54.86 Z" fill="#ffffff" />
<path d="M 60.56 56.45 C 64.52 57.80 64.72 61.78 64.22 65.35 C 63.46 64.94 62.71 64.53 61.95 64.11 C 61.71 62.36 61.76 60.76 60.71 59.24 C 58.55 58.38 56.56 61.31 56.21 63.12 C 56.01 65.18 59.01 66.24 60.33 67.32 C 60.03 68.11 59.74 68.91 59.44 69.70 C 56.71 68.06 53.38 66.84 53.64 63.01 C 53.84 60.06 57.26 55.71 60.56 56.45 Z" fill="#000000" />
<path d="M 46.04 68.87 C 46.62 70.12 47.93 71.63 47.48 73.01 C 46.77 74.89 45.17 75.22 43.62 76.20 C 44.27 73.70 45.08 71.28 46.04 68.87 Z" fill="#ffffff" />
<path d="M 61.43 76.49 C 63.40 76.04 65.65 76.91 67.57 77.39 C 66.89 79.25 66.20 81.09 65.47 82.93 C 64.12 82.67 62.23 82.75 61.26 81.68 C 59.78 80.25 59.66 77.75 61.43 76.49 Z" fill="#ffffff" />
</svg>