<?xml version="1.0" encoding="UTF-8" standalone="no"?>
<!DOCTYPE svg PUBLIC "-//W3C//DTD SVG 1.1//EN" "http://www.w3.org/Graphics/SVG/1.1/DTD/svg11.dtd">
<svg xmlns="http://www.w3.org/2000/svg" version="1.1" viewBox="0 0 92 92" width="92.0pt" height="92.0pt">
<path d="M 0.00 0.00 L 92.00 0.00 L 92.00 92.00 L 0.00 92.00 L 0.00 0.00 Z" fill="#ffffff" />
<path d="M 40.38 3.11 C 43.26 4.61 45.88 6.64 48.63 8.37 C 62.31 17.52 76.18 26.39 89.76 35.70 C 85.30 41.25 82.85 47.44 79.93 53.85 C 74.96 65.06 71.15 76.67 67.12 88.23 C 66.35 90.66 63.54 89.74 61.73 89.28 C 53.73 86.63 45.72 83.99 37.69 81.41 C 41.48 70.54 45.79 59.86 49.64 49.01 C 44.37 57.12 39.70 65.50 34.84 73.85 C 34.05 75.33 32.88 76.29 31.58 77.30 C 21.59 74.62 12.33 71.40 4.22 64.75 C 3.08 63.80 2.26 62.60 2.83 61.06 C 3.86 57.37 5.70 53.84 7.45 50.43 C 15.21 36.17 24.67 23.35 34.40 10.42 C 36.30 7.94 38.16 5.32 40.38 3.11 Z" fill="#000000" />
<path d="M 41.43 7.91 C 42.89 8.56 44.29 9.48 45.63 10.36 C 58.71 19.05 71.77 27.80 84.99 36.28 C 84.22 37.65 83.46 39.04 82.69 40.42 C 67.61 31.20 52.45 22.11 37.33 12.96 C 38.74 11.30 39.86 9.37 41.43 7.91 Z" fill="#c3c3c3" />
<path d="M 34.12 15.68 C 44.60 21.70 54.78 28.26 65.21 34.38 C 63.31 37.94 61.42 41.51 59.55 45.08 C 57.27 43.48 54.95 41.93 52.67 40.32 C 44.12 50.15 37.70 61.98 30.84 73.03 C 22.11 70.89 13.88 67.30 6.69 61.86 C 6.94 60.96 7.19 60.07 7.43 59.17 C 10.59 59.64 13.21 60.33 15.63 57.62 C 18.81 54.12 16.13 49.17 14.66 45.52 C 18.96 38.57 23.56 31.83 28.22 25.12 C 30.08 26.82 31.99 29.54 34.86 28.90 C 38.04 27.71 40.05 23.65 38.39 20.52 C 37.24 18.72 35.53 17.27 34.12 15.68 Z" fill="#c3c3c3" />
<path d="M 33.14 18.71 C 34.57 20.04 36.12 20.95 36.51 23.01 C 35.91 24.42 34.94 25.71 34.14 27.01 C 32.68 25.68 31.29 24.30 29.92 22.88 C 30.98 21.48 32.02 20.07 33.14 18.71 Z" fill="#c3c3c3" />
<path d="M 43.81 26.22 C 44.59 26.55 45.37 26.88 46.15 27.22 C 45.76 29.59 45.11 31.70 45.66 34.11 C 47.41 34.86 48.99 34.41 50.80 34.23 C 50.51 32.37 50.16 30.52 49.78 28.68 C 50.59 28.29 51.41 27.90 52.22 27.51 C 52.62 29.74 53.71 32.71 52.84 34.88 C 50.94 38.39 43.96 38.13 42.90 33.96 C 42.19 31.57 43.31 28.59 43.81 26.22 Z" fill="#000000" />
<path d="M 32.46 35.97 C 32.72 36.78 32.99 37.60 33.25 38.41 C 30.88 39.85 27.54 40.91 26.91 44.00 C 27.48 46.70 29.46 47.16 31.93 46.95 C 36.02 46.76 37.14 43.15 40.48 41.12 C 40.02 43.43 40.13 45.57 38.13 47.14 C 35.28 49.51 30.60 50.60 27.22 48.79 C 24.50 47.31 23.64 43.87 25.15 41.20 C 26.67 38.58 29.89 37.32 32.46 35.97 Z" fill="#000000" />
<path d="M 68.22 36.43 C 71.04 37.77 73.65 39.59 76.31 41.21 C 75.24 42.99 74.14 44.75 72.99 46.48 C 70.45 44.87 68.74 41.96 65.41 42.84 C 67.35 45.35 69.42 48.58 73.02 48.45 C 75.93 48.20 77.49 44.20 79.00 42.12 L 80.60 44.27 C 79.83 47.10 78.40 49.80 77.23 52.48 C 74.67 52.31 71.14 51.54 68.89 52.96 C 66.64 54.27 66.73 57.22 67.71 59.30 C 68.66 61.30 71.15 62.40 72.93 63.56 C 71.43 67.33 70.00 71.12 68.58 74.91 C 65.79 74.26 62.15 72.80 59.55 74.58 C 56.59 76.73 56.96 82.01 60.01 83.91 C 61.58 84.85 63.29 85.56 64.91 86.39 C 57.04 84.94 49.50 81.53 42.04 78.69 C 43.77 78.26 45.63 77.98 47.26 77.25 C 48.88 76.11 50.21 74.02 50.18 72.00 C 50.10 69.80 48.14 67.94 46.91 66.24 C 49.32 59.42 51.70 52.59 54.22 45.82 C 55.82 46.85 57.43 47.87 59.02 48.91 C 60.00 48.68 60.98 48.46 61.96 48.24 C 64.00 44.30 65.81 40.16 68.22 36.43 Z" fill="#c3c3c3" />
<path d="M 13.07 48.16 C 13.62 50.43 15.38 53.64 13.80 55.70 C 12.77 57.20 10.26 56.82 8.68 57.10 C 9.83 53.97 11.40 51.05 13.07 48.16 Z" fill="#c3c3c3" />
<path d="M 32.69 56.31 C 34.27 58.33 33.49 60.81 33.36 63.16 C 32.62 62.77 31.87 62.39 31.13 62.00 C 30.82 60.19 31.41 58.25 29.69 57.11 C 27.47 56.29 24.52 57.74 23.74 59.96 C 23.32 62.92 25.52 66.17 26.89 68.69 C 26.18 69.18 25.46 69.67 24.75 70.16 C 23.02 67.04 20.69 63.80 21.14 60.03 C 21.54 54.95 29.46 52.09 32.69 56.31 Z" fill="#000000" />
<path d="M 76.21 54.79 C 75.43 56.91 74.66 59.03 73.85 61.13 C 71.75 59.68 69.84 58.84 69.46 56.02 C 71.23 54.03 73.84 54.96 76.21 54.79 Z" fill="#c3c3c3" />
<path d="M 60.56 56.45 C 64.67 57.88 64.47 61.73 64.36 65.38 C 63.61 64.98 62.86 64.58 62.11 64.17 C 61.43 62.54 61.89 58.29 59.12 59.16 C 57.52 60.11 55.46 62.55 56.54 64.49 C 57.64 65.60 59.03 66.51 60.31 67.43 C 60.00 68.21 59.70 68.99 59.39 69.77 C 56.81 68.01 53.32 66.78 53.64 63.00 C 53.87 60.03 57.25 55.72 60.56 56.45 Z" fill="#000000" />
<path d="M 46.10 68.73 C 46.53 69.93 47.59 71.31 47.52 72.62 C 47.33 74.47 44.89 75.31 43.59 76.31 C 44.32 73.74 45.10 71.21 46.10 68.73 Z" fill="#c3c3c3" />
<path d="M 61.43 76.46 C 63.47 76.21 65.60 76.87 67.60 77.29 C 66.88 79.24 66.14 81.17 65.39 83.11 C 64.17 82.81 62.99 82.54 61.82 82.09 C 59.82 80.87 59.48 77.91 61.43 76.46 Z" fill="#c3c3c3" />
</svg>