<?xml version="1.0" encoding="UTF-8" standalone="no"?>
<!DOCTYPE svg PUBLIC "-//W3C//DTD SVG 1.1//EN" "http://www.w3.org/Graphics/SVG/1.1/DTD/svg11.dtd">
<svg xmlns="http://www.w3.org/2000/svg" version="1.1" viewBox="0 0 92 92" width="92.0pt" height="92.0pt">
<path d="M 0.00 0.00 L 92.00 0.00 L 92.00 92.00 L 0.00 92.00 L 0.00 0.00 Z" fill="#ffffff" />
<path d="M 40.38 3.10 C 46.70 6.82 52.68 11.20 58.87 15.14 C 69.15 22.03 79.62 28.64 89.76 35.72 C 85.13 41.49 82.68 47.86 79.64 54.52 C 75.22 64.79 71.45 75.35 67.98 85.97 C 67.48 87.15 67.08 89.22 65.78 89.75 C 63.55 90.06 61.60 89.23 59.51 88.57 C 52.26 86.11 44.97 83.78 37.68 81.42 C 41.46 70.56 45.78 59.90 49.61 49.06 C 44.49 56.95 39.93 65.08 35.22 73.21 C 34.27 74.92 33.17 76.11 31.64 77.31 C 21.63 74.65 12.35 71.43 4.22 64.76 C 3.07 63.78 2.26 62.60 2.83 61.04 C 3.93 57.11 5.92 53.38 7.79 49.78 C 15.43 35.93 24.49 23.58 33.97 10.99 C 36.01 8.31 38.00 5.48 40.38 3.10 Z" fill="#000204" />
<path d="M 41.11 7.99 C 43.34 8.82 45.46 10.24 47.44 11.54 C 59.83 19.90 72.34 28.07 84.84 36.26 C 84.20 37.61 83.55 38.95 82.90 40.29 C 67.65 31.56 52.81 22.09 37.65 13.18 C 38.71 11.40 39.86 9.66 41.11 7.99 Z" fill="#01a3e7" />
<path d="M 34.21 15.73 C 35.09 16.25 35.98 16.77 36.86 17.30 C 46.30 22.90 55.64 28.70 65.07 34.33 C 63.35 37.96 61.43 41.49 59.49 45.00 C 57.21 43.45 54.93 41.88 52.67 40.31 C 44.15 50.12 37.73 61.89 30.91 72.92 C 22.19 71.02 14.29 67.39 7.08 62.14 C 7.17 61.24 7.26 60.34 7.35 59.44 C 9.24 59.51 11.23 59.64 13.11 59.41 C 14.88 58.61 16.59 57.12 16.81 55.08 C 17.19 51.65 15.52 48.28 15.27 45.17 C 15.68 43.80 16.52 42.51 17.27 41.30 C 20.81 35.91 24.44 30.57 28.17 25.30 C 30.14 26.86 32.01 29.39 34.84 28.76 C 37.61 28.09 39.15 24.95 38.81 22.25 C 38.75 19.65 35.80 17.53 34.21 15.73 Z" fill="#01a3e7" />
<path d="M 32.81 19.29 C 34.86 19.44 36.12 21.08 36.46 23.01 C 35.76 24.36 34.99 25.66 34.26 26.99 C 32.70 25.70 31.27 24.36 29.91 22.87 C 30.86 21.64 31.76 20.43 32.81 19.29 Z" fill="#01a3e7" />
<path d="M 45.79 26.61 C 45.69 29.22 45.57 31.83 45.56 34.44 C 47.21 34.44 48.87 34.43 50.53 34.41 C 50.41 32.41 50.26 30.41 50.09 28.42 L 52.39 27.94 C 52.71 30.51 54.26 34.01 51.96 35.99 C 49.23 38.27 46.67 36.95 43.64 36.35 C 42.76 33.22 42.05 30.49 43.62 27.41 C 43.95 26.38 44.91 26.49 45.79 26.61 Z" fill="#000204" />
<path d="M 32.58 35.95 C 32.64 36.84 32.70 37.73 32.76 38.62 C 31.04 39.65 29.24 40.60 27.82 42.03 C 27.46 43.47 27.26 44.96 27.21 46.48 C 29.49 46.63 32.08 46.98 34.32 46.38 C 36.51 44.77 38.32 42.76 40.66 41.34 C 40.05 43.34 39.85 45.73 38.12 47.14 C 35.42 49.45 31.24 50.42 27.88 49.12 C 25.00 47.90 23.63 44.80 24.79 41.88 C 26.13 38.78 29.77 37.40 32.58 35.95 Z" fill="#000204" />
<path d="M 68.15 36.29 C 70.83 37.89 73.50 39.49 76.18 41.08 C 75.25 42.99 74.17 44.77 72.98 46.53 C 71.35 45.11 69.66 43.77 67.97 42.42 C 67.15 42.62 66.33 42.81 65.51 43.01 C 67.27 45.08 69.07 48.01 71.97 48.41 C 75.19 49.05 76.95 45.10 78.65 43.06 C 79.40 43.27 80.16 43.47 80.91 43.68 C 79.82 46.63 78.49 49.46 77.30 52.37 C 74.73 52.37 71.42 51.73 69.07 52.85 C 66.72 53.98 66.97 57.19 67.68 59.25 C 68.63 61.17 71.11 62.39 72.80 63.59 C 71.47 67.32 70.05 71.01 68.63 74.70 C 65.04 73.84 62.18 73.59 58.58 74.55 C 58.16 76.24 57.63 78.05 57.59 79.80 C 58.00 81.32 58.84 82.79 59.56 84.18 C 61.37 84.78 63.15 85.42 64.93 86.11 C 57.20 85.18 49.71 81.37 42.18 78.92 C 45.24 77.89 48.03 77.80 49.55 74.56 C 51.41 71.22 48.80 68.94 47.09 66.33 C 49.10 59.47 51.74 52.79 54.14 46.06 C 56.45 47.14 58.83 49.39 61.50 48.36 C 63.71 45.53 65.06 41.98 66.81 38.85 C 67.26 38.00 67.70 37.14 68.15 36.29 Z" fill="#01a3e7" />
<path d="M 13.20 48.33 C 14.14 51.37 14.52 53.53 13.72 56.65 C 12.06 56.67 10.41 56.68 8.75 56.68 C 10.04 53.77 11.50 51.02 13.20 48.33 Z" fill="#01a3e7" />
<path d="M 32.72 56.38 C 34.02 57.91 33.50 60.78 33.69 62.67 C 32.96 62.61 32.23 62.55 31.49 62.48 C 31.18 60.92 30.87 59.35 30.55 57.79 C 29.64 57.31 28.73 56.83 27.82 56.36 C 26.49 57.44 24.53 58.39 23.71 59.95 C 23.14 64.27 28.06 67.05 25.21 70.87 C 23.20 67.40 20.81 64.27 21.25 60.02 C 21.42 54.87 29.62 52.09 32.72 56.38 Z" fill="#000204" />
<path d="M 70.59 54.55 C 72.40 54.63 74.22 54.72 76.03 54.82 C 75.36 56.94 74.63 59.05 73.84 61.14 C 72.28 59.98 70.82 58.73 69.44 57.36 C 69.81 56.42 70.19 55.48 70.59 54.55 Z" fill="#01a3e7" />
<path d="M 61.20 56.62 C 64.64 58.45 64.30 61.60 64.49 64.94 C 63.68 64.72 62.87 64.50 62.06 64.28 C 61.27 62.07 62.33 58.70 58.89 59.30 C 57.22 60.61 56.11 61.79 56.29 64.06 C 57.40 65.22 58.63 66.20 59.85 67.23 C 59.71 68.13 59.56 69.02 59.41 69.92 C 57.03 68.11 53.21 66.60 53.62 62.97 C 53.91 59.84 57.67 55.18 61.20 56.62 Z" fill="#000204" />
<path d="M 47.72 69.57 C 47.53 73.34 46.93 74.18 44.04 76.41 C 44.54 73.26 44.31 70.86 47.72 69.57 Z" fill="#01a3e7" />
<path d="M 60.59 76.56 C 62.71 76.49 64.83 76.55 66.96 76.62 C 66.54 78.81 66.10 80.99 65.68 83.17 C 63.93 82.58 62.16 82.02 60.42 81.40 C 60.30 79.77 60.37 78.18 60.59 76.56 Z" fill="#01a3e7" />
</svg>