<?xml version="1.0" encoding="UTF-8" standalone="no"?>
<!DOCTYPE svg PUBLIC "-//W3C//DTD SVG 1.1//EN" "http://www.w3.org/Graphics/SVG/1.1/DTD/svg11.dtd">
<svg xmlns="http://www.w3.org/2000/svg" version="1.1" viewBox="0 0 92 92" width="92.0pt" height="92.0pt">
<path d="M 0.00 0.00 L 92.00 0.00 L 92.00 92.00 L 0.00 92.00 L 0.00 0.00 Z" fill="#ffffff" />
<path d="M 75.29 22.71 C 78.87 24.84 82.36 28.49 82.06 32.96 C 81.76 36.11 79.49 39.15 78.33 42.09 L 76.73 42.60 C 73.21 43.09 69.70 43.75 66.16 44.10 C 65.20 44.14 64.25 44.16 63.30 44.16 C 63.23 41.94 62.93 39.55 63.36 37.36 C 64.20 35.00 66.13 32.90 67.65 30.93 C 63.65 32.04 59.61 32.54 56.44 35.44 C 52.17 39.26 49.40 45.19 46.20 49.94 C 40.29 46.34 34.46 43.94 27.46 43.57 C 27.84 44.33 28.21 45.09 28.59 45.85 C 26.47 45.96 24.35 46.07 22.23 46.23 C 26.66 47.51 31.00 48.33 34.70 51.29 C 37.37 53.38 39.09 56.22 40.34 59.33 L 40.56 60.26 C 35.73 62.39 30.85 64.30 25.70 65.50 C 24.56 65.50 23.42 65.50 22.28 65.48 C 18.93 64.90 15.58 64.31 12.19 64.01 C 9.99 62.92 7.99 61.54 6.01 60.10 C 7.28 56.47 8.49 53.10 11.59 50.60 C 20.47 43.12 31.10 42.92 40.30 36.30 C 43.70 34.00 46.29 31.01 49.02 27.99 C 52.03 24.49 56.88 23.25 61.18 22.12 C 65.62 21.07 71.15 20.35 75.29 22.71 Z" fill="#3a1104" />
<path d="M 73.26 23.21 C 67.15 24.30 61.26 25.73 55.48 28.02 C 53.87 28.26 52.26 28.39 50.65 28.50 C 52.94 26.56 55.37 25.07 58.27 24.21 C 63.37 22.75 68.07 21.01 73.26 23.21 Z" fill="#eeb6c7" />
<path d="M 73.26 23.21 C 74.21 23.80 75.70 25.33 74.41 26.33 C 71.21 29.33 66.19 30.63 61.92 31.01 C 59.07 31.34 57.59 29.53 55.48 28.02 C 61.26 25.73 67.15 24.30 73.26 23.21 Z" fill="#fc8792" />
<path d="M 77.38 26.05 C 81.25 29.89 81.33 35.62 77.46 39.46 C 74.17 42.00 68.93 42.30 64.94 42.93 C 65.27 39.90 64.83 36.50 67.21 34.20 C 70.22 31.10 73.89 28.59 77.38 26.05 Z" fill="#fa6b14" />
<path d="M 49.27 30.01 C 50.11 29.70 50.82 29.84 51.41 30.44 C 52.32 32.16 49.67 32.92 48.68 31.76 C 48.30 31.07 48.50 30.49 49.27 30.01 Z" fill="#d8a172" />
<path d="M 67.65 30.93 C 66.13 32.90 64.20 35.00 63.36 37.36 C 62.93 39.55 63.23 41.94 63.30 44.16 C 54.65 47.97 48.31 53.95 40.34 59.33 C 39.09 56.22 37.37 53.38 34.70 51.29 C 31.00 48.33 26.66 47.51 22.23 46.23 C 24.35 46.07 26.47 45.96 28.59 45.85 C 28.21 45.09 27.84 44.33 27.46 43.57 C 34.46 43.94 40.29 46.34 46.20 49.94 C 49.40 45.19 52.17 39.26 56.44 35.44 C 59.61 32.54 63.65 32.04 67.65 30.93 Z" fill="#fcd9e8" />
<path d="M 52.74 32.03 C 54.58 32.12 56.42 32.23 58.26 32.36 C 57.02 33.00 55.78 33.65 54.51 34.23 C 53.91 33.50 53.32 32.77 52.74 32.03 Z" fill="#bf6336" />
<path d="M 50.22 32.94 C 48.15 34.53 46.26 35.49 43.77 36.27 C 45.78 33.56 46.95 33.34 50.22 32.94 Z" fill="#cb9077" />
<path d="M 53.84 34.70 C 50.97 38.95 48.07 43.16 45.55 47.63 C 43.56 46.47 41.56 45.31 39.57 44.15 C 40.44 43.47 41.31 42.80 42.18 42.12 C 43.43 42.63 44.67 43.13 45.91 43.63 C 45.41 42.32 44.91 41.02 44.41 39.72 C 45.93 39.23 47.45 38.76 48.98 38.29 C 49.36 37.18 49.75 36.08 50.19 34.99 C 51.41 34.84 52.62 34.76 53.84 34.70 Z" fill="#c35848" />
<path d="M 41.23 37.30 C 43.00 36.97 43.43 39.12 41.81 39.71 C 40.05 40.03 39.63 37.89 41.23 37.30 Z" fill="#c69172" />
<path d="M 40.35 40.88 C 39.17 41.77 37.97 42.79 36.64 43.46 C 34.98 43.62 33.22 43.18 31.57 42.94 C 34.83 40.85 36.46 40.27 40.35 40.88 Z" fill="#c6826f" />
<path d="M 76.73 42.60 C 73.70 45.65 70.26 46.88 66.18 47.92 C 66.17 46.65 66.16 45.38 66.16 44.10 C 69.70 43.75 73.21 43.09 76.73 42.60 Z" fill="#b55bd1" />
<path d="M 76.73 42.60 L 78.33 42.09 C 77.98 43.23 77.64 44.38 77.32 45.53 C 74.10 46.94 70.87 48.56 67.48 49.51 C 64.45 50.35 60.97 48.41 58.01 49.10 C 52.97 51.51 51.19 58.11 46.33 61.32 C 39.96 65.71 31.68 67.62 24.05 68.04 C 19.11 68.17 12.74 68.31 8.42 65.57 C 6.27 64.32 6.30 62.29 6.01 60.10 C 7.99 61.54 9.99 62.92 12.19 64.01 C 11.39 64.28 10.60 64.56 9.81 64.86 C 14.09 66.31 17.88 66.20 22.28 65.48 C 23.42 65.50 24.56 65.50 25.70 65.50 C 33.73 66.34 41.19 63.42 47.15 58.13 C 44.92 58.75 42.71 59.42 40.56 60.26 L 40.34 59.33 C 48.31 53.95 54.65 47.97 63.30 44.16 C 64.25 44.16 65.20 44.14 66.16 44.10 C 66.16 45.38 66.17 46.65 66.18 47.92 C 70.26 46.88 73.70 45.65 76.73 42.60 Z" fill="#2f1834" />
<path d="M 61.36 46.18 C 62.63 44.88 64.64 46.22 63.68 47.85 C 62.41 49.14 60.40 47.81 61.36 46.18 Z" fill="#722e91" />
<path d="M 32.07 51.93 C 35.03 53.88 36.36 56.77 37.78 59.89 C 29.31 64.04 20.06 65.33 11.13 61.75 C 9.32 61.22 8.93 59.28 9.54 57.69 C 10.95 56.43 12.86 55.63 14.54 54.78 C 13.84 54.22 13.14 53.66 12.45 53.10 C 13.73 52.89 15.01 52.67 16.29 52.44 C 16.19 51.78 16.09 51.11 15.99 50.44 C 17.38 49.93 18.77 49.39 20.17 48.92 C 24.67 47.46 28.43 49.42 32.07 51.93 Z" fill="#e74403" />
<path d="M 47.15 58.13 C 41.19 63.42 33.73 66.34 25.70 65.50 C 30.85 64.30 35.73 62.39 40.56 60.26 C 42.71 59.42 44.92 58.75 47.15 58.13 Z" fill="#6a1c89" />
<path d="M 12.19 64.01 C 15.58 64.31 18.93 64.90 22.28 65.48 C 17.88 66.20 14.09 66.31 9.81 64.86 C 10.60 64.56 11.39 64.28 12.19 64.01 Z" fill="#611c7f" />
</svg>