<?xml version="1.0" encoding="UTF-8" standalone="no"?>
<!DOCTYPE svg PUBLIC "-//W3C//DTD SVG 1.1//EN" "http://www.w3.org/Graphics/SVG/1.1/DTD/svg11.dtd">
<svg xmlns="http://www.w3.org/2000/svg" version="1.1" viewBox="0 0 92 92" width="92.0pt" height="92.0pt">
<path d="M 0.00 0.00 L 93.00 0.00 L 93.00 92.00 L 0.00 92.00 L 0.00 0.00 Z" fill="#ffffff" />
<path d="M 77.20 21.72 C 80.41 23.81 83.78 26.89 84.05 30.96 C 84.42 34.49 82.13 36.70 80.65 39.62 C 80.10 41.17 79.86 42.85 79.51 44.46 C 76.18 45.80 72.88 47.25 69.50 48.47 C 66.83 49.86 63.74 47.82 61.00 47.20 C 59.35 48.40 57.41 49.46 56.04 50.98 C 54.29 53.30 53.09 55.83 51.00 57.93 C 47.23 61.81 41.64 64.00 36.52 65.40 C 29.51 67.16 21.83 67.76 14.74 66.24 C 12.05 65.58 8.48 64.22 8.09 61.05 C 8.88 56.86 9.65 53.02 13.09 50.15 C 22.03 42.22 32.89 42.06 42.36 35.33 C 46.41 32.70 49.20 29.07 52.40 25.56 C 55.37 23.26 59.50 22.20 63.08 21.25 C 67.55 20.20 73.00 19.40 77.20 21.72 Z" fill="#191614" />
<path d="M 76.00 22.39 C 69.69 23.22 63.85 23.61 58.35 27.10 C 56.23 27.19 54.11 27.25 52.00 27.46 C 54.38 25.85 56.80 24.39 59.55 23.51 C 65.22 21.82 70.21 19.80 76.00 22.39 Z" fill="#bdb5aa" />
<path d="M 76.00 22.39 L 76.17 22.44 C 76.69 23.22 77.04 24.10 77.23 25.08 C 71.70 28.89 66.78 30.12 60.11 30.15 C 59.53 29.13 58.94 28.12 58.35 27.10 C 63.85 23.61 69.69 23.22 76.00 22.39 Z" fill="#998e83" />
<path d="M 79.50 24.79 C 80.52 26.47 81.67 28.18 82.43 30.00 C 82.68 33.04 81.56 37.00 79.05 38.92 C 75.88 40.61 71.52 41.66 67.94 41.78 C 66.39 41.10 67.03 38.36 67.14 37.03 C 67.83 32.44 73.68 29.87 76.87 26.98 C 77.75 26.25 78.63 25.52 79.50 24.79 Z" fill="#7a716b" />
<path d="M 53.75 30.68 C 52.79 31.24 51.61 31.28 50.21 30.82 C 50.07 28.11 54.83 28.07 53.75 30.68 Z" fill="#938a89" />
<path d="M 70.29 29.81 C 68.11 32.02 65.72 33.87 64.98 37.04 C 64.81 38.88 65.39 40.81 65.69 42.62 C 60.81 45.35 56.01 48.15 51.65 51.66 C 48.77 53.98 45.70 55.99 42.55 57.91 C 40.54 54.66 38.83 51.60 35.54 49.44 C 31.54 46.67 27.26 46.14 22.62 45.17 C 25.72 44.98 28.81 44.89 31.91 44.65 L 27.74 42.75 C 35.27 42.39 41.41 44.70 47.56 48.76 C 48.08 48.53 48.59 48.31 49.11 48.08 C 51.77 42.86 54.50 37.93 58.96 33.98 C 61.81 31.34 66.65 30.87 70.29 29.81 Z" fill="#d7cab9" />
<path d="M 54.81 30.98 C 56.69 30.99 58.57 31.00 60.45 31.01 C 59.24 31.97 58.04 32.93 56.84 33.89 C 56.16 32.92 55.48 31.95 54.81 30.98 Z" fill="#67625c" />
<path d="M 52.35 31.70 C 51.16 32.83 49.95 33.94 48.75 35.08 C 47.51 34.99 46.27 34.89 45.03 34.79 C 47.53 32.69 49.05 31.98 52.35 31.70 Z" fill="#84817a" />
<path d="M 81.59 31.18 C 81.09 32.75 80.68 34.46 79.94 35.94 C 78.72 37.01 77.14 37.67 75.78 38.52 C 77.24 35.29 78.77 33.35 81.59 31.18 Z" fill="#928a81" />
<path d="M 56.22 33.65 C 53.99 36.61 51.72 39.53 49.56 42.54 C 48.35 41.45 47.14 40.36 45.93 39.27 C 46.66 38.68 47.39 38.08 48.12 37.48 C 49.50 37.70 50.87 37.93 52.25 38.15 C 51.60 37.00 50.94 35.85 50.29 34.70 C 52.27 34.21 54.18 33.86 56.22 33.65 Z" fill="#66625c" />
<path d="M 47.45 36.10 C 44.84 38.01 43.80 38.98 40.33 38.01 C 42.74 36.75 44.77 36.29 47.45 36.10 Z" fill="#6e6c69" />
<path d="M 39.06 39.55 C 40.08 39.67 41.11 39.80 42.13 39.94 C 40.94 40.98 39.75 42.01 38.56 43.04 C 36.46 42.60 34.36 42.13 32.27 41.65 C 34.50 40.82 36.71 40.01 39.06 39.55 Z" fill="#857e79" />
<path d="M 45.46 40.25 C 45.42 41.24 45.38 42.23 45.35 43.21 C 46.72 43.25 48.09 43.29 49.46 43.33 C 48.91 44.40 48.35 45.47 47.80 46.54 C 45.51 45.54 43.25 44.47 41.01 43.38 C 42.52 42.37 44.00 41.33 45.46 40.25 Z" fill="#68605d" />
<path d="M 78.96 41.50 C 76.21 45.10 72.23 45.61 68.17 46.94 C 67.97 45.89 67.78 44.84 67.58 43.79 C 71.35 42.87 75.09 41.92 78.96 41.50 Z" fill="#6b6963" />
<path d="M 33.50 50.51 C 36.92 52.51 38.32 55.64 40.25 58.90 C 35.11 60.67 30.62 62.92 25.05 62.84 C 20.81 62.78 16.30 62.26 12.37 60.60 C 10.41 58.97 10.98 57.00 12.12 55.09 C 14.10 54.78 16.10 54.64 18.08 54.40 C 16.47 53.62 14.83 52.90 13.19 52.18 C 15.48 51.99 17.77 51.78 20.05 51.57 C 18.90 50.74 17.75 49.91 16.60 49.09 C 19.01 49.04 21.43 49.01 23.84 48.96 C 22.54 48.27 21.24 47.57 19.94 46.88 C 24.86 46.98 29.39 47.59 33.50 50.51 Z" fill="#5b544d" />
<path d="M 35.60 55.37 C 34.27 58.40 30.89 59.08 28.00 59.80 C 24.91 60.64 22.48 59.47 19.59 58.62 C 25.06 57.99 30.29 56.72 35.60 55.37 Z" fill="#726b63" />
<path d="M 49.39 57.23 C 42.94 61.96 35.69 64.55 27.72 65.15 C 35.09 62.84 42.14 59.84 49.39 57.23 Z" fill="#2c2a27" />
<path d="M 11.56 63.30 C 12.63 63.36 13.70 63.42 14.77 63.50 C 17.90 63.75 20.99 64.25 24.08 64.80 C 19.53 65.44 15.87 64.89 11.56 63.30 Z" fill="#272624" />
</svg>