<?xml version="1.0" encoding="UTF-8" standalone="no"?>
<!DOCTYPE svg PUBLIC "-//W3C//DTD SVG 1.1//EN" "http://www.w3.org/Graphics/SVG/1.1/DTD/svg11.dtd">
<svg xmlns="http://www.w3.org/2000/svg" version="1.1" viewBox="0 0 92 92" width="92.0pt" height="92.0pt">
<path d="M 0.00 0.00 L 92.00 0.00 L 92.00 92.00 L 0.00 92.00 L 0.00 0.00 Z" fill="#ffffff" />
<path d="M 76.28 19.74 C 79.76 21.99 83.44 25.49 83.03 30.02 C 83.02 32.92 81.38 34.68 79.97 37.02 C 78.90 38.51 78.94 40.73 78.59 42.52 C 74.59 44.05 70.61 45.63 66.69 47.34 C 64.48 46.64 62.28 45.92 60.09 45.20 C 57.67 46.94 55.16 48.07 53.75 50.79 C 51.76 54.39 49.11 57.42 45.48 59.43 C 36.77 64.40 25.86 65.82 16.02 64.70 C 12.46 64.25 9.75 63.19 7.26 60.53 C 7.84 56.49 7.73 52.85 10.61 49.59 C 15.35 44.52 22.72 41.40 29.21 39.25 C 37.38 36.39 44.78 32.04 50.02 25.00 C 51.88 22.14 55.91 21.08 58.98 20.03 C 64.37 18.53 71.11 16.78 76.28 19.74 Z" fill="#010101" />
<path d="M 72.65 19.51 C 74.10 20.23 75.59 20.30 76.15 22.06 C 75.36 23.81 73.15 24.92 71.56 25.84 C 70.48 26.09 69.41 26.35 68.36 26.64 C 66.99 27.01 65.62 27.38 64.28 27.85 C 62.70 27.92 61.13 27.97 59.55 28.01 C 58.99 26.96 58.36 25.96 57.64 25.01 C 55.98 24.82 54.78 24.96 53.33 25.85 C 52.81 25.36 52.29 24.86 51.77 24.36 C 53.41 23.69 55.03 22.97 56.63 22.20 C 57.21 22.07 57.79 21.94 58.38 21.81 C 59.38 21.39 60.39 20.98 61.41 20.60 C 63.04 20.20 64.70 19.90 66.35 19.54 C 68.67 18.87 70.32 18.76 72.65 19.51 Z" fill="#ffffff" />
<path d="M 78.05 23.79 C 79.00 24.55 79.82 25.51 80.63 26.42 C 80.99 28.48 81.16 30.40 80.51 32.43 C 79.40 34.40 78.47 36.22 76.56 37.54 C 75.25 37.79 73.93 38.02 72.61 38.25 C 70.75 38.84 68.85 39.28 67.01 39.94 C 66.65 38.53 66.26 37.13 65.93 35.71 C 66.54 34.65 67.12 33.58 67.68 32.50 C 68.93 30.12 70.15 29.30 72.59 28.30 C 74.55 26.95 76.18 25.23 78.05 23.79 Z" fill="#ffffff" />
<path d="M 52.98 28.92 C 51.71 29.14 50.40 29.14 49.04 28.91 C 49.80 26.28 52.20 26.33 52.98 28.92 Z" fill="#ffffff" />
<path d="M 69.51 27.78 C 67.80 29.68 66.01 31.49 64.40 33.49 C 64.17 35.11 64.04 36.74 63.93 38.37 C 64.41 39.10 64.89 39.84 65.36 40.58 C 64.41 40.93 63.47 41.29 62.52 41.65 C 60.88 42.71 59.26 43.81 57.55 44.77 C 56.52 45.35 55.51 45.96 54.50 46.58 C 52.41 48.13 50.55 49.94 48.39 51.40 C 47.81 51.82 47.22 52.23 46.64 52.65 C 44.85 53.75 43.10 54.92 41.34 56.06 C 40.76 54.85 40.12 53.67 39.45 52.50 C 37.87 50.15 35.97 48.16 33.55 46.64 C 32.54 46.20 31.53 45.76 30.52 45.30 C 29.46 44.93 28.40 44.54 27.36 44.12 C 25.91 44.05 24.45 44.00 23.00 43.94 L 23.00 42.98 C 25.34 43.00 27.69 43.01 30.03 43.02 L 29.97 42.46 C 29.10 41.99 28.23 41.50 27.38 41.01 C 29.71 40.98 32.03 41.00 34.36 41.08 C 35.77 41.71 37.20 42.27 38.62 42.88 C 39.22 42.97 39.83 43.05 40.44 43.13 C 41.46 43.66 42.50 44.18 43.53 44.69 C 44.54 45.38 45.52 46.11 46.49 46.85 C 47.33 46.44 48.18 46.03 49.04 45.64 C 49.03 44.93 49.02 44.22 49.02 43.51 C 49.88 42.18 50.75 40.85 51.65 39.54 C 52.86 37.79 54.21 36.16 55.34 34.36 C 55.98 33.68 56.62 33.00 57.27 32.32 C 59.03 31.32 60.72 30.20 62.46 29.17 C 64.93 29.06 67.16 28.50 69.51 27.78 Z" fill="#ffffff" />
<path d="M 56.01 28.83 C 57.03 29.18 57.35 29.81 56.97 30.72 C 55.79 31.47 54.09 28.92 56.01 28.83 Z" fill="#ffffff" />
<path d="M 47.68 29.71 L 48.16 31.04 L 50.46 29.64 C 49.56 30.81 48.62 31.93 47.67 33.06 C 46.65 33.04 45.63 33.02 44.61 33.00 C 45.63 31.90 46.66 30.80 47.68 29.71 Z" fill="#ffffff" />
<path d="M 52.86 33.96 C 51.96 34.13 51.07 34.13 50.17 33.96 C 50.24 31.56 52.70 31.61 52.86 33.96 Z" fill="#ffffff" />
<path d="M 43.84 35.96 C 42.94 36.13 42.04 36.14 41.16 35.97 C 41.28 33.60 43.72 33.57 43.84 35.96 Z" fill="#ffffff" />
<path d="M 49.99 37.28 C 48.93 39.63 47.78 38.45 46.01 37.71 C 47.07 35.40 48.23 36.56 49.99 37.28 Z" fill="#ffffff" />
<path d="M 38.81 39.59 C 38.24 41.62 36.66 40.79 35.31 40.23 C 34.54 40.13 33.77 40.03 33.00 39.93 L 33.00 39.21 C 33.77 39.02 34.53 38.83 35.30 38.63 C 36.62 38.30 38.57 37.48 38.81 39.59 Z" fill="#ffffff" />
<path d="M 44.36 38.44 L 42.89 41.05 C 44.23 41.52 45.59 41.95 46.97 42.34 L 47.17 44.15 C 45.08 42.94 43.05 41.98 40.62 41.68 C 41.86 40.59 43.10 39.49 44.36 38.44 Z" fill="#ffffff" />
<path d="M 73.18 40.00 C 74.68 39.64 76.21 39.90 76.15 41.77 C 75.08 41.73 74.03 41.32 72.99 40.56 L 73.18 40.00 Z" fill="#ffffff" />
<path d="M 68.26 41.23 C 70.27 41.17 72.04 41.79 74.01 42.15 L 74.00 42.79 C 71.73 43.27 69.58 44.01 67.24 44.11 C 68.53 43.40 69.88 42.86 71.25 42.32 L 68.26 41.23 Z" fill="#ffffff" />
<path d="M 34.65 53.71 C 33.66 54.46 32.64 55.16 31.57 55.81 C 30.46 56.14 29.36 56.49 28.28 56.88 C 25.52 57.02 22.76 57.03 20.00 57.03 L 20.00 56.01 C 23.11 55.98 26.63 56.34 29.59 55.36 C 30.18 55.14 30.77 54.93 31.36 54.72 C 32.44 54.33 33.54 54.00 34.65 53.71 Z" fill="#ffffff" />
</svg>