<?xml version="1.0" encoding="UTF-8" standalone="no"?>
<!DOCTYPE svg PUBLIC "-//W3C//DTD SVG 1.1//EN" "http://www.w3.org/Graphics/SVG/1.1/DTD/svg11.dtd">
<svg xmlns="http://www.w3.org/2000/svg" version="1.1" viewBox="0 0 92 92" width="92.0pt" height="92.0pt">
<path d="M 0.00 0.00 L 92.00 0.00 L 92.00 92.00 L 61.50 92.00 C 60.86 82.32 58.88 72.80 58.03 63.13 C 60.34 61.82 62.64 60.50 64.93 59.15 C 66.98 66.99 68.54 74.94 70.37 82.83 C 71.95 82.88 73.52 82.97 75.10 83.10 C 74.62 78.49 73.70 74.03 72.47 69.56 C 70.07 59.96 67.78 50.34 65.18 40.79 C 64.21 37.46 64.31 34.15 64.43 30.74 C 64.60 28.75 63.23 27.22 62.36 25.54 C 63.82 22.43 65.47 19.42 67.23 16.47 C 69.07 16.05 71.50 16.09 73.07 14.99 C 75.48 12.79 76.83 9.15 78.17 6.23 C 66.42 3.19 54.09 1.97 41.98 2.03 C 38.57 2.03 35.21 2.45 31.85 3.04 C 32.39 5.70 32.81 8.56 33.90 11.06 C 35.10 13.09 37.79 14.12 38.97 16.16 C 39.66 18.27 39.86 20.58 40.17 22.77 C 36.80 23.43 33.23 23.87 29.99 25.05 C 27.54 25.88 26.24 28.13 25.72 30.54 C 25.53 33.55 27.96 37.00 27.31 40.25 C 24.35 55.77 21.40 71.34 19.08 86.98 C 20.90 87.25 22.72 87.51 24.54 87.76 C 26.57 79.12 27.22 70.28 29.10 61.61 C 30.56 61.87 32.05 62.12 33.48 62.47 C 35.26 62.60 34.69 64.78 34.81 65.98 C 34.53 71.61 33.98 77.19 34.09 82.84 C 35.42 82.86 36.75 82.87 38.08 82.89 C 39.01 76.56 38.95 70.24 39.22 63.87 C 43.77 64.39 48.28 65.12 52.77 65.99 C 53.49 74.65 53.94 83.34 54.64 92.00 L 0.00 92.00 L 0.00 0.00 Z" fill="#ffffff" />
<path d="M 41.98 2.03 C 54.09 1.97 66.42 3.19 78.17 6.23 C 76.83 9.15 75.48 12.79 73.07 14.99 C 71.50 16.09 69.07 16.05 67.23 16.47 C 65.47 19.42 63.82 22.43 62.36 25.54 C 63.23 27.22 64.60 28.75 64.43 30.74 C 64.31 34.15 64.21 37.46 65.18 40.79 C 67.78 50.34 70.07 59.96 72.47 69.56 C 73.70 74.03 74.62 78.49 75.10 83.10 C 73.52 82.97 71.95 82.88 70.37 82.83 C 68.54 74.94 66.98 66.99 64.93 59.15 C 62.64 60.50 60.34 61.82 58.03 63.13 C 58.88 72.80 60.86 82.32 61.50 92.00 L 54.64 92.00 C 53.94 83.34 53.49 74.65 52.77 65.99 C 48.28 65.12 43.77 64.39 39.22 63.87 C 38.95 70.24 39.01 76.56 38.08 82.89 C 36.75 82.87 35.42 82.86 34.09 82.84 C 33.98 77.19 34.53 71.61 34.81 65.98 C 34.69 64.78 35.26 62.60 33.48 62.47 C 32.05 62.12 30.56 61.87 29.10 61.61 C 27.22 70.28 26.57 79.12 24.54 87.76 C 22.72 87.51 20.90 87.25 19.08 86.98 C 21.40 71.34 24.35 55.77 27.31 40.25 C 27.96 37.00 25.53 33.55 25.72 30.54 C 26.24 28.13 27.54 25.88 29.99 25.05 C 33.23 23.87 36.80 23.43 40.17 22.77 C 39.86 20.58 39.66 18.27 38.97 16.16 C 37.79 14.12 35.10 13.09 33.90 11.06 C 32.81 8.56 32.39 5.70 31.85 3.04 C 35.21 2.45 38.57 2.03 41.98 2.03 Z" fill="#9e9e9e" />
<path d="M 45.80 4.54 C 55.10 4.91 64.14 5.50 73.12 8.17 C 72.08 9.67 71.15 11.60 69.66 12.68 C 66.48 12.98 63.15 12.44 59.97 12.16 C 52.40 11.33 44.83 11.14 37.24 10.67 C 37.17 8.81 37.09 6.96 37.09 5.10 C 39.97 4.63 42.88 4.43 45.80 4.54 Z" fill="#ffffff" />
<path d="M 39.73 6.22 C 47.96 5.93 56.19 6.41 64.33 7.65 C 66.35 8.14 68.39 7.96 69.46 10.05 C 67.71 12.69 64.53 11.26 61.94 11.15 C 54.80 9.92 47.64 10.13 40.46 9.52 C 40.20 8.42 39.96 7.32 39.73 6.22 Z" fill="#9e9e9e" />
<path d="M 74.20 7.46 C 75.97 7.11 75.91 9.81 74.17 9.41 C 73.42 8.74 73.43 8.10 74.20 7.46 Z" fill="#ffffff" />
<path d="M 43.45 14.02 C 49.62 13.70 55.91 14.77 62.05 15.34 C 60.91 18.21 59.95 21.79 57.79 24.05 C 53.31 24.25 48.74 23.39 44.30 22.84 C 43.98 19.92 43.52 16.97 43.45 14.02 Z" fill="#ffffff" />
<path d="M 61.34 29.21 C 59.86 30.63 58.60 32.00 56.44 32.28 C 49.54 33.53 42.00 33.87 35.19 31.91 C 39.39 30.22 43.66 30.20 48.10 30.13 C 45.63 30.71 43.11 30.97 40.63 31.50 C 46.57 32.35 52.14 32.42 57.68 29.80 C 52.52 26.29 45.88 26.68 39.93 27.08 C 36.56 27.19 34.44 29.12 31.95 31.08 C 31.13 30.56 30.31 30.03 29.49 29.50 C 30.84 28.53 32.06 27.05 33.68 26.72 C 42.95 24.72 52.66 25.15 61.34 29.21 Z" fill="#ffffff" />
<path d="M 29.65 34.40 C 34.51 34.89 39.09 36.04 44.03 35.72 C 48.18 35.47 52.28 35.08 56.44 35.41 C 50.34 37.83 44.38 37.38 37.95 37.09 C 34.89 36.98 32.24 35.95 29.65 34.40 Z" fill="#ffffff" />
<path d="M 60.04 37.00 C 61.75 42.45 62.76 48.24 63.76 53.87 C 61.51 53.55 59.26 53.24 57.01 52.93 C 56.23 48.29 55.74 43.64 55.41 38.95 C 56.95 38.29 58.48 37.62 60.04 37.00 Z" fill="#ffffff" />
<path d="M 32.31 39.43 C 33.49 39.22 34.67 39.04 35.87 38.89 C 35.88 43.21 36.49 48.55 34.71 52.58 C 33.24 53.33 31.65 53.87 30.12 54.45 C 30.61 49.48 30.84 44.23 32.31 39.43 Z" fill="#ffffff" />
<path d="M 41.08 40.08 C 44.24 39.60 47.57 39.71 50.76 39.79 C 51.24 44.02 51.54 48.24 51.50 52.50 C 47.65 52.38 43.79 52.11 39.95 51.80 C 40.01 48.02 39.74 43.66 41.08 40.08 Z" fill="#ffffff" />
<path d="M 53.54 43.84 C 53.81 46.94 53.79 50.01 53.55 53.11 C 53.22 50.01 53.17 46.94 53.54 43.84 Z" fill="#ffffff" />
<path d="M 27.72 50.95 C 27.84 58.02 26.46 65.17 25.26 72.12 C 25.42 65.03 26.64 57.95 27.72 50.95 Z" fill="#ffffff" />
<path d="M 39.75 54.75 C 43.80 54.78 47.84 54.95 51.89 55.24 C 52.01 57.23 52.13 59.22 52.24 61.21 C 48.09 60.95 43.98 60.49 39.87 59.90 C 39.86 58.18 39.82 56.47 39.75 54.75 Z" fill="#ffffff" />
<path d="M 35.20 56.07 C 35.05 56.98 34.90 57.89 34.72 58.79 C 33.14 58.84 31.55 58.82 29.96 58.80 C 31.68 57.84 33.42 56.92 35.20 56.07 Z" fill="#ffffff" />
<path d="M 57.60 56.33 C 59.08 56.16 60.61 56.16 62.11 56.15 C 60.47 57.23 58.80 58.26 57.10 59.25 C 57.24 58.27 57.41 57.30 57.60 56.33 Z" fill="#ffffff" />
<path d="M 55.68 66.74 C 57.40 73.05 58.17 79.65 58.53 86.17 C 56.78 79.88 56.06 73.25 55.68 66.74 Z" fill="#ffffff" />
<path d="M 36.36 75.82 C 37.84 75.28 37.76 80.70 36.30 80.17 C 35.48 79.29 35.51 76.68 36.36 75.82 Z" fill="#ffffff" />
</svg>