<?xml version="1.0" encoding="UTF-8" standalone="no"?>
<!DOCTYPE svg PUBLIC "-//W3C//DTD SVG 1.1//EN" "http://www.w3.org/Graphics/SVG/1.1/DTD/svg11.dtd">
<svg xmlns="http://www.w3.org/2000/svg" version="1.1" viewBox="0 0 92 92" width="92.0pt" height="92.0pt">
<path d="M 0.00 0.00 L 92.00 0.00 L 92.00 92.00 L 0.00 92.00 L 0.00 0.00 Z" fill="#fffffe" />
<path d="M 45.00 1.18 C 55.84 1.25 66.66 2.56 77.19 5.16 C 75.94 8.06 74.59 11.93 72.02 13.90 C 70.07 14.80 67.88 15.19 65.92 16.04 C 63.95 18.50 62.77 21.67 61.43 24.51 C 62.15 25.71 63.00 26.92 63.47 28.25 C 63.59 31.62 62.90 34.79 63.80 38.15 C 65.72 45.90 67.81 53.61 69.64 61.38 C 71.25 68.33 73.40 74.99 74.05 82.14 C 72.49 82.03 70.93 81.92 69.36 81.81 C 67.60 73.91 66.00 65.98 63.96 58.14 C 61.67 59.47 59.38 60.80 57.11 62.16 C 57.84 71.70 59.79 81.07 60.53 90.61 C 58.34 90.87 56.15 91.06 53.94 91.18 C 52.74 82.42 52.45 73.67 51.73 64.86 C 47.27 64.13 42.81 63.44 38.31 63.00 C 38.19 65.94 38.09 68.89 37.98 71.84 C 37.27 71.48 36.55 71.12 35.84 70.76 C 35.66 73.88 35.34 76.98 35.05 80.09 C 35.80 77.80 36.43 75.47 37.14 73.17 C 37.46 76.06 37.43 78.95 37.27 81.85 C 35.87 81.82 34.48 81.78 33.08 81.74 C 33.13 74.96 33.70 68.20 33.75 61.41 C 31.85 61.20 29.96 60.98 28.06 60.77 C 26.06 69.34 25.77 78.09 23.45 86.58 C 21.65 86.49 19.88 86.31 18.10 86.00 C 20.38 70.38 23.44 54.85 26.31 39.33 C 27.18 34.44 22.61 30.60 26.15 26.14 C 28.90 22.86 35.22 22.79 39.15 21.79 C 38.74 19.43 38.73 16.66 37.66 14.49 C 36.28 13.12 34.52 12.11 33.21 10.68 C 31.86 8.14 31.42 4.98 31.09 2.15 C 35.76 0.96 40.21 1.18 45.00 1.18 Z" fill="#8eae59" />
<path d="M 35.88 3.94 C 47.77 3.16 60.64 4.12 72.19 7.14 C 71.09 8.68 70.03 10.29 68.60 11.55 C 65.65 11.84 62.58 11.43 59.64 11.16 C 51.91 10.25 44.25 10.01 36.49 9.57 C 36.29 7.69 36.08 5.82 35.88 3.94 Z" fill="#fffffe" />
<path d="M 39.94 5.15 C 49.11 4.73 58.54 5.86 67.60 7.33 C 67.81 8.42 68.03 9.51 68.24 10.60 C 62.79 10.60 57.47 9.61 52.05 9.33 C 47.73 9.07 43.40 8.89 39.09 8.50 C 39.30 7.59 38.29 4.72 39.94 5.15 Z" fill="#8eae59" />
<path d="M 42.50 13.05 C 48.66 12.76 54.93 13.83 61.06 14.37 C 59.87 17.43 58.60 20.45 57.20 23.42 C 52.58 22.92 47.96 22.50 43.35 21.86 C 43.01 18.95 42.53 15.99 42.50 13.05 Z" fill="#fffffe" />
<path d="M 54.40 25.93 C 56.67 26.35 58.35 27.64 60.13 29.02 C 57.79 30.34 55.45 31.42 52.74 31.66 C 46.26 32.39 39.33 32.58 32.96 30.99 C 30.83 30.50 29.92 28.78 28.55 27.25 C 36.57 24.06 46.06 23.96 54.40 25.93 Z" fill="#fffffe" />
<path d="M 38.65 26.13 C 44.42 25.67 51.53 24.95 56.27 28.90 C 51.99 30.73 47.62 31.86 42.98 30.67 C 39.65 29.74 36.22 29.71 32.83 29.08 C 33.24 26.25 36.50 26.54 38.65 26.13 Z" fill="#8eae59" />
<path d="M 28.66 33.44 C 31.84 33.76 34.92 34.46 38.10 34.69 C 44.14 35.13 49.86 34.32 56.03 34.36 C 49.14 36.63 42.18 36.50 35.05 35.70 C 32.73 35.45 30.70 34.51 28.66 33.44 Z" fill="#fffffe" />
<path d="M 59.33 35.94 C 60.50 41.56 61.78 47.14 62.78 52.79 C 60.50 52.53 58.22 52.25 55.95 51.96 C 55.23 47.30 54.46 42.76 54.62 38.02 C 56.14 37.21 57.72 36.55 59.33 35.94 Z" fill="#fffffe" />
<path d="M 31.33 38.46 C 32.47 38.24 33.61 38.06 34.77 37.91 C 34.81 42.18 35.26 46.92 34.08 51.06 C 32.61 52.06 30.85 52.76 29.23 53.47 C 29.57 48.51 29.78 43.21 31.33 38.46 Z" fill="#fffffe" />
<path d="M 39.95 39.02 C 43.13 38.53 46.47 38.63 49.68 38.75 C 50.10 43.07 50.46 47.39 50.69 51.72 C 46.81 51.47 42.95 51.13 39.09 50.72 C 39.11 46.93 38.87 42.68 39.95 39.02 Z" fill="#fffffe" />
<path d="M 39.04 53.65 C 43.00 53.72 46.95 53.96 50.91 54.28 C 51.08 56.31 51.23 58.35 51.35 60.38 C 46.94 60.03 42.63 59.41 38.32 58.45 C 38.56 56.85 38.80 55.25 39.04 53.65 Z" fill="#fffffe" />
<path d="M 33.80 55.11 C 33.86 56.02 33.91 56.94 33.96 57.86 C 32.59 57.77 31.23 57.68 29.86 57.59 C 31.16 56.74 32.47 55.90 33.80 55.11 Z" fill="#fffffe" />
<path d="M 56.62 55.35 C 58.11 55.19 59.59 55.19 61.09 55.17 C 59.53 56.26 57.93 57.25 56.27 58.18 C 56.37 57.24 56.48 56.29 56.62 55.35 Z" fill="#fffffe" />
<path d="M 55.27 66.95 C 56.22 72.93 57.03 79.02 57.63 85.05 C 55.97 79.17 55.15 73.05 55.27 66.95 Z" fill="#fffffe" />
</svg>