<?xml version="1.0" encoding="UTF-8" standalone="no"?>
<!DOCTYPE svg PUBLIC "-//W3C//DTD SVG 1.1//EN" "http://www.w3.org/Graphics/SVG/1.1/DTD/svg11.dtd">
<svg xmlns="http://www.w3.org/2000/svg" version="1.1" viewBox="0 0 92 92" width="92.0pt" height="92.0pt">
<path d="M 0.00 0.00 L 92.00 0.00 L 92.00 92.00 L 0.00 92.00 L 0.00 0.00 Z" fill="#ffffff" />
<path d="M 62.60 6.13 C 61.91 7.34 61.18 8.53 60.43 9.70 C 60.07 8.85 59.71 7.99 59.35 7.14 L 59.24 5.17 L 61.23 5.67 C 60.61 4.99 59.99 4.32 59.35 3.66 L 58.75 3.12 C 56.39 2.45 54.31 1.80 51.95 2.91 C 46.61 4.90 44.68 10.44 43.86 15.61 C 42.10 15.46 40.17 15.16 38.43 15.48 C 37.23 17.33 37.19 19.75 35.72 21.59 C 33.98 20.91 31.98 19.04 30.08 19.06 C 28.42 20.65 27.44 22.83 27.20 25.10 C 27.25 28.13 29.19 30.79 32.03 31.84 C 35.58 33.42 39.19 32.87 42.75 31.64 C 44.57 30.75 46.07 29.64 47.52 28.23 L 48.27 27.43 C 44.81 25.07 40.55 23.91 36.81 21.99 C 37.10 21.54 37.39 21.09 37.67 20.64 C 39.14 21.49 40.65 22.19 42.20 22.74 C 42.32 20.53 42.42 18.32 42.50 16.11 L 43.80 15.94 C 43.63 18.35 43.25 20.89 43.51 23.30 C 45.16 24.15 46.81 24.80 48.70 24.50 C 51.07 22.51 52.26 23.26 54.99 23.66 C 56.20 23.00 57.23 21.95 58.31 21.09 C 59.43 20.22 60.61 19.42 61.78 18.62 C 61.44 16.64 61.10 14.66 60.81 12.66 C 61.29 10.58 61.50 8.59 62.86 6.83 C 63.31 12.85 63.21 19.01 62.80 25.03 C 62.01 23.70 61.62 22.17 61.63 20.43 C 60.40 21.42 59.20 22.44 58.04 23.52 C 57.00 24.14 55.95 24.76 54.91 25.38 C 55.30 26.71 55.70 28.03 56.15 29.34 C 56.78 30.22 57.45 31.08 58.18 31.88 C 59.67 31.05 61.96 28.28 59.60 27.09 C 59.84 25.62 60.11 24.16 60.40 22.70 C 61.64 24.67 61.97 26.69 62.17 28.96 C 61.54 30.63 60.08 32.05 58.96 33.41 C 63.79 41.42 69.36 48.78 73.48 57.35 L 72.16 57.00 C 71.06 55.95 70.45 52.74 68.56 53.61 C 67.48 54.07 66.78 52.19 66.08 51.58 L 67.80 50.39 C 65.91 46.20 63.23 42.30 60.67 38.49 C 58.79 35.76 57.08 32.88 55.07 30.24 L 54.99 30.15 C 53.62 30.86 52.19 31.45 50.79 32.11 C 50.60 33.39 50.61 34.72 50.83 36.09 C 51.71 35.61 52.59 35.13 53.46 34.64 C 53.80 33.44 54.21 32.27 54.70 31.13 C 56.37 35.66 58.55 40.03 60.53 44.43 L 61.05 45.46 L 61.22 45.80 L 61.88 46.88 C 62.65 49.32 63.73 51.60 64.75 53.94 C 58.25 51.30 51.65 49.66 44.67 48.96 L 45.46 50.55 C 51.76 51.18 57.75 52.39 63.76 54.38 C 62.44 55.05 61.52 55.23 60.00 55.29 L 60.47 56.98 L 58.81 57.15 C 58.85 56.15 58.89 55.14 58.91 54.14 C 57.94 54.06 56.97 53.99 56.00 53.93 C 56.00 55.01 56.00 56.10 56.00 57.18 L 54.96 57.13 C 54.94 55.90 54.93 54.67 54.95 53.44 C 51.66 52.91 48.37 52.40 45.06 51.99 C 45.28 56.10 45.45 60.20 45.76 64.31 C 52.99 65.24 60.38 64.37 67.08 61.46 C 66.08 59.61 65.08 57.77 64.03 55.95 C 64.47 55.65 64.91 55.34 65.35 55.03 C 67.10 58.50 68.56 62.41 70.88 65.49 L 71.97 65.20 C 74.14 64.76 74.74 62.81 76.05 61.24 C 75.85 67.92 75.64 75.29 72.85 81.46 L 72.70 81.84 C 72.13 81.14 71.55 80.46 70.96 79.78 C 68.26 81.48 68.22 81.94 67.82 85.13 L 67.04 85.74 C 66.81 84.07 66.81 82.41 66.86 80.74 C 53.15 80.86 37.09 79.43 25.27 71.84 C 25.03 72.71 24.77 73.57 24.51 74.42 C 23.97 73.17 23.45 71.92 22.95 70.65 L 22.76 69.00 C 21.89 69.00 21.01 69.00 20.14 69.02 L 20.37 67.65 C 18.29 63.85 19.03 59.87 20.19 55.90 L 20.80 56.24 C 20.88 59.93 22.74 61.30 25.34 63.48 C 34.99 70.58 46.45 71.40 58.01 71.85 C 62.56 71.71 67.69 71.32 71.73 69.07 C 72.75 68.25 73.72 67.37 74.71 66.50 C 73.17 66.64 70.90 67.51 69.65 66.40 C 68.84 65.36 68.21 64.16 67.52 63.04 C 64.04 64.36 60.77 65.69 57.00 65.95 C 53.33 66.14 49.63 66.02 45.95 66.06 L 45.74 68.20 C 43.48 68.20 41.21 68.20 38.94 68.09 C 38.79 67.41 38.64 66.72 38.48 66.04 L 38.04 64.34 C 34.45 63.19 30.27 62.34 28.01 59.00 C 27.39 57.63 27.31 56.03 27.78 54.21 C 29.05 55.60 28.92 57.62 29.99 59.00 C 32.37 60.87 35.68 61.87 38.53 62.81 C 38.58 59.31 38.73 55.83 39.00 52.33 C 37.75 52.44 36.51 52.53 35.26 52.60 L 32.79 51.66 C 34.76 51.17 36.75 50.77 38.76 50.42 C 38.81 49.72 38.86 49.02 38.91 48.32 C 36.62 48.33 34.55 48.75 32.42 47.67 L 32.28 47.03 C 34.50 46.98 36.73 46.96 38.96 46.93 C 38.97 44.38 38.95 41.83 38.88 39.28 C 36.64 39.00 34.39 38.69 32.14 38.54 L 31.31 38.50 C 30.29 38.25 29.26 38.04 28.23 37.89 L 27.16 37.71 C 25.52 36.39 26.08 34.86 25.94 33.00 C 26.02 29.61 25.67 25.79 26.68 22.53 C 27.74 19.92 29.42 17.78 30.04 14.97 C 30.46 12.41 34.02 11.74 35.97 12.88 C 38.16 14.18 40.41 13.98 42.86 14.00 C 44.28 8.89 45.66 4.22 50.97 1.95 C 55.32 -0.13 60.97 1.27 62.60 6.13 Z" fill="#34464a" />
<path d="M 51.95 2.91 C 54.31 1.80 56.39 2.45 58.75 3.12 L 59.35 3.66 C 56.97 3.70 54.87 3.32 52.75 4.66 C 51.12 5.53 49.47 6.34 47.77 7.06 C 47.69 8.96 47.79 10.76 48.01 12.64 C 47.44 14.02 46.89 15.41 46.31 16.78 C 43.47 18.81 44.78 20.85 45.13 23.70 C 46.31 23.98 47.51 24.25 48.70 24.50 C 46.81 24.80 45.16 24.15 43.51 23.30 C 43.25 20.89 43.63 18.35 43.80 15.94 L 42.50 16.11 C 41.28 16.24 40.10 16.48 38.94 16.81 C 38.51 18.09 38.08 19.36 37.67 20.64 C 37.39 21.09 37.10 21.54 36.81 21.99 C 40.55 23.91 44.81 25.07 48.27 27.43 L 47.52 28.23 C 46.64 27.60 45.75 26.97 44.86 26.35 C 43.06 28.19 42.28 28.82 42.75 31.64 C 39.19 32.87 35.58 33.42 32.03 31.84 C 29.19 30.79 27.25 28.13 27.20 25.10 C 27.44 22.83 28.42 20.65 30.08 19.06 C 31.98 19.04 33.98 20.91 35.72 21.59 C 37.19 19.75 37.23 17.33 38.43 15.48 C 40.17 15.16 42.10 15.46 43.86 15.61 C 44.68 10.44 46.61 4.90 51.95 2.91 Z" fill="#ffffff" />
<path d="M 32.13 4.14 C 33.65 3.58 34.87 7.61 33.88 8.54 C 32.63 8.72 31.38 5.01 32.13 4.14 Z" fill="#7e6833" />
<path d="M 59.35 3.66 C 59.99 4.32 60.61 4.99 61.23 5.67 L 59.24 5.17 L 59.35 7.14 C 58.50 6.78 57.65 6.42 56.80 6.06 L 56.02 4.65 C 54.93 4.63 53.84 4.63 52.75 4.66 C 54.87 3.32 56.97 3.70 59.35 3.66 Z" fill="#fae97f" />
<path d="M 52.75 4.66 C 53.84 4.63 54.93 4.63 56.02 4.65 L 56.80 6.06 C 57.76 9.02 60.65 9.87 60.42 13.20 C 58.11 15.14 57.67 20.55 54.22 19.89 L 54.95 18.19 C 55.37 17.42 55.59 16.65 55.61 15.85 L 55.69 14.57 C 54.84 14.74 53.98 14.87 53.12 14.98 C 52.41 14.20 51.73 13.40 51.08 12.57 C 52.40 12.58 53.73 12.60 55.05 12.61 C 53.62 10.76 53.39 11.48 51.12 11.81 C 51.55 10.14 52.54 10.01 53.95 9.29 C 55.08 10.29 56.03 11.36 56.94 12.56 C 57.67 12.53 58.41 12.49 59.14 12.45 C 58.66 11.89 58.17 11.34 57.68 10.79 L 57.23 10.42 C 54.90 9.22 55.70 7.89 55.49 5.71 L 54.97 6.01 C 53.69 6.58 52.80 7.55 51.84 8.53 C 50.89 8.42 49.94 8.31 49.00 8.20 C 49.32 9.73 49.66 11.26 49.99 12.78 C 48.52 14.21 48.15 14.95 47.85 17.01 C 49.37 16.53 50.89 16.03 52.41 15.55 C 52.70 16.46 53.06 17.35 53.49 18.22 L 53.48 19.25 C 51.48 18.94 49.48 18.70 47.48 18.42 L 46.31 16.78 C 46.89 15.41 47.44 14.02 48.01 12.64 C 47.79 10.76 47.69 8.96 47.77 7.06 C 49.47 6.34 51.12 5.53 52.75 4.66 Z" fill="#7e6833" />
<path d="M 54.97 6.01 C 54.60 7.09 54.25 8.18 53.95 9.29 C 52.54 10.01 51.55 10.14 51.12 11.81 C 53.39 11.48 53.62 10.76 55.05 12.61 C 53.73 12.60 52.40 12.58 51.08 12.57 C 51.73 13.40 52.41 14.20 53.12 14.98 C 53.98 14.87 54.84 14.74 55.69 14.57 L 55.61 15.85 C 54.60 15.25 53.53 15.15 52.41 15.55 C 50.89 16.03 49.37 16.53 47.85 17.01 C 48.15 14.95 48.52 14.21 49.99 12.78 C 49.66 11.26 49.32 9.73 49.00 8.20 C 49.94 8.31 50.89 8.42 51.84 8.53 C 52.80 7.55 53.69 6.58 54.97 6.01 Z" fill="#ffffff" />
<path d="M 54.97 6.01 L 55.49 5.71 C 55.70 7.89 54.90 9.22 57.23 10.42 L 57.68 10.79 C 58.17 11.34 58.66 11.89 59.14 12.45 C 58.41 12.49 57.67 12.53 56.94 12.56 C 56.03 11.36 55.08 10.29 53.95 9.29 C 54.25 8.18 54.60 7.09 54.97 6.01 Z" fill="#fae97f" />
<path d="M 56.80 6.06 C 57.65 6.42 58.50 6.78 59.35 7.14 C 59.71 7.99 60.07 8.85 60.43 9.70 C 61.18 8.53 61.91 7.34 62.60 6.13 C 62.69 6.36 62.78 6.59 62.86 6.83 C 61.50 8.59 61.29 10.58 60.81 12.66 L 60.42 13.20 C 60.65 9.87 57.76 9.02 56.80 6.06 Z" fill="#ffffff" />
<path d="M 57.23 10.42 L 57.68 10.79 L 57.23 10.42 Z" fill="#ffffff" />
<path d="M 73.93 12.30 C 74.21 14.37 73.00 15.53 71.06 15.89 C 71.14 13.87 71.95 12.76 73.93 12.30 Z" fill="#928e7a" />
<path d="M 60.42 13.20 L 60.81 12.66 C 61.10 14.66 61.44 16.64 61.78 18.62 C 60.61 19.42 59.43 20.22 58.31 21.09 C 56.09 21.25 53.98 21.58 51.86 22.29 C 49.99 21.26 48.60 20.27 47.48 18.42 C 49.48 18.70 51.48 18.94 53.48 19.25 L 53.49 18.22 L 54.95 18.19 L 54.22 19.89 C 57.67 20.55 58.11 15.14 60.42 13.20 Z" fill="#fae97f" />
<path d="M 35.23 14.31 L 34.92 14.82 C 33.51 15.29 32.27 15.99 31.01 16.76 C 30.94 16.01 31.04 15.24 31.31 14.46 C 31.72 13.81 35.81 13.20 35.23 14.31 Z" fill="#dfdcc5" />
<path d="M 34.92 14.82 C 35.12 15.95 35.35 17.07 35.61 18.19 C 33.27 18.89 32.62 18.63 31.01 16.76 C 32.27 15.99 33.51 15.29 34.92 14.82 Z" fill="#407c8c" />
<path d="M 52.41 15.55 C 53.53 15.15 54.60 15.25 55.61 15.85 C 55.59 16.65 55.37 17.42 54.95 18.19 L 53.49 18.22 C 53.06 17.35 52.70 16.46 52.41 15.55 Z" fill="#e8ae1f" />
<path d="M 38.94 16.81 C 40.10 16.48 41.28 16.24 42.50 16.11 C 42.42 18.32 42.32 20.53 42.20 22.74 C 40.65 22.19 39.14 21.49 37.67 20.64 C 38.08 19.36 38.51 18.09 38.94 16.81 Z" fill="#e8ae1f" />
<path d="M 46.31 16.78 L 47.48 18.42 C 48.60 20.27 49.99 21.26 51.86 22.29 C 53.98 21.58 56.09 21.25 58.31 21.09 C 57.23 21.95 56.20 23.00 54.99 23.66 C 52.26 23.26 51.07 22.51 48.70 24.50 C 47.51 24.25 46.31 23.98 45.13 23.70 C 44.78 20.85 43.47 18.81 46.31 16.78 Z" fill="#e8ae1f" />
<path d="M 61.63 20.43 C 61.62 22.17 62.01 23.70 62.80 25.03 C 62.64 26.35 62.44 27.66 62.17 28.96 C 61.97 26.69 61.64 24.67 60.40 22.70 C 60.11 24.16 59.84 25.62 59.60 27.09 C 61.96 28.28 59.67 31.05 58.18 31.88 C 57.45 31.08 56.78 30.22 56.15 29.34 C 56.41 28.27 56.68 27.20 56.95 26.14 C 57.53 25.20 58.36 24.71 58.04 23.52 C 59.20 22.44 60.40 21.42 61.63 20.43 Z" fill="#e8ae1f" />
<path d="M 30.65 21.85 C 34.39 23.37 38.16 24.78 41.88 26.33 C 41.05 27.44 40.28 29.16 38.93 29.67 C 36.16 31.02 33.65 29.94 30.94 29.12 C 30.11 26.54 29.48 24.49 30.65 21.85 Z" fill="#7e6833" />
<path d="M 30.98 24.03 C 33.75 24.57 37.44 25.35 39.31 27.63 C 35.69 27.50 31.69 28.93 30.98 24.03 Z" fill="#ffffff" />
<path d="M 51.11 23.97 C 51.94 24.35 52.76 24.77 53.56 25.24 C 53.58 26.32 53.60 27.41 53.60 28.50 C 53.41 27.50 53.22 26.50 53.02 25.51 L 52.00 25.18 L 49.84 26.10 C 50.23 25.37 50.65 24.66 51.11 23.97 Z" fill="#ffffff" />
<path d="M 58.04 23.52 C 58.36 24.71 57.53 25.20 56.95 26.14 C 56.68 27.20 56.41 28.27 56.15 29.34 C 55.70 28.03 55.30 26.71 54.91 25.38 C 55.95 24.76 57.00 24.14 58.04 23.52 Z" fill="#ffffff" />
<path d="M 49.84 26.10 L 52.00 25.18 C 52.04 26.86 52.06 28.54 52.09 30.22 C 49.24 29.80 50.18 28.33 49.84 26.10 Z" fill="#407c8c" />
<path d="M 44.86 26.35 C 45.75 26.97 46.64 27.60 47.52 28.23 C 46.07 29.64 44.57 30.75 42.75 31.64 C 42.28 28.82 43.06 28.19 44.86 26.35 Z" fill="#fae97f" />
<path d="M 73.07 26.83 C 74.46 29.60 75.26 32.62 73.30 35.32 C 71.63 37.42 69.36 34.75 68.88 33.04 C 69.32 32.02 69.80 31.02 70.32 30.05 C 71.30 30.97 71.92 31.81 72.37 33.11 C 71.49 32.82 70.60 32.52 69.72 32.22 C 70.39 33.16 71.05 34.10 71.73 35.02 C 73.41 33.09 73.12 31.62 73.01 29.23 C 72.32 28.77 71.63 28.31 70.93 27.84 C 68.04 29.12 66.24 31.46 63.81 33.34 C 65.18 28.61 68.10 26.51 73.07 26.83 Z" fill="#7e6833" />
<path d="M 18.27 29.54 C 20.41 30.36 23.13 31.26 23.21 33.97 C 20.41 32.09 18.61 30.66 15.01 30.97 C 15.01 33.35 13.79 34.93 17.00 35.34 C 16.62 34.09 16.25 32.82 15.89 31.56 C 18.09 32.85 18.02 33.32 18.18 35.80 C 17.37 36.34 16.57 36.88 15.77 37.42 C 14.84 36.37 13.53 35.45 13.40 33.95 C 12.75 31.32 15.67 28.41 18.27 29.54 Z" fill="#7e6833" />
<path d="M 49.24 28.70 C 49.00 30.56 48.32 32.14 47.52 33.79 C 43.56 34.77 40.17 36.25 35.99 36.18 C 33.56 35.84 31.35 34.63 28.90 34.30 L 27.92 36.02 L 27.00 35.95 C 27.00 33.87 27.00 31.79 26.98 29.71 C 28.84 31.41 30.51 33.21 33.04 33.87 C 35.65 34.34 38.37 34.28 40.98 33.86 C 44.33 33.15 46.61 30.71 49.24 28.70 Z" fill="#dfdcc5" />
<path d="M 54.99 30.15 L 55.07 30.24 L 54.70 31.13 C 54.21 32.27 53.80 33.44 53.46 34.64 C 52.59 35.13 51.71 35.61 50.83 36.09 C 50.61 34.72 50.60 33.39 50.79 32.11 C 52.19 31.45 53.62 30.86 54.99 30.15 Z" fill="#fae97f" />
<path d="M 55.07 30.24 C 57.08 32.88 58.79 35.76 60.67 38.49 C 60.07 40.47 60.30 42.42 60.53 44.43 C 58.55 40.03 56.37 35.66 54.70 31.13 L 55.07 30.24 Z" fill="#ffffff" />
<path d="M 28.90 34.30 C 31.35 34.63 33.56 35.84 35.99 36.18 C 40.17 36.25 43.56 34.77 47.52 33.79 C 48.09 35.14 48.45 35.55 49.76 36.21 C 49.82 37.23 49.87 38.25 49.91 39.27 C 42.45 38.85 35.27 37.15 27.92 36.02 L 28.90 34.30 Z" fill="#e8ae1f" />
<path d="M 55.07 35.88 C 57.63 40.84 59.78 46.02 62.11 51.10 C 56.46 49.61 50.88 48.10 45.08 47.30 C 45.00 45.04 44.89 42.79 44.75 40.54 C 46.65 40.64 48.68 40.81 50.57 40.60 C 50.86 39.52 51.12 38.44 51.36 37.34 C 52.58 36.81 53.81 36.32 55.07 35.88 Z" fill="#ffffff" />
<path d="M 27.16 37.71 L 28.23 37.89 C 26.93 42.71 24.61 47.34 23.85 52.27 C 22.12 52.87 22.30 56.55 24.37 56.03 C 24.76 54.92 24.04 53.41 23.85 52.27 L 25.36 50.36 C 25.73 50.72 26.10 51.08 26.49 51.41 C 27.43 48.45 26.23 46.06 27.12 43.09 C 27.58 43.82 28.03 44.55 28.49 45.27 C 28.51 42.28 29.42 40.71 31.31 38.50 L 32.14 38.54 C 31.43 41.40 30.72 44.25 29.99 47.11 C 30.60 47.43 31.20 47.75 31.80 48.07 L 32.10 48.51 C 31.03 48.94 30.01 49.43 29.01 49.98 C 27.97 52.39 27.22 54.93 26.29 57.38 C 23.98 57.64 22.85 57.31 20.80 56.24 L 20.19 55.90 C 23.45 50.33 24.70 43.68 27.16 37.71 Z" fill="#34464a" />
<path d="M 28.23 37.89 C 29.26 38.04 30.29 38.25 31.31 38.50 C 29.42 40.71 28.51 42.28 28.49 45.27 C 28.03 44.55 27.58 43.82 27.12 43.09 C 26.23 46.06 27.43 48.45 26.49 51.41 C 26.10 51.08 25.73 50.72 25.36 50.36 L 23.85 52.27 C 24.61 47.34 26.93 42.71 28.23 37.89 Z" fill="#ffffff" />
<path d="M 32.14 38.54 C 34.39 38.69 36.64 39.00 38.88 39.28 C 38.95 41.83 38.97 44.38 38.96 46.93 C 36.73 46.96 34.50 46.98 32.28 47.03 L 32.42 47.67 L 31.80 48.07 C 31.20 47.75 30.60 47.43 29.99 47.11 C 30.72 44.25 31.43 41.40 32.14 38.54 Z" fill="#ffffff" />
<path d="M 60.67 38.49 C 63.23 42.30 65.91 46.20 67.80 50.39 L 66.08 51.58 C 66.78 52.19 67.48 54.07 68.56 53.61 C 70.45 52.74 71.06 55.95 72.16 57.00 L 73.48 57.35 L 73.74 57.94 L 73.62 58.40 L 73.96 58.40 L 74.76 60.07 L 74.46 60.48 L 74.96 60.50 L 76.05 61.24 C 74.74 62.81 74.14 64.76 71.97 65.20 C 69.90 61.84 68.07 58.32 66.24 54.83 C 64.75 52.03 64.03 49.26 61.88 46.88 L 61.22 45.80 L 61.43 45.53 L 61.05 45.46 L 60.53 44.43 C 60.30 42.42 60.07 40.47 60.67 38.49 Z" fill="#88afbc" />
<path d="M 40.18 40.05 C 41.36 40.07 42.54 40.08 43.72 40.10 C 43.56 42.40 43.43 44.69 43.60 47.00 L 42.52 46.62 C 43.26 45.17 43.66 43.21 42.30 41.99 C 41.67 43.50 41.71 45.00 41.79 46.60 C 41.55 48.16 41.51 49.69 41.67 51.19 C 41.61 52.74 41.61 54.28 41.67 55.82 C 41.59 57.26 41.61 58.68 41.72 60.10 C 41.64 61.78 41.70 63.36 42.05 65.01 L 41.83 66.94 L 40.00 66.88 C 39.97 57.94 40.09 48.99 40.18 40.05 Z" fill="#ffffff" />
<path d="M 42.30 41.99 C 43.66 43.21 43.26 45.17 42.52 46.62 L 41.79 46.60 C 41.71 45.00 41.67 43.50 42.30 41.99 Z" fill="#131411" />
<path d="M 61.05 45.46 L 61.43 45.53 L 61.22 45.80 L 61.05 45.46 Z" fill="#ffffff" />
<path d="M 32.42 47.67 C 34.55 48.75 36.62 48.33 38.91 48.32 C 38.86 49.02 38.81 49.72 38.76 50.42 C 36.75 50.77 34.76 51.17 32.79 51.66 L 30.75 52.17 C 31.41 51.17 32.07 50.17 32.72 49.17 L 32.10 48.51 L 31.80 48.07 L 32.42 47.67 Z" fill="#ffffff" />
<path d="M 41.79 46.60 L 42.52 46.62 L 43.60 47.00 C 44.43 53.65 43.22 60.25 43.99 66.92 L 41.83 66.94 L 42.05 65.01 C 43.60 63.20 43.80 61.58 41.72 60.10 C 41.61 58.68 41.59 57.26 41.67 55.82 C 43.82 54.31 43.71 52.74 41.67 51.19 C 41.51 49.69 41.55 48.16 41.79 46.60 Z" fill="#88afbc" />
<path d="M 61.88 46.88 C 64.03 49.26 64.75 52.03 66.24 54.83 C 68.07 58.32 69.90 61.84 71.97 65.20 L 70.88 65.49 C 68.56 62.41 67.10 58.50 65.35 55.03 C 64.91 55.34 64.47 55.65 64.03 55.95 C 65.08 57.77 66.08 59.61 67.08 61.46 C 60.38 64.37 52.99 65.24 45.76 64.31 C 45.45 60.20 45.28 56.10 45.06 51.99 C 48.37 52.40 51.66 52.91 54.95 53.44 C 54.93 54.67 54.94 55.90 54.96 57.13 C 55.30 57.96 55.67 58.78 56.06 59.59 C 56.36 60.19 56.66 60.79 56.96 61.39 C 58.33 60.87 59.88 61.13 60.45 59.55 C 60.54 58.70 60.54 57.85 60.47 56.98 L 60.00 55.29 C 61.52 55.23 62.44 55.05 63.76 54.38 C 57.75 52.39 51.76 51.18 45.46 50.55 L 44.67 48.96 C 51.65 49.66 58.25 51.30 64.75 53.94 C 63.73 51.60 62.65 49.32 61.88 46.88 Z" fill="#ffffff" />
<path d="M 32.10 48.51 L 32.72 49.17 C 32.07 50.17 31.41 51.17 30.75 52.17 C 30.19 52.68 29.62 53.19 29.06 53.69 C 29.21 54.18 29.36 54.68 29.52 55.17 C 30.18 54.76 30.85 54.35 31.52 53.94 C 32.29 55.37 33.11 56.75 34.03 58.10 C 35.68 60.56 38.60 59.39 38.45 56.55 L 38.21 54.44 C 36.40 52.61 34.98 54.37 33.03 54.93 C 33.01 53.00 33.79 53.26 35.26 52.60 C 36.51 52.53 37.75 52.44 39.00 52.33 C 38.73 55.83 38.58 59.31 38.53 62.81 C 35.68 61.87 32.37 60.87 29.99 59.00 C 28.92 57.62 29.05 55.60 27.78 54.21 C 27.31 56.03 27.39 57.63 28.01 59.00 C 30.27 62.34 34.45 63.19 38.04 64.34 L 38.48 66.04 C 34.37 64.94 30.79 62.91 26.99 61.10 C 26.30 61.63 25.75 62.42 25.34 63.48 C 22.74 61.30 20.88 59.93 20.80 56.24 C 22.85 57.31 23.98 57.64 26.29 57.38 C 27.22 54.93 27.97 52.39 29.01 49.98 C 30.01 49.43 31.03 48.94 32.10 48.51 Z" fill="#ffffff" />
<path d="M 41.67 51.19 C 43.71 52.74 43.82 54.31 41.67 55.82 C 41.61 54.28 41.61 52.74 41.67 51.19 Z" fill="#34464a" />
<path d="M 23.85 52.27 C 24.04 53.41 24.76 54.92 24.37 56.03 C 22.30 56.55 22.12 52.87 23.85 52.27 Z" fill="#ffffff" />
<path d="M 30.75 52.17 L 32.79 51.66 L 35.26 52.60 C 33.79 53.26 33.01 53.00 33.03 54.93 C 34.98 54.37 36.40 52.61 38.21 54.44 L 38.45 56.55 C 37.01 57.17 35.53 57.64 34.03 58.10 C 33.11 56.75 32.29 55.37 31.52 53.94 C 30.85 54.35 30.18 54.76 29.52 55.17 C 29.36 54.68 29.21 54.18 29.06 53.69 C 29.62 53.19 30.19 52.68 30.75 52.17 Z" fill="#34464a" />
<path d="M 56.00 53.93 C 56.97 53.99 57.94 54.06 58.91 54.14 C 58.89 55.14 58.85 56.15 58.81 57.15 L 57.67 57.25 C 57.11 57.23 56.56 57.21 56.00 57.18 C 56.00 56.10 56.00 55.01 56.00 53.93 Z" fill="#88afbc" />
<path d="M 38.45 56.55 C 38.60 59.39 35.68 60.56 34.03 58.10 C 35.53 57.64 37.01 57.17 38.45 56.55 Z" fill="#ffffff" />
<path d="M 54.96 57.13 L 56.00 57.18 C 56.56 57.21 57.11 57.23 57.67 57.25 L 58.81 57.15 L 60.47 56.98 C 59.15 59.35 58.72 59.35 56.06 59.59 C 55.67 58.78 55.30 57.96 54.96 57.13 Z" fill="#34464a" />
<path d="M 60.47 56.98 C 60.54 57.85 60.54 58.70 60.45 59.55 C 59.88 61.13 58.33 60.87 56.96 61.39 C 56.66 60.79 56.36 60.19 56.06 59.59 C 58.72 59.35 59.15 59.35 60.47 56.98 Z" fill="#88afbc" />
<path d="M 70.19 57.29 C 71.91 57.01 73.18 60.46 72.97 61.87 C 71.39 61.31 69.73 58.95 70.19 57.29 Z" fill="#34464a" />
<path d="M 73.74 57.94 L 73.96 58.40 L 73.62 58.40 L 73.74 57.94 Z" fill="#131411" />
<path d="M 41.72 60.10 C 43.80 61.58 43.60 63.20 42.05 65.01 C 41.70 63.36 41.64 61.78 41.72 60.10 Z" fill="#34464a" />
<path d="M 74.76 60.07 L 74.96 60.50 L 74.46 60.48 L 74.76 60.07 Z" fill="#131411" />
<path d="M 26.99 61.10 C 30.79 62.91 34.37 64.94 38.48 66.04 C 38.64 66.72 38.79 67.41 38.94 68.09 C 41.21 68.20 43.48 68.20 45.74 68.20 L 46.23 68.47 C 49.51 65.65 53.02 67.00 57.00 66.67 C 60.39 66.81 63.50 65.25 66.81 65.25 C 67.50 65.87 68.16 66.51 68.80 67.18 C 69.78 67.81 70.75 68.44 71.73 69.07 C 67.69 71.32 62.56 71.71 58.01 71.85 C 46.45 71.40 34.99 70.58 25.34 63.48 C 25.75 62.42 26.30 61.63 26.99 61.10 Z" fill="#fae97f" />
<path d="M 20.46 61.42 C 28.84 69.63 39.65 72.21 51.00 73.11 C 59.16 73.47 66.80 73.98 74.01 69.49 L 74.00 72.63 L 71.90 71.99 L 71.79 73.37 C 67.76 73.82 64.02 75.34 60.00 75.29 C 55.77 75.23 51.22 75.51 47.09 74.51 C 40.83 73.09 34.85 71.63 29.07 68.75 C 26.86 67.80 24.88 66.41 22.38 66.94 C 20.54 64.92 19.84 64.38 20.46 61.42 Z" fill="#ffffff" />
<path d="M 67.52 63.04 C 68.21 64.16 68.84 65.36 69.65 66.40 C 70.90 67.51 73.17 66.64 74.71 66.50 C 73.72 67.37 72.75 68.25 71.73 69.07 C 70.75 68.44 69.78 67.81 68.80 67.18 C 68.16 66.51 67.50 65.87 66.81 65.25 C 63.50 65.25 60.39 66.81 57.00 66.67 C 53.02 67.00 49.51 65.65 46.23 68.47 L 45.74 68.20 L 45.95 66.06 C 49.63 66.02 53.33 66.14 57.00 65.95 C 60.77 65.69 64.04 64.36 67.52 63.04 Z" fill="#ffffff" />
<path d="M 22.38 66.94 C 24.88 66.41 26.86 67.80 29.07 68.75 C 34.85 71.63 40.83 73.09 47.09 74.51 C 51.22 75.51 55.77 75.23 60.00 75.29 C 64.02 75.34 67.76 73.82 71.79 73.37 C 71.67 75.59 71.30 75.99 73.15 77.44 C 69.20 79.24 65.24 79.09 61.00 79.13 C 51.13 78.96 41.33 77.53 32.18 73.69 C 28.47 72.14 25.13 69.89 22.38 66.94 Z" fill="#e8ae1f" />
<path d="M 20.37 67.65 L 20.14 69.02 C 19.01 70.78 18.90 71.81 19.17 73.89 C 19.67 73.12 20.16 72.35 20.64 71.57 C 21.42 71.27 22.19 70.96 22.95 70.65 C 23.45 71.92 23.97 73.17 24.51 74.42 C 23.02 75.62 22.06 76.41 20.01 75.98 C 17.09 74.18 16.98 69.09 20.37 67.65 Z" fill="#34464a" />
<path d="M 20.14 69.02 C 21.01 69.00 21.89 69.00 22.76 69.00 L 22.95 70.65 C 22.19 70.96 21.42 71.27 20.64 71.57 C 20.16 72.35 19.67 73.12 19.17 73.89 C 18.90 71.81 19.01 70.78 20.14 69.02 Z" fill="#dfdcc5" />
<path d="M 14.64 70.61 C 14.89 74.67 15.76 76.81 17.91 80.16 C 17.04 79.91 16.17 79.66 15.30 79.41 L 14.40 80.94 C 13.13 79.96 12.45 78.62 11.64 77.28 L 13.87 76.68 C 14.09 74.70 12.73 71.90 14.64 70.61 Z" fill="#928e7a" />
<path d="M 22.28 73.26 C 22.87 73.65 22.87 73.65 22.28 73.26 Z" fill="#407c8c" />
<path d="M 39.14 79.09 C 40.60 78.90 42.08 78.85 43.58 78.92 C 42.40 79.93 41.58 80.19 40.03 80.49 C 39.62 81.67 39.24 82.86 38.87 84.06 C 40.55 82.36 41.99 80.74 44.43 80.19 C 44.67 81.80 44.89 83.41 45.09 85.02 C 43.40 86.51 42.27 87.61 39.85 87.70 C 38.44 84.65 36.73 82.25 39.14 79.09 Z" fill="#34464a" />
<path d="M 70.96 79.78 C 71.55 80.46 72.13 81.14 72.70 81.84 C 72.64 82.33 72.57 82.83 72.49 83.32 C 72.06 82.74 71.63 82.17 71.20 81.61 C 70.18 82.93 69.22 84.19 67.82 85.13 C 68.22 81.94 68.26 81.48 70.96 79.78 Z" fill="#ffffff" />
<path d="M 72.85 81.46 L 73.57 79.80 C 73.99 81.84 74.36 83.89 74.76 85.94 C 75.79 84.35 76.78 82.78 78.19 81.48 C 77.88 84.25 76.64 86.63 75.91 89.29 C 74.26 89.79 72.73 92.30 72.02 89.40 C 69.84 88.65 68.52 87.45 67.04 85.74 L 67.82 85.13 C 69.22 84.19 70.18 82.93 71.20 81.61 C 71.63 82.17 72.06 82.74 72.49 83.32 C 72.57 82.83 72.64 82.33 72.70 81.84 L 72.85 81.46 Z" fill="#407c8c" />
<path d="M 80.00 83.63 C 80.08 87.27 78.75 89.68 75.61 91.49 L 75.91 89.29 C 77.81 87.72 78.61 85.58 80.00 83.63 Z" fill="#34464a" />
<path d="M 45.09 85.02 C 45.10 87.92 42.15 91.04 39.85 87.70 C 42.27 87.61 43.40 86.51 45.09 85.02 Z" fill="#88afbc" />
</svg>