<?xml version="1.0" encoding="UTF-8" standalone="no"?>
<!DOCTYPE svg PUBLIC "-//W3C//DTD SVG 1.1//EN" "http://www.w3.org/Graphics/SVG/1.1/DTD/svg11.dtd">
<svg xmlns="http://www.w3.org/2000/svg" version="1.1" viewBox="0 0 92 92" width="92.0pt" height="92.0pt">
<path d="M 0.00 0.00 L 92.00 0.00 L 92.00 92.00 L 0.00 92.00 L 0.00 0.00 Z" fill="#ffffff" />
<path d="M 36.83 8.56 C 39.45 8.56 42.09 7.90 44.73 8.05 C 46.67 9.17 47.06 11.26 47.49 13.27 C 48.24 17.64 48.75 22.06 49.05 26.48 C 47.04 27.35 45.02 28.20 43.01 29.08 C 43.03 31.25 43.04 33.42 43.05 35.60 C 47.44 36.36 51.63 37.68 55.79 39.22 C 62.35 41.63 68.63 43.26 74.86 46.25 L 74.73 47.76 C 67.50 49.75 62.23 54.42 55.54 57.50 C 55.32 58.16 55.09 58.82 54.87 59.48 C 55.85 59.41 56.84 59.34 57.83 59.27 C 56.72 60.74 55.61 62.21 54.52 63.69 C 55.97 63.18 57.42 62.68 58.85 62.13 C 57.31 66.69 57.22 71.32 56.89 76.06 C 56.59 78.01 56.85 79.90 54.86 80.98 C 53.01 82.32 50.02 80.68 48.07 80.20 C 48.18 77.46 48.29 74.72 48.39 71.98 C 46.63 71.59 44.89 71.15 43.13 70.76 C 43.01 68.62 42.89 66.48 42.76 64.34 C 38.27 62.20 33.84 60.00 29.07 58.51 C 28.51 63.98 28.25 69.47 27.70 74.94 C 25.82 74.64 23.93 74.40 22.03 74.20 C 21.65 66.86 22.52 59.10 21.09 51.92 C 21.63 52.64 22.18 53.34 22.76 54.01 C 27.98 57.34 33.45 58.35 39.07 60.90 C 43.34 62.80 47.63 64.38 52.11 65.73 C 52.23 64.52 52.33 63.31 52.43 62.10 C 52.56 60.60 52.69 59.10 52.83 57.61 C 45.19 55.75 37.89 52.96 30.48 50.35 C 26.98 49.13 23.88 47.23 20.75 45.29 C 21.80 41.63 21.60 38.26 20.86 34.58 C 18.83 34.21 16.70 33.91 14.75 33.22 C 13.53 29.35 13.34 24.99 13.52 20.96 C 13.55 18.77 15.34 18.03 16.76 16.69 C 20.92 13.60 22.95 9.66 27.99 7.91 C 31.26 6.54 33.64 8.25 36.83 8.56 Z" fill="#240f02" />
<path d="M 31.74 7.97 C 33.68 10.11 35.38 12.41 37.10 14.73 C 38.91 12.89 40.76 11.08 42.66 9.33 C 43.82 11.79 45.12 14.19 46.18 16.69 C 47.33 19.51 47.25 22.98 47.37 25.99 C 43.45 27.22 39.51 28.01 35.46 28.64 C 31.87 29.21 28.50 31.31 24.92 31.57 C 18.39 30.46 15.36 22.70 18.17 17.01 C 20.33 17.00 22.51 17.30 24.64 17.56 C 25.16 15.27 25.48 12.64 26.63 10.56 C 27.90 9.22 30.04 8.60 31.74 7.97 Z" fill="#febd03" />
<path d="M 42.36 19.69 C 42.01 21.16 41.70 22.72 41.13 24.13 C 39.65 24.66 38.06 25.00 36.53 25.34 C 36.90 23.89 37.14 22.26 37.86 20.93 C 39.31 20.39 40.86 20.06 42.36 19.69 Z" fill="#240f02" />
<path d="M 26.74 23.92 C 27.68 25.45 29.06 25.72 27.24 27.28 C 25.66 29.34 23.44 28.22 21.22 28.19 C 22.85 25.92 23.55 23.88 26.74 23.92 Z" fill="#240f02" />
<path d="M 40.84 28.38 C 41.93 31.86 41.86 34.25 40.98 37.76 C 40.36 35.96 39.40 34.01 39.33 32.08 C 39.63 30.80 40.28 29.57 40.84 28.38 Z" fill="#dc631a" />
<path d="M 35.87 31.70 C 33.44 32.62 31.08 33.23 28.52 33.61 C 31.30 31.44 32.25 30.86 35.87 31.70 Z" fill="#ffffff" />
<path d="M 27.66 32.21 C 27.97 35.41 27.99 38.51 27.76 41.71 C 26.45 40.18 25.07 39.11 25.13 36.91 C 24.84 34.58 26.26 33.75 27.66 32.21 Z" fill="#dc631a" />
<path d="M 36.29 36.96 C 34.07 39.03 32.58 39.64 29.56 40.04 C 31.73 38.36 33.61 37.54 36.29 36.96 Z" fill="#ffffff" />
<path d="M 52.74 39.12 C 59.27 41.56 65.87 43.71 72.22 46.63 C 68.00 48.93 63.84 51.35 59.62 53.65 C 57.03 54.98 54.67 56.18 51.69 55.25 C 45.18 53.25 38.75 51.00 32.24 48.99 C 32.43 46.29 32.61 43.58 32.79 40.88 C 36.33 39.67 39.93 38.27 43.61 37.57 C 46.74 36.95 49.81 38.14 52.74 39.12 Z" fill="#febd03" />
<path d="M 32.79 40.88 C 32.61 43.58 32.43 46.29 32.24 48.99 C 28.94 47.82 25.75 46.37 22.61 44.85 C 25.96 43.40 29.35 42.09 32.79 40.88 Z" fill="#b5841d" />
<path d="M 20.75 45.29 C 23.88 47.23 26.98 49.13 30.48 50.35 C 37.89 52.96 45.19 55.75 52.83 57.61 C 52.69 59.10 52.56 60.60 52.43 62.10 C 42.52 58.54 32.53 54.98 23.04 50.39 C 22.94 51.59 22.84 52.80 22.76 54.01 C 22.18 53.34 21.63 52.64 21.09 51.92 C 20.63 49.69 20.20 47.56 20.75 45.29 Z" fill="#873a09" />
<path d="M 74.73 47.76 C 74.56 49.20 74.33 50.63 74.11 52.06 C 74.20 51.12 74.29 50.17 74.36 49.23 C 72.90 49.91 71.45 50.59 70.00 51.28 C 71.10 51.48 72.21 51.68 73.32 51.88 C 71.12 53.91 68.94 55.99 66.61 57.87 C 64.19 59.61 61.63 61.05 58.85 62.13 C 57.42 62.68 55.97 63.18 54.52 63.69 C 55.61 62.21 56.72 60.74 57.83 59.27 C 56.84 59.34 55.85 59.41 54.87 59.48 C 55.09 58.82 55.32 58.16 55.54 57.50 C 62.23 54.42 67.50 49.75 74.73 47.76 Z" fill="#873a09" />
<path d="M 74.36 49.23 C 74.29 50.17 74.20 51.12 74.11 52.06 C 72.99 58.13 72.84 64.47 71.30 70.43 C 70.19 71.85 67.56 71.24 65.96 71.37 C 66.21 66.85 66.70 62.41 66.61 57.87 C 68.94 55.99 71.12 53.91 73.32 51.88 C 72.21 51.68 71.10 51.48 70.00 51.28 C 71.45 50.59 72.90 49.91 74.36 49.23 Z" fill="#240f02" />
<path d="M 23.04 50.39 C 32.53 54.98 42.52 58.54 52.43 62.10 C 52.33 63.31 52.23 64.52 52.11 65.73 C 47.63 64.38 43.34 62.80 39.07 60.90 C 33.45 58.35 27.98 57.34 22.76 54.01 C 22.84 52.80 22.94 51.59 23.04 50.39 Z" fill="#dc631a" />
<path d="M 23.28 55.33 C 26.48 60.65 25.38 68.27 23.96 74.01 C 22.05 67.87 22.24 61.60 23.28 55.33 Z" fill="#674c1e" />
<path d="M 26.62 57.60 C 27.28 62.70 27.29 67.39 26.58 72.48 C 25.44 67.33 25.53 62.75 26.62 57.60 Z" fill="#674c1e" />
<path d="M 55.48 64.56 C 55.82 70.00 55.42 75.29 53.83 80.53 C 53.27 75.07 53.43 69.73 55.48 64.56 Z" fill="#674c1e" />
<path d="M 51.09 67.16 C 51.75 69.33 52.66 71.71 52.68 74.00 C 52.64 76.24 51.70 78.56 51.02 80.67 C 49.62 75.61 49.68 72.18 51.09 67.16 Z" fill="#674c1e" />
</svg>