<svg width="218" height="167" xmlns="http://www.w3.org/2000/svg" xmlns:xlink="http://www.w3.org/1999/xlink" overflow="hidden"><defs><clipPath id="clip0"><rect x="77" y="30" width="218" height="167"/></clipPath><radialGradient cx="0" cy="0" r="1" gradientUnits="userSpaceOnUse" spreadMethod="pad" id="fill1" gradientTransform="matrix(15.1325 0 0 -15.1325 286.229 946.032)"><stop offset="0" stop-color="#A5D5B5"/><stop offset="0.106735" stop-color="#A5D5B5"/><stop offset="0.460678" stop-color="#00AA6E"/><stop offset="0.994385" stop-color="#00713B"/><stop offset="1" stop-color="#00713B"/></radialGradient></defs><g clip-path="url(#clip0)" transform="translate(-77 -30)"><path d="M0 0C-1.41895-1.26858-3.05576-2.21325-4.73498-3.05576L-4.73498-3.44713 3.02298-3.44713 3.02298-4.87957-4.73498-4.87957-4.73498-8.5542C-4.73498-9.64153-5.51772-9.98278-6.25417-9.98278L-9.68009-9.98278-9.96927-8.37488-6.92511-8.40961C-6.366-8.40961-6.31009-8.22643-6.31009-7.8158L-6.31009-4.87957-14.2628-4.87957-14.2628-3.44713-6.31009-3.44713-6.31009-1.91057-5.50421-1.91057C-4.85065-1.64452-3.48954-1.01023-2.50051-0.121459L-11.2514-0.121459-11.2514 1.2493 0 1.2493ZM-5.88981 4.30313C-6.22526 5.10899-6.70918 6.07102-7.32031 6.97138L-5.87437 7.54204C-5.40011 6.86148-4.8256 5.75293-4.45929 4.82945L-5.88981 4.30313M-1.80068 4.29156C-1.20881 5.34034-0.584161 6.92511-0.406792 7.37237L1.22423 6.85183C0.832861 5.97269 0.385584 5.10899-0.109892 4.29156L2.58342 4.29156 2.58342 0.19472 1.06422 0.19472 1.06422 2.91694-12.2982 2.91694-12.2982 0.19472-13.8136 0.19472-13.8136 4.29156-11.1049 4.29156C-11.448 5.35191-12.1575 6.41033-12.4004 6.73808L-11.0162 7.3126C-10.2874 6.34864-9.86517 5.41554-9.58178 4.67135L-10.5207 4.29156-1.80068 4.29156" fill="#231916" transform="matrix(1 0 0 -1.00453 331.317 71.121)"/><path d="M0 0C-1.16447 0.742249-2.12264 1.54812-3.39701 3.03263L-4.63858 2.33664C-4.03128 1.49607-2.79936 0-0.981311-1.24351ZM-11.2495-10.3453C-9.46032-9.67431-7.62107-8.82217-5.95342-7.33573-4.80632-8.44623-3.33338-9.44296-0.659348-10.3453L0.0983239-8.82217C-1.75248-8.27463-3.40858-7.54204-4.88728-6.2426-4.07369-5.33071-3.15215-4.03899-2.1959-1.39003L-3.63028-0.911907C-4.07369-2.17855-4.70028-3.71125-5.93222-5.19383-6.63013-4.38795-7.45719-3.21192-8.1821-0.923474L-9.55285-1.39003C-9.24245-2.38099-8.60239-4.29733-6.97329-6.26574-8.19367-7.27405-9.65118-8.16088-12.0476-8.89351L-11.2495-10.3453M-6.63013 7.03113-6.63013 4.97596-11.2225 4.97596-11.2225 3.5628-0.306539 3.5628-0.306539 4.97596-5.09742 4.97596-5.09742 7.03113-6.63013 7.03113M-10.8446-2.73958C-11.5926-1.94913-12.5161-0.900341-13.4434 1.0835L-13.4434 1.97034-11.2996 1.97034-11.2996 3.39893-13.4434 3.39893-13.4434 7.03113-14.9009 7.03113-14.9009 3.39893-17.519 3.39893-17.519 1.97034-15.034 1.97034C-15.9035-1.5462-17.2221-3.38351-17.7253-4.11225L-17.0679-6.01125C-16.6091-5.34228-15.7454-4.10262-14.9009-1.39003L-14.9009-10.2971-13.4434-10.2971-13.4434-1.29171C-12.9672-2.27495-12.6607-2.78777-11.7141-4.15082L-10.8446-2.73958M-10.4841-1.24351C-9.62996-0.674773-8.01244 0.547531-7.06776 2.27687L-8.33055 2.96709C-9.25595 1.55584-10.3414 0.595727-11.5348-0.134955L-10.4841-1.24351" fill="#231916" transform="matrix(1 0 0 -1.00453 353.138 70.804)"/><path d="M0 0C1.47872 1.80453 3.03263 4.8198 3.78065 6.61856L2.54678 7.55167C1.6021 5.3789 0.505115 3.25819-1.01023 1.44787ZM3.03263 10.2431C2.11878 10.9873 0.965889 11.7391-0.215927 12.1556L-0.979383 10.8658C0.370162 10.2431 1.18182 9.71866 2.08794 8.89157L3.03263 10.2431M11.3728 5.63532C12.4313 4.4612 13.5013 2.6509 13.5475 2.57762 11.0779 2.28652 9.69551 2.22675 6.80942 2.13035 7.49383 3.28132 8.86459 6.25225 9.53164 8.05679L16.4143 8.05679 16.4143 9.49116 10.9063 9.49116 10.9063 12.9807 15.7531 12.9807 15.7531 14.4074 10.9063 14.4074 10.9063 17.2298 9.37356 17.2298 9.37356 14.4074 4.70799 14.4074 4.70799 12.9807 9.37356 12.9807 9.37356 9.49116 3.9426 9.49116 3.9426 8.05679 7.78494 8.05679C7.30489 6.20405 5.70858 3.06539 5.1302 2.05324 4.71956 2.04167 4.03128 2.02239 3.71704 2.02239L3.96765 0.534034C6.61471 0.570664 12.0341 1.03144 14.2165 1.38811 14.6561 0.593799 14.8219 0.242917 14.9896-0.171585L16.4143 0.570664C15.2132 2.99214 14.2165 4.53831 12.6491 6.4219L11.3728 5.63532M3.90405 15.1593C2.7955 16.0692 1.6021 16.6939 0.634287 17.1084L-0.20436 15.8417C0.599583 15.5101 2.02817 14.6715 2.94781 13.7943L3.90405 15.1593" fill="#231916" transform="matrix(1 0 0 -1.00453 355.007 81.033)"/><path d="M0 0 0-2.25181C0-2.88418 0.0829006-4.70993 0.645853-6.86148 1.86816-11.6003 4.93163-14.1124 8.024-15.6971L6.94439-17.1836C6.08259-16.7054 3.8385-15.487 1.96455-13.0328 0-10.4648-0.593799-7.80038-0.844431-6.78243-1.26858-8.90894-2.08216-10.941-3.37771-12.7147-4.76776-14.579-6.61662-16.0615-8.71036-17.0968L-9.78612-15.6856C-6.58001-14.0893-4.31084-11.9744-3.15795-9.27523-1.88165-6.21947-1.67922-2.89381-1.67922-2.23832L-1.67922-1.71234e-15Z" fill="#231916" transform="matrix(1 0 0 -1.00453 382.267 63.813)"/><path d="M415.299 923.753 419.319 923.753 419.319 924.639 415.299 924.639ZM415.299 925.469 419.319 925.469 419.319 926.337 415.299 926.337ZM407.842 923.753 411.795 923.753 411.795 924.639 407.842 924.639ZM407.842 925.469 411.795 925.469 411.795 926.337 407.842 926.337ZM406.145 930.38 406.145 929.174 412.821 929.174 412.821 928.263 405.365 928.263 405.365 924.403 406.875 924.403 406.875 927.142 412.821 927.142 412.821 923.361 414.232 923.361 414.232 927.142 420.25 927.142 420.25 924.403 421.761 924.403 421.761 928.263 414.232 928.263 414.232 929.174 420.99 929.174 420.99 930.38 406.145 930.38M419.287 918.033 414.268 918.033 414.268 919.451 419.287 919.451ZM419.287 920.475 414.268 920.475 414.268 921.794 419.287 921.794ZM412.787 918.033 407.743 918.033 407.743 919.451 412.787 919.451ZM420.773 922.908 406.275 922.908 406.275 915.754 407.743 915.754 407.743 916.861 412.787 916.861 412.787 915.307C412.787 914.038 413.714 913.975 414.453 913.975L420.403 913.975C420.665 913.975 421.621 914.074 421.919 914.681 422.124 915.098 422.304 916.024 422.358 916.786L420.942 917.273C420.843 915.476 420.696 915.316 419.907 915.316L414.843 915.316C414.268 915.316 414.268 915.476 414.268 915.903L414.268 916.861 420.773 916.861 420.773 922.908M412.787 920.475 407.8 920.475 407.8 921.794 412.787 921.794Z" fill="#231916" transform="matrix(1 0 0 -1.00453 -7.42085 998.97)"/><path d="M0 0 0-1.41124C-1.92021-3.06925-4.16239-4.28771-6.47781-5.28443L-6.47781-6.97523 1.32256-6.97523 1.32256-8.4713-6.47781-8.4713-6.47781-14.6522C-6.47781-16.0538-6.87111-16.5994-8.33055-16.5994L-11.8047-16.5994-12.0534-15.0147-8.76626-15.0667C-8.30163-15.0667-8.10691-14.9684-8.10691-14.3457L-8.10691-8.4713-15.9497-8.4713-15.9497-6.97523-8.10691-6.97523-8.10691-4.09297-7.02921-4.09297C-5.55627-3.47218-3.63799-2.3887-2.47738-1.48836L-14.4999-1.48836-14.4999 0Z" fill="#231916" transform="matrix(1 0 0 -1.00453 432.01 64.431)"/><path d="M0 0-11.2475 0-11.2475-1.37268-2.48894-1.37268C-3.49146-2.26145-4.84102-2.89381-5.49844-3.1618L-6.30623-3.1618-6.30623-4.69834-14.2589-4.69834-14.2589-6.13079-6.30623-6.13079-6.30623-9.0651C-6.30623-9.47574-6.34864-9.66081-6.93474-9.66081L-9.97507-9.62419-9.68394-11.2321-6.25225-11.2321C-5.51192-11.2321-4.74077-10.8909-4.74077-9.80349L-4.74077-6.13079 3.03263-6.13079 3.03263-4.69834-4.74077-4.69834-4.74077-4.30504C-3.04226-3.46447-1.4151-2.51979 8.56169e-16-1.2493ZM-10.5014 3.04034-9.57793 3.42014C-9.8594 4.16431-10.2759 5.09936-11.0104 6.06331L-12.3947 5.48879C-12.1614 5.16105-11.4519 4.10262-11.0991 3.04034L-13.8136 3.04034-13.8136-1.05651-12.2886-1.05651-12.2886 1.66573 1.05265 1.66573 1.05265-1.05651 2.57956-1.05651 2.57956 3.04034-0.109892 3.04034C0.399081 3.8597 0.829006 4.7215 1.22423 5.60062L-0.404864 6.12308C-0.57645 5.67388-1.21074 4.08911-1.79682 3.04034L-10.5014 3.04034M-4.44964 3.57822C-4.8198 4.50361-5.40589 5.61025-5.86666 6.29273L-7.30875 5.72206C-6.69182 4.82174-6.22333 3.8597-5.88402 3.05382L-4.44964 3.57822" fill="#231916" transform="matrix(1 0 0 -1.00453 448.86 69.864)"/><path d="M0 0-4.24336 0-4.24336 0.829006-5.65075 0.829006-5.65075 0-9.86326 0-9.86326-1.01795-5.65075-1.01795-5.65075-2.04553-10.6075-2.04553-10.6075-3.04997 0.748033-3.04997 0.748033-2.04553-4.24336-2.04553-4.24336-1.01795 0-1.01795ZM1.36304-12.0842-11.2244-12.0842-11.2244 1.1182 1.36304 1.1182ZM2.84754 2.39641-12.7205 2.39641-12.7205-14.1857-11.2244-14.1857-11.2244-13.3972 1.36304-13.3972 1.36304-14.1857 2.84754-14.1857 2.84754 2.39641M-0.830933-7.26248C-1.25701-7.79653-1.92985-8.43273-2.45039-8.82024-2.99985-8.42118-3.5975-7.96811-4.29733-7.26248L-0.830933-7.26248M-0.2969-7.26248-0.219783-7.26248-0.219783-3.99081-9.69551-3.99081-9.69551-7.26248-6.08259-7.26248C-6.7188-7.84665-8.23028-9.08823-10.6537-9.91723L-10.0599-11.155C-7.75409-10.0715-6.90966-9.5143-5.83196-8.48093L-5.83196-11.583-4.49013-11.583-4.49013-8.54649C-2.82826-10.2431-0.969745-11.0817 0.0636215-11.5232L0.848287-10.3761C0.24099-10.1698-0.439566-9.96542-1.4151-9.4391-0.528251-8.75855-0.0751891-8.32284 0.424142-7.70012L-0.2969-7.26248M-1.57897-6.22718-8.30742-6.22718-8.30742-4.9779-1.57897-4.9779Z" fill="#231916" transform="matrix(1 0 0 -1.00453 466.753 66.832)"/><path d="M378.15 868.056 332.826 868.056 332.826 890.724 378.15 890.724ZM378.15 835.265 332.826 835.265 332.826 859.357 378.15 859.357ZM326.189 899.247C324.378 899.247 322.886 897.757 322.886 895.93L322.886 829.899C322.886 828.07 324.378 826.584 326.189 826.584L384.905 826.584C386.732 826.584 388.22 828.07 388.22 829.899L388.22 895.93C388.22 897.757 386.732 899.247 384.905 899.247L326.189 899.247" fill="#231916" transform="matrix(1 0 0 -1.00453 -7.42085 998.97)"/><path d="M0 0 12.4621-34.5696 23.3529-34.5696 10.272 0.406792C9.5432 2.07251 8.9552 4.92969 8.9552 6.74002L8.9552 22.4179 22.5065 22.4179 22.5065 30.9797-11.1261 30.9797-11.1261 39.401-21.6293 39.401-21.6293 30.9797-55.2658 30.9797-55.2658 22.4179-41.9786 22.4179-41.9786 6.74002C-41.9786 4.92969-42.5684 2.07251-43.2838 0.406792L-56.3609-34.5696-45.4855-34.5696-33.0195 0C-32.3217 1.68115-31.7472 4.54217-31.7472 6.366L-31.7472 22.4179-21.6293 22.4179-21.6293-15.1207-36.3066-15.1207-36.3066-23.6652-21.6293-23.6652-21.6293-37.3921-11.1261-37.3921-11.1261-23.6652 3.55123-23.6652 3.55123-15.1207-11.1261-15.1207-11.1261 22.4179-1.26279 22.4179-1.26279 6.366C-1.26279 4.54217-0.692125 1.68115 0 0" fill="#231916" transform="matrix(1 0 0 -1.00453 445.338 131.75)"/><path d="M533.949 876.716 524.936 876.716 524.936 882.254 533.949 882.254ZM506.777 882.254 515.46 882.254 515.46 876.716 506.777 876.716ZM555.492 889.23 524.936 889.23 524.936 893.035 551.477 893.035 551.477 900.165 488.931 900.165 488.931 893.035 515.46 893.035 515.46 889.23 484.873 889.23C483.051 889.23 481.561 887.753 481.561 885.931L481.561 869.357 491.362 869.357 491.362 882.254 497.623 882.254 497.623 872.971C497.623 871.158 499.102 869.663 500.931 869.663L539.477 869.663C541.303 869.663 542.782 871.158 542.782 872.971L542.782 882.254 549.229 882.254 549.229 869.357 558.836 869.357 558.836 885.931C558.836 887.753 557.298 889.23 555.492 889.23" fill="#231916" transform="matrix(1 0 0 -1.00453 -7.42085 998.97)"/><path d="M0 0 0 4.51712 21.2842 4.51712 21.2842 0.0173513 21.2418 0.0173513 21.2418 0ZM0 15.8668 21.2842 15.8668 21.2842 11.3285 0 11.3285ZM30.8081 4.51712 52.1329 4.51712 52.1329 0 30.8081 0ZM30.8081 15.8668 52.1329 15.8668 52.1329 11.3285 30.8081 11.3285ZM58.603-6.65134C60.423-6.65134 61.9113-5.16876 61.9113-3.35652L61.9113 19.0691C61.9113 20.8967 60.423 22.3793 58.603 22.3793L-6.48938 22.3793C-8.30548 22.3793-9.79577 20.8967-9.79577 19.0691L-9.79577-3.35652C-9.79577-5.16876-8.30548-6.65134-6.48938-6.65134L21.2418-6.65134 21.2418-14.8412C21.2418-16.6669 22.7301-18.1514 24.5404-18.1514L61.8901-18.1514 61.8901-10.6595 30.7775-10.6595 30.7775-6.65134 58.603-6.65134" fill="#231916" transform="matrix(1 0 0 -1.00453 486.723 151.076)"/><path d="M0 0-32.5857 0-32.5857 4.5711-8.99184 11.6678C-6.96173 12.6896-5.88981 14.3091-5.88981 16.1348L-5.88981 30.2145C-5.88981 32.0248-6.96173 33.4012-9.19233 33.5228L-71.8169 33.5228-71.8169 24.6619-16.5107 24.6619-16.5107 18.6661-32.5857 13.8695-32.5857 13.8926-43.0852 13.8926-43.0852 0-77.7646 0-77.7646-8.56577-43.0852-8.56577-43.0852-31.4232-67.0223-31.4097-65.1154-39.6341-35.8843-39.6341C-34.0702-39.6341-32.5857-38.1478-32.5857-36.324L-32.5857-8.56577 0-8.56577Z" fill="#231916" transform="matrix(1 0 0 -1.00453 636.027 129.497)"/><path d="M695.223 867.154 716.523 867.154 716.523 862.617 695.223 862.617ZM695.223 878.826 716.523 878.826 716.523 874.283 695.223 874.283ZM685.659 874.281 664.379 874.281 664.379 878.824 685.659 878.824ZM685.659 862.617 664.379 862.617 664.379 867.156 685.659 867.156ZM716.251 855.438 722.999 855.438C724.827 855.438 726.3 856.922 726.3 858.748L726.3 882.844C726.3 884.661 724.827 886.159 722.999 886.159L695.126 886.159 695.126 890.285 729.344 890.285 729.344 897.847 695.126 897.847 695.126 902.05 685.648 902.05 685.648 897.847 651.562 897.847 651.562 890.285 685.648 890.285 685.648 886.159 657.892 886.159C656.082 886.159 654.589 884.661 654.589 882.844L654.589 858.748C654.589 856.922 656.082 855.438 657.892 855.438L706.619 855.438 706.619 851.01 652.013 851.01 652.013 843.439 662.248 843.439 665.107 830.433 674.818 830.433 671.959 843.439 706.619 843.439 706.619 834.273 678.917 834.273 680.378 825.833 712.929 825.833C714.747 825.833 716.251 827.315 716.251 829.127L716.251 843.439 729.79 843.439 729.79 851.01 716.251 851.01 716.251 855.438" fill="#231916" transform="matrix(1 0 0 -1.00453 -7.42085 998.97)"/><path d="M764.262 884.799 749.02 884.799 749.02 891.881 764.262 891.881ZM764.262 870.013 749.02 870.013 749.02 876.926 764.262 876.926ZM749.02 825.905 749.02 862.723 770.505 862.723C772.334 862.723 773.804 864.214 773.804 866.036L773.804 896.165C773.804 897.984 772.334 899.473 770.505 899.473L742.712 899.473C740.89 899.473 739.406 897.984 739.406 896.165L739.406 825.905 749.02 825.905" fill="#231916" transform="matrix(1 0 0 -1.00453 -7.42085 998.97)"/><path d="M804.434 884.799 789.19 884.799 789.19 891.881 804.434 891.881ZM804.434 870.013 789.19 870.013 789.19 876.926 804.434 876.926ZM788.989 825.869 810.765 825.869C812.587 825.869 814.068 827.378 814.068 829.177L814.068 896.165C814.068 897.984 812.587 899.473 810.765 899.473L782.958 899.473C781.141 899.473 779.644 897.984 779.644 896.165L779.644 866.036C779.644 864.214 781.141 862.723 782.958 862.723L804.434 862.723 804.434 834.604 787.24 834.604 788.989 825.869" fill="#231916" transform="matrix(1 0 0 -1.00453 -7.42085 998.97)"/><path d="M0 0-33.222 0-33.222 2.85525-19.393 6.59349C-18.1977 7.00799-17.2048 8.38453-17.2048 9.67237L-17.2048 20.7309C-17.2048 22.013-18.2362 23.0559-19.5125 23.0559L-60.3612 23.0559-60.3612 15.4272-27.9953 15.4272-27.9953 11.6312-34.3439 10.085-43.4304 10.085-43.4304 0-78.1598 0-78.1598-7.63263-43.4304-7.63263-43.4304-18.7433-61.5393-18.7433-58.3196-27.7831-36.5245-27.7831C-34.7103-27.7831-33.222-26.2948-33.222-24.473L-33.222-7.63263 0-7.63263Z" fill="#231916" transform="matrix(1 0 0 -1.00453 894.669 141.329)"/><path d="M0 0-11.4095 0-6.86148 10.9873-17.3475 10.9873-21.8993 0-29.9734 0-34.5252 10.9873-45.0305 10.9873-40.4632 0-49.8291 0-54.3926 10.9873-64.8939 10.9873-60.3382 0-70.1667 0C-71.9926 0-73.475-1.49607-73.475-3.31217L-73.475-29.474-63.1509-29.474-63.1509-7.71748-6.89424-7.71748-6.89424-28.1611 3.31025-28.1611 3.31025-3.31217C3.31025-1.49607 1.82574 0 0 0" fill="#231916" transform="matrix(1 0 0 -1.00453 891.032 105.235)"/><path d="M0 0-12.8439 29.1773C-14.577 32.6687-15.4543 35.5797-15.4543 38.2037L-15.4543 39.7036-7.10632 39.7036-7.10632 47.8801-16.9214 47.8801-16.9214 57.7489-26.8404 57.7489-26.8404 47.8801-40.2492 47.8801-40.2492 39.7036-30.0679 39.7036-30.0679 37.0489C-30.0679 33.1429-31.8705 26.9408-33.355 22.6936-34.6159 19.0151-45.3852-14.3476-45.3852-14.3476L-35.4661-14.3476-26.8404 18.4965-26.8404-17.3282-16.9214-17.3282-16.9214 19.1597-10.22 0Z" fill="#231916" transform="matrix(1 0 0 -1.00453 944.95 151.855)"/><path d="M0 0 0 8.05679-5.07237 8.05679-1.51728 13.7635C-0.206288 16.1618 0.0597655 18.0858 0.121459 20.6056L0.121459 21.9667 11.6119 21.9667 11.6119 20.6056C11.6736 18.2169 11.8799 16.451 12.973 14.2724L16.5146 8.05679 12.1961 8.05679 12.1594-0.776951 6.3525-7.90834ZM23.2778 15.4215C22.2424 17.1354 21.2862 18.7047 21.2226 20.6056L21.2226 21.9667 25.8881 21.9667 25.8881 30.143 10.806 30.143 10.806 40.012 0.695981 40.012 0.695981 30.143-14.3573 30.143-14.3573 21.9667-9.48923 21.9667-9.48923 20.6056C-9.549 18.9148-10.781 16.852-11.7411 15.3328L-17.0351 6.9116-9.71866 6.9116-9.71866 0.171585C-9.71866-1.73899-9.06316-3.68234-7.42635-6.00739L0.358593-14.9761-16.6438-35.065-4.29348-35.065 6.30429-21.8993 17.1585-35.065 29.8384-35.065 12.2944-14.9009 20.0099-6.19442C21.4635-4.20866 21.9899-1.68886 21.9899 0.462701L22.013 6.9116 28.1322 6.9116 23.2778 15.4215" fill="#231916" transform="matrix(1 0 0 -1.00453 955.513 134.037)"/><path d="M0 0C-5.74328-26.1715-31.6103-42.7343-57.7913-37.0006-65.1291-35.3852-71.7092-32.206-77.2402-27.8796-64.2557-21.3055-52.8192-14.7216-43.5825-8.72385-23.9853 4.00043-10.5516 16.6688-2.09565 27.766 1.19917 19.1982 2.11107 9.62419 0 0M-94.7978 20.7926C-89.1008 46.8118-63.5135 63.309-37.4865 57.884-33.33 56.9469-24.6985 53.7216-29.8866 40.3263-34.743 26.9638-50.4132 6.34864-86.8394-17.8738-94.5588-7.09669-97.8633 6.80171-94.7978 20.7926M7.38394 61.385C-0.368234 69.2067-16.2485 64.1265-26.8501 59.0021-31.8243 61.7553-37.2705 63.8431-43.1084 65.1329-75.6053 72.2431-107.712 51.6914-114.845 19.1905-118.678 1.71778-114.496-15.647-104.764-29.0673-122.306-39.401-143.575-50.2437-169.22-61.3156L-169.081-61.705C-143.837-55.9097-119.219-47.0896-97.4468-37.4306-89.7583-44.7433-80.0416-50.1068-68.9194-52.5437-36.4088-59.6634-4.29733-39.1099 2.83983-6.60891 5.60833 6.08259 4.16624 18.7143-0.55717 29.823 10.3838 44.959 11.9088 56.8583 7.38394 61.385" fill="#009A54" transform="matrix(1 0 0 -1.00453 251.898 130.722)"/><path d="M271.09 946.041C271.09 937.678 277.867 930.905 286.217 930.905L286.217 930.905C294.582 930.905 301.364 937.678 301.364 946.041L301.364 946.041C301.364 954.399 294.582 961.161 286.217 961.161L286.217 961.161C277.867 961.161 271.09 954.399 271.09 946.041" fill="url(#fill1)" transform="matrix(1 0 0 -1.00453 -7.42085 998.97)"/></g></svg>