<?xml version="1.0" encoding="UTF-8" standalone="no"?>
<svg
   width="300"
   height="65"
   viewBox="0 0 300 65"
   version="1.1"
   id="svg12"
   sodipodi:docname="JecShoppingLogo.svg"
   inkscape:version="1.3.2 (091e20e, 2023-11-25, custom)"
   xmlns:inkscape="http://www.inkscape.org/namespaces/inkscape"
   xmlns:sodipodi="http://sodipodi.sourceforge.net/DTD/sodipodi-0.dtd"
   xmlns="http://www.w3.org/2000/svg"
   xmlns:svg="http://www.w3.org/2000/svg">
  <sodipodi:namedview
     id="namedview12"
     pagecolor="#ffffff"
     bordercolor="#000000"
     borderopacity="0.25"
     inkscape:showpageshadow="2"
     inkscape:pageopacity="0.0"
     inkscape:pagecheckerboard="0"
     inkscape:deskcolor="#d1d1d1"
     inkscape:zoom="2.655"
     inkscape:cx="197.55179"
     inkscape:cy="151.9774"
     inkscape:window-width="1409"
     inkscape:window-height="1237"
     inkscape:window-x="1839"
     inkscape:window-y="696"
     inkscape:window-maximized="0"
     inkscape:current-layer="surface1" />
  <defs
     id="defs5">
    <radialGradient
       id="radial0"
       gradientUnits="userSpaceOnUse"
       cx="0"
       cy="0"
       fx="0"
       fy="0"
       r="1"
       gradientTransform="matrix(5.621542,0,0,5.670695,74.969486,9.243686)">
      <stop
         offset="0"
         style="stop-color:rgb(64.705882%,83.529412%,70.980392%);stop-opacity:1;"
         id="stop1" />
      <stop
         offset="0.106735"
         style="stop-color:rgb(64.705882%,83.529412%,70.980392%);stop-opacity:1;"
         id="stop2" />
      <stop
         offset="0.460678"
         style="stop-color:rgb(0%,66.666667%,43.137255%);stop-opacity:1;"
         id="stop3" />
      <stop
         offset="0.994385"
         style="stop-color:rgb(0%,44.313725%,23.137255%);stop-opacity:1;"
         id="stop4" />
      <stop
         offset="1"
         style="stop-color:rgb(0%,44.313725%,23.137255%);stop-opacity:1;"
         id="stop5" />
    </radialGradient>
  </defs>
  <g
     id="surface1">
    <path
       style="fill:#265117;fill-opacity:1;fill-rule:nonzero;stroke:none"
       d="m 102.75781,4.863281 c 0.15235,0.050781 0.0781,0.152344 -0.22656,0.304688 -0.20312,1.164062 -0.42969,2.253906 -0.67969,3.269531 h 4.54297 l 0.15235,-0.304688 1.05859,0.53125 c 0.40625,0.152344 0.35547,0.28125 -0.15234,0.382813 -0.50391,1.417969 -1.08204,2.8125 -1.74219,4.179687 l -1.0586,-0.53125 c 0.60547,-1.117187 1.0586,-2.207031 1.36329,-3.269531 h -2.80079 v 3.878907 c 0.35157,1.570312 0.98438,3.039062 1.89063,4.410156 0.70703,1.0625 1.64062,1.953125 2.80469,2.660156 l -0.75782,1.292969 c -2.07031,-1.46875 -3.48437,-3.523438 -4.24218,-6.160157 -0.25391,1.878907 -0.98438,3.472657 -2.19532,4.792969 -0.60546,0.660157 -1.33984,1.242188 -2.195309,1.75 l -0.835937,-1.140625 c 0.960937,-0.457031 1.769531,-1.039062 2.425786,-1.75 1.36328,-1.523437 2.04296,-3.625 2.04296,-6.3125 V 9.425781 h -0.67968 c -0.40625,1.0625 -0.91016,2.078125 -1.515629,3.042969 l -0.984375,-0.914062 c 0.65625,-0.761719 1.187504,-1.699219 1.589844,-2.8125 0.35547,-1.015626 0.65625,-2.410157 0.91016,-4.183594 z m -4.542966,9.582031 v 5.703126 h -4.46875 v 1.292968 H 92.6875 v -6.996094 z m -4.46875,4.714844 H 97.15625 V 15.433594 H 93.746094 Z M 94.65625,5.546875 c 0.199219,0.050781 0.101562,0.152344 -0.304688,0.304687 -0.554687,1.316407 -1.515624,2.6875 -2.878906,4.105469 L 90.414062,9.273438 c 1.363282,-1.320313 2.347657,-2.738282 2.953126,-4.257813 z m 2.195312,-0.457031 c 1.363282,1.066406 2.472657,2.15625 3.332028,3.269531 L 99.351562,9.195312 C 98.339844,7.980469 97.230469,6.890625 96.019531,5.925781 Z M 96.246094,8.511719 C 96.5,8.613281 96.398438,8.742188 95.941406,8.894531 l -0.07422,0.226563 c 1.667968,1.519531 3.207031,3.117187 4.621094,4.792968 l -0.910157,0.910157 c -1.363281,-1.875 -2.75,-3.445313 -4.164063,-4.714844 -1.265624,2.179687 -2.726562,4.105469 -4.394531,5.78125 l -0.75781,-0.988281 C 92.433594,12.871094 94,10.640625 94.957031,8.207031 Z m 0,0"
       id="path5" />
    <path
       style="fill:#265117;fill-opacity:1;fill-rule:nonzero;stroke:none"
       d="m 112,5.925781 c 0.19922,0.101563 0.14844,0.253907 -0.15234,0.457031 -0.10157,2.636719 -0.15235,5.882813 -0.15235,9.734376 0,1.269531 0.22657,2.128906 0.6836,2.585937 0.55468,0.558594 1.28515,0.835937 2.19531,0.835937 1.96875,0 4.08984,-1.164062 6.36328,-3.496093 l 0.83203,1.0625 c -2.52344,2.484375 -4.89844,3.726562 -7.12109,3.726562 -1.41406,0 -2.5,-0.378906 -3.25391,-1.140625 -0.65625,-0.660156 -0.98437,-1.902344 -0.98437,-3.726562 0,-3.34375 0.0234,-6.71875 0.0742,-10.113282 z m 22.11328,1.902344 c 2.17188,2.484375 3.51172,5.296875 4.01563,8.441406 l -1.44141,0.378907 c -0.40234,-2.835938 -1.64063,-5.5 -3.71094,-7.984376 z m -8.55859,-0.226563 c 0.20312,0.101563 0.1289,0.277344 -0.22656,0.53125 -0.40235,2.332032 -0.60547,4.183594 -0.60547,5.550782 0,2.28125 0.32812,3.753906 0.98437,4.410156 0.30469,0.304688 0.55469,0.457031 0.75781,0.457031 0.30469,0 0.53125,-0.07422 0.67969,-0.226562 0.50781,-0.507813 1.03516,-1.421875 1.59375,-2.738281 l 1.13281,0.910156 c -0.60547,1.320312 -1.23437,2.308594 -1.89062,2.96875 -0.40625,0.40625 -0.88281,0.605468 -1.44141,0.605468 -0.5039,0 -1.05859,-0.300781 -1.66406,-0.910156 -0.91016,-0.914062 -1.36328,-2.765625 -1.36328,-5.550781 0,-1.929687 0.17578,-4.03125 0.53125,-6.3125 z M 146.6875,5.394531 c 0.19922,0.101563 0.125,0.277344 -0.22656,0.53125 -0.20313,0.660157 -0.40625,1.699219 -0.60938,3.121094 h 3.33594 v 1.214844 h -3.48438 c -0.15234,1.015625 -0.30468,2.003906 -0.45703,2.964843 h 4.01563 v 1.21875 h -4.16406 c -0.10157,0.910157 -0.15235,1.699219 -0.15235,2.355469 0,1.015625 0.25,1.777344 0.75781,2.28125 0.55469,0.558594 1.38672,0.839844 2.5,0.839844 1.0586,0 1.83985,-0.253906 2.34766,-0.761719 0.50391,-0.507812 0.75391,-1.292968 0.75391,-2.359375 0,-0.757812 -0.22657,-1.621093 -0.67969,-2.585937 l 1.28906,-0.152344 c 0.45313,0.8125 0.67969,1.726562 0.67969,2.738281 0,1.421875 -0.37891,2.511719 -1.13672,3.269531 -0.70703,0.710938 -1.79297,1.066407 -3.25391,1.066407 -1.51562,0 -2.60156,-0.328125 -3.25781,-0.988281 -0.80859,-0.8125 -1.21094,-2.003907 -1.21094,-3.574219 0,-0.507813 0.0508,-1.21875 0.14844,-2.128907 h -3.40625 v -1.21875 h 3.5586 c 0.15234,-0.960937 0.30468,-1.949218 0.45312,-2.964843 h -3.17969 V 9.046875 h 3.33203 c 0.20313,-1.320313 0.35547,-2.636719 0.45704,-3.957031 z m 15.14453,2.738281 c -1.51172,0.355469 -2.77344,1.039063 -3.78516,2.054688 -1.26171,1.265625 -1.89453,2.785156 -1.89453,4.5625 0,1.316406 0.37891,2.355469 1.13672,3.117188 0.25391,0.253906 0.55469,0.378906 0.91016,0.378906 0.25,0 0.5039,-0.125 0.75781,-0.378906 0.60547,-0.609376 1.18359,-1.851563 1.74219,-3.726563 0.60547,-2.027344 0.98437,-4.03125 1.13281,-6.007813 z m 1.51563,-1.21875 c 2.07031,0 3.6875,0.585938 4.84765,1.75 1.21094,1.21875 1.81641,2.839844 1.81641,4.867188 0,1.824219 -0.62891,3.371094 -1.89063,4.640625 -1.01172,1.011719 -2.29687,1.796875 -3.86328,2.355469 l -0.98437,-1.0625 c 1.61718,-0.507813 2.90234,-1.242188 3.86328,-2.207032 1.05859,-1.0625 1.58984,-2.304687 1.58984,-3.726562 0,-1.671875 -0.5039,-3.015625 -1.51562,-4.03125 -1.00782,-1.011719 -2.44922,-1.496094 -4.31641,-1.445312 l 0.37891,0.152343 c 0.20312,0.101563 0.15234,0.253907 -0.15235,0.457031 -0.2539,1.925782 -0.67968,3.828126 -1.28906,5.703126 -0.75391,2.332031 -1.46094,3.828124 -2.11719,4.488281 -0.45703,0.457031 -0.98437,0.683593 -1.59375,0.683593 -0.60547,0 -1.18359,-0.277343 -1.73828,-0.835937 -0.96094,-0.964844 -1.4414,-2.332031 -1.4414,-4.105469 0,-1.976562 0.70703,-3.675781 2.12109,-5.097656 1.71484,-1.722656 3.8125,-2.585938 6.28516,-2.585938 z m 11.4375,-0.074218 c 0.20312,0.101562 0.15234,0.253906 -0.15235,0.457031 -0.70703,2.992187 -1.05859,5.828125 -1.05859,8.515625 0,1.472656 0.15234,2.964844 0.45312,4.488281 l -1.4375,0.226563 c -0.15234,-1.265625 -0.22656,-2.839844 -0.22656,-4.714844 0,-2.636719 0.30078,-5.726562 0.90625,-9.277344 z m 8.55859,-0.988282 c 0.20312,0.101563 0.15234,0.253907 -0.15234,0.457032 l 0.0781,3.117187 4.01172,-0.152343 v 1.292968 l -3.9375,0.07422 c 0.0508,0.8125 0.0742,1.75 0.0742,2.816406 v 2.8125 c 1.41406,0.558594 2.85547,1.292969 4.3164,2.207031 l -0.67968,1.367188 c -1.41407,-1.015625 -2.625,-1.75 -3.63672,-2.207031 -0.0508,0.964843 -0.32813,1.699219 -0.83203,2.207031 -0.60547,0.609375 -1.48828,0.914062 -2.65235,0.914062 -1.05859,0 -1.86718,-0.28125 -2.42187,-0.835937 -0.45313,-0.457031 -0.6836,-0.992187 -0.6836,-1.597656 0,-0.660157 0.28125,-1.269531 0.83594,-1.828125 0.55469,-0.554688 1.38672,-0.835938 2.5,-0.835938 0.50391,0 1.1836,0.101563 2.04297,0.304688 v -2.507813 c 0,-1.066406 -0.0234,-1.976562 -0.0742,-2.738281 l -5.4531,0.304687 L 176.52734,9.730469 182.05469,9.5 c -0.0508,-1.316406 -0.125,-2.558594 -0.22657,-3.726562 z m -3.17969,10.875 c -0.75781,0 -1.3164,0.175782 -1.66797,0.53125 -0.30468,0.304688 -0.45312,0.632813 -0.45312,0.988282 0,0.355468 0.14844,0.683594 0.45312,0.988281 0.25391,0.253906 0.73047,0.382813 1.4375,0.382813 0.75782,0 1.36328,-0.230469 1.82032,-0.6875 0.30078,-0.300782 0.45312,-0.886719 0.45312,-1.746094 -0.75781,-0.304688 -1.4375,-0.457032 -2.04297,-0.457032 z m 0,0"
       id="path6" />
    <path
       style="fill:#265117;fill-opacity:1;fill-rule:nonzero;stroke:none"
       d="m 190.77734,17.714844 c 1.26172,0.964844 2.4961,2.078125 3.71094,3.347656 l -0.98437,1.140625 c -1.16407,-1.269531 -2.39844,-2.410156 -3.71094,-3.425781 z m 0,0"
       id="path7" />
    <path
       style="fill:#265117;fill-opacity:1;fill-rule:nonzero;stroke:none"
       d="m 207.79297,5.015625 c 0.25,0.101563 0.14844,0.226563 -0.30469,0.378906 C 207.13672,6.8125 206.73047,8.183594 206.27734,9.5 l 0.53125,0.152344 c 0.19922,0.152344 0.0977,0.355468 -0.30468,0.609375 v 11.710937 h -1.0586 V 11.25 c -0.50781,1.167969 -1.16406,2.257812 -1.97265,3.269531 l -0.75391,-0.988281 c 0.95703,-1.0625 1.76562,-2.433594 2.42187,-4.105469 0.50391,-1.269531 0.96094,-2.863281 1.36329,-4.792969 z m 12.34375,1.140625 v 1.140625 h -1.66797 v 13.230469 c 0,0.8125 -0.32813,1.21875 -0.98438,1.21875 h -2.72656 l -0.22656,-1.140625 h 2.57422 c 0.20312,0 0.30469,-0.101563 0.30469,-0.304688 V 7.296875 h -9.69532 V 6.15625 Z m -9.92188,9.582031 h 3.41016 v -4.335937 h -3.41016 z m 4.46875,-5.476562 v 7.679687 H 213.625 v -1.0625 h -3.41016 v 1.597656 h -1.05859 v -8.214843 z m 0,0"
       id="path8" />
    <path
       style="fill:#265117;fill-opacity:1;fill-rule:nonzero;stroke:none"
       d="m 236.94922,8.359375 -2.19531,0.152344 c -1.76563,0.101562 -3.3086,0.8125 -4.6211,2.128906 -1.26172,1.269531 -1.89062,2.6875 -1.89062,4.261719 0,1.011718 0.3789,1.898437 1.13281,2.660156 1.16406,1.167969 3.08203,1.75 5.75781,1.75 l -0.3789,1.445312 c -2.77735,-0.05078 -4.84766,-0.761718 -6.21094,-2.128906 -1.00781,-1.015625 -1.51563,-2.257812 -1.51563,-3.726562 0,-1.828125 0.60547,-3.347656 1.82032,-4.5625 0.60546,-0.609375 1.21093,-1.117188 1.8164,-1.523438 -2.8789,0.40625 -5.57812,0.835938 -8.10547,1.292969 l -0.30078,-1.519531 c 3.07813,-0.253906 6.10938,-0.558594 9.08985,-0.914063 2.11718,-0.253906 3.96093,-0.507812 5.52734,-0.761719 z m -3.40625,3.195313 c 0.90625,0.609374 1.76562,1.34375 2.57422,2.207031 l -0.75782,0.835937 c -0.75781,-0.863281 -1.58984,-1.597656 -2.5,-2.207031 z m 1.51562,-1.671876 c 0.95703,0.503907 1.83985,1.191407 2.64844,2.050782 l -0.75781,0.835937 c -0.70703,-0.808593 -1.5625,-1.492187 -2.57422,-2.050781 z m 9.9961,-4.488281 c 0.20312,0.101563 0.125,0.277344 -0.22657,0.53125 -0.20312,0.660157 -0.40625,1.699219 -0.60546,3.121094 h 3.33203 v 1.214844 h -3.48438 c -0.15234,1.015625 -0.30469,2.003906 -0.45312,2.964843 h 4.01172 v 1.21875 h -4.16407 c -0.10156,0.910157 -0.15234,1.699219 -0.15234,2.355469 0,1.015625 0.25391,1.777344 0.75781,2.28125 0.55469,0.558594 1.38672,0.839844 2.5,0.839844 1.0586,0 1.83985,-0.253906 2.34766,-0.761719 0.5039,-0.507812 0.75781,-1.292968 0.75781,-2.359375 0,-0.757812 -0.23047,-1.621093 -0.68359,-2.585937 l 1.28906,-0.152344 c 0.45312,0.8125 0.67969,1.726562 0.67969,2.738281 0,1.421875 -0.37891,2.511719 -1.13672,3.269531 -0.70703,0.710938 -1.78906,1.066407 -3.25391,1.066407 -1.51562,0 -2.60156,-0.328125 -3.25781,-0.988281 -0.80859,-0.8125 -1.21094,-2.003907 -1.21094,-3.574219 0,-0.507813 0.0508,-1.21875 0.15235,-2.128907 h -3.41016 v -1.21875 h 3.55859 c 0.15235,-0.960937 0.30469,-1.949218 0.45703,-2.964843 h -3.18359 V 9.046875 h 3.33203 c 0.20313,-1.320313 0.35547,-2.636719 0.45703,-3.957031 z m 19.61718,1.445313 c 0.0977,0.152344 -0.0273,0.253906 -0.3789,0.304687 -2.17188,2.027344 -4.16797,3.777344 -5.98438,5.246094 l 9.61719,-1.0625 v 1.367187 c -2.01953,0.05078 -3.63281,0.175782 -4.84766,0.378907 -0.65625,0.101562 -1.38671,0.558593 -2.19531,1.371093 -0.85937,0.859376 -1.28515,1.75 -1.28515,2.660157 0,0.609375 0.22656,1.140625 0.67968,1.597656 0.85938,0.863281 2.39844,1.292969 4.6211,1.292969 l -0.37891,1.367187 c -2.42578,-0.101562 -4.16797,-0.683593 -5.22656,-1.746093 -0.60547,-0.609376 -0.91016,-1.472657 -0.91016,-2.585938 0,-1.015625 0.48047,-2.003906 1.44141,-2.96875 0.30078,-0.300781 0.6289,-0.582031 0.98437,-0.835938 -2.57422,0.304688 -4.97265,0.660157 -7.19531,1.066407 L 253.30859,13 l 2.65235,-0.304688 c 2.07031,-1.46875 4.16406,-3.296874 6.28515,-5.476562 -1.96875,0.355469 -3.9375,0.660156 -5.90625,0.914062 l -0.22656,-1.371093 c 3.12891,-0.148438 5.60156,-0.503907 7.42188,-1.0625 z m 15.75,-0.152344 c 0.20313,0.203125 0.12891,0.328125 -0.22656,0.378906 L 275.04687,13 c 1.3125,-0.507812 2.52344,-0.761719 3.63672,-0.761719 1.46094,0 2.64844,0.457031 3.5586,1.371094 0.70703,0.707031 1.05859,1.621094 1.05859,2.734375 0,1.117188 -0.35156,2.03125 -1.05859,2.738281 -1.21094,1.21875 -3.66016,1.828125 -7.34766,1.828125 l -0.60547,-1.21875 c 3.63672,0 5.9336,-0.480468 6.89063,-1.445312 0.50781,-0.507813 0.75781,-1.140625 0.75781,-1.902344 0,-0.808594 -0.22656,-1.441406 -0.67969,-1.898438 -0.70703,-0.710937 -1.6914,-1.066406 -2.95312,-1.066406 -2.17188,0 -4.04297,0.785156 -5.60547,2.359375 -0.50391,0.507813 -0.96094,1.011719 -1.36328,1.519531 l -1.0625,-1.0625 C 272.69922,14.0625 275.375,11.125 278.30469,7.371094 L 272.77344,7.980469 272.54687,6.6875 c 3.17969,-0.050781 5.52735,-0.304688 7.04297,-0.761719 z m 7.57422,-1.445312 c 2.47657,0.710937 4.79688,1.117187 6.96875,1.21875 l -0.22656,1.367187 c -2.07031,-0.101563 -4.39453,-0.507813 -6.96875,-1.214844 z m 4.24219,4.867187 c 1.21094,0 2.14453,0.328125 2.80078,0.988281 0.75781,0.761719 1.13672,1.824219 1.13672,3.195313 0,1.824219 -0.67969,3.421875 -2.04297,4.789062 -1.26172,1.269531 -2.8789,2.128907 -4.84765,2.585938 L 288.375,20.453125 c 2.07031,-0.40625 3.63672,-1.140625 4.69531,-2.207031 1.16406,-1.164063 1.74219,-2.484375 1.74219,-3.953125 0,-1.015625 -0.22656,-1.75 -0.67969,-2.207031 -0.5039,-0.507813 -1.13672,-0.757813 -1.89453,-0.757813 -0.96094,0 -2.98047,0.480469 -6.05859,1.441406 l -0.53125,-1.441406 c 1.16406,-0.152344 2.32422,-0.382813 3.48437,-0.6875 1.36328,-0.351563 2.39844,-0.53125 3.10547,-0.53125 z m 0,0"
       id="path9" />
    <path
       style="fill:#009951;fill-opacity:1;fill-rule:nonzero;stroke:none"
       d="M 64.972656,39.859375 C 62.839844,49.667969 53.230469,55.875 43.503906,53.726562 40.777344,53.121094 38.332031,51.929688 36.277344,50.308594 41.101562,47.84375 45.351562,45.378906 48.78125,43.128906 56.0625,38.363281 61.054688,33.613281 64.195312,29.457031 c 1.222657,3.210938 1.5625,6.796875 0.777344,10.402344 M 29.757812,32.070312 c 2.113282,-9.75 11.621094,-15.933593 21.289063,-13.902343 1.542969,0.351562 4.75,1.5625 2.824219,6.582031 -1.804688,5.007812 -7.625,12.730469 -21.160156,21.808594 C 29.84375,42.519531 28.617188,37.3125 29.757812,32.070312 M 67.714844,16.859375 C 64.835938,13.925781 58.9375,15.832031 55,17.75 c -1.847656,-1.03125 -3.871094,-1.8125 -6.042969,-2.296875 -12.070312,-2.664063 -24,5.039063 -26.648437,17.214844 C 20.886719,39.21875 22.4375,45.722656 26.054688,50.753906 19.539062,54.625 11.636719,58.6875 2.109375,62.839844 l 0.050781,0.144531 c 9.378906,-2.171875 18.523438,-5.476563 26.613282,-9.097656 2.855468,2.742187 6.464843,4.75 10.597656,5.664062 12.078125,2.667969 24.003906,-5.035156 26.65625,-17.214843 1.027344,-4.753907 0.492187,-9.488282 -1.261719,-13.652344 4.066406,-5.671875 4.632813,-10.128906 2.949219,-11.824219"
       id="path10" />
    <path
       style="fill:url(#radial0);fill-rule:nonzero;stroke:none"
       d="m 69.347656,9.238281 c 0,3.136719 2.515625,5.671875 5.617188,5.671875 3.109375,0 5.628906,-2.535156 5.628906,-5.671875 0,-3.128906 -2.519531,-5.664062 -5.628906,-5.664062 -3.101563,0 -5.617188,2.535156 -5.617188,5.664062"
       id="path11" />
    <path
       style="fill:#000000;fill-opacity:1;fill-rule:nonzero;stroke:none"
       d="m 86.322571,47.046631 c 1.699219,-3.980468 2.9375,-7.050781 3.714843,-9.214844 0.777344,-2.1875 1.21875,-3.484374 1.324219,-3.894531 0.128907,-0.410156 0.195313,-0.734375 0.195313,-0.972656 0,-0.433594 -0.183594,-0.726563 -0.550782,-0.875 -0.34375,-0.175781 -1.335937,-0.261719 -2.972656,-0.261719 V 31.30835 h 15.640622 v 0.519531 l -1.58203,0.09766 c -1.03515,0.08594 -1.71484,0.398438 -2.03515,0.941407 -0.324223,0.519531 -0.894536,1.804687 -1.714848,3.859375 -0.796875,2.035156 -1.464844,3.742187 -2.003906,5.128906 -0.515625,1.382812 -1.25,3.167969 -2.195313,5.351562 -0.929687,2.1875 -2.457031,4.089844 -4.589843,5.710938 -2.113282,1.625 -4.804688,2.433594 -8.078126,2.433594 -1.660156,0 -3.101562,-0.410156 -4.332031,-1.230469 -1.207031,-0.824219 -1.808593,-1.96875 -1.808593,-3.441406 0,-1.167969 0.386718,-2.164063 1.164062,-2.984375 0.796875,-0.84375 1.753906,-1.265625 2.875,-1.265625 1.121094,0 2.035156,0.335937 2.746094,1.003906 0.734375,0.652344 1.101562,1.484375 1.101562,2.5 0,0.777344 -0.28125,1.480469 -0.84375,2.109375 -0.558594,0.628906 -1.097656,1.007812 -1.613281,1.136719 -0.496094,0.105469 -0.917969,0.203125 -1.261719,0.289062 -0.324218,0.06641 -0.484375,0.25 -0.484375,0.554688 0,0.257812 0.128907,0.464843 0.386719,0.617187 0.28125,0.128906 0.691406,0.191406 1.230469,0.191406 1.3125,0 2.378906,-0.800781 3.199219,-2.398437 0.816406,-1.625 1.648437,-3.417969 2.488281,-5.386719 z M 105.25616,47.4021 c 1.50782,-0.171875 2.87891,-1.015625 4.10547,-2.53125 1.22657,-1.535156 1.84375,-2.886719 1.84375,-4.054687 0,-0.324219 -0.0469,-0.574219 -0.13281,-0.746094 -0.0859,-0.171875 -0.27734,-0.261719 -0.57812,-0.261719 -0.47657,0 -0.94922,0.261719 -1.42188,0.78125 -0.47656,0.519531 -0.98047,1.242187 -1.51953,2.171875 -0.53906,0.929688 -1.00391,1.785156 -1.39063,2.566406 -0.36718,0.753906 -0.66796,1.449219 -0.90625,2.074219 z m -0.0937,0.359375 c -0.13281,0.410156 -0.25,0.949219 -0.35546,1.621094 -0.10938,0.648437 -0.16407,1.1875 -0.16407,1.621094 0,1.210937 0.16407,2.066406 0.48438,2.5625 0.34765,0.5 0.83984,0.746093 1.48828,0.746093 0.49609,0 0.9375,-0.05078 1.32422,-0.160156 0.38672,-0.128906 0.83984,-0.347656 1.35547,-0.648437 0.51953,-0.304688 1.05859,-0.746094 1.61718,-1.332032 0.58204,-0.582031 1.04688,-1.15625 1.39063,-1.71875 l 0.45312,0.324219 c -0.90625,1.277344 -1.97265,2.347656 -3.19921,3.210937 -1.23047,0.867188 -2.71485,1.300782 -4.46094,1.300782 -1.59375,0 -3.08985,-0.476563 -4.49219,-1.429688 -1.378906,-0.972656 -2.066406,-2.390625 -2.066406,-4.25 0,-2.59375 1.164063,-4.964844 3.488286,-7.105468 2.34765,-2.164063 5.10546,-3.246094 8.27343,-3.246094 1.48438,0 2.70313,0.347656 3.65235,1.039062 0.94531,0.671875 1.42187,1.449219 1.42187,2.335938 0,1.710937 -0.99219,2.996094 -2.97265,3.863281 -1.98438,0.84375 -4.39454,1.265625 -7.23829,1.265625 z M 126.682,39.80835 c -0.47266,0 -1,0.292969 -1.58204,0.878906 -0.58203,0.582031 -1.1875,1.449219 -1.8125,2.59375 -0.62109,1.148438 -1.1289,2.433594 -1.51562,3.863281 -0.39063,1.40625 -0.58203,2.660157 -0.58203,3.761719 0,1.253907 0.18359,2.132813 0.54687,2.628907 0.39063,0.476562 0.92969,0.714843 1.61719,0.714843 0.53906,0 1.02344,-0.08594 1.45313,-0.261719 0.43359,-0.191406 0.90625,-0.484374 1.42187,-0.875 0.53906,-0.390624 0.98047,-0.789062 1.32422,-1.199218 0.36719,-0.410156 0.74609,-0.898438 1.13281,-1.460938 l 0.45313,0.324219 c -1.23047,1.710937 -2.45703,2.886719 -3.6836,3.535156 -1.20703,0.652344 -2.5,0.976563 -3.8789,0.976563 -1.61719,0 -3.13282,-0.488282 -4.55469,-1.460938 -1.40234,-0.996094 -2.10156,-2.433594 -2.10156,-4.316406 0,-2.574219 1.1289,-4.921875 3.39062,-7.039062 2.28516,-2.144532 5.01172,-3.214844 8.17578,-3.214844 1.875,0 3.17969,0.347656 3.91016,1.039062 0.75391,0.691406 1.13281,1.460938 1.13281,2.304688 0,0.929687 -0.28125,1.6875 -0.83984,2.269531 -0.53906,0.5625 -1.23828,0.84375 -2.10156,0.84375 -0.77344,0 -1.42188,-0.226563 -1.9375,-0.679687 -0.51954,-0.453126 -0.77735,-1.015626 -0.77735,-1.6875 0,-0.5625 0.25,-1.167969 0.7461,-1.816407 0.51562,-0.648437 0.77343,-1.09375 0.77343,-1.332031 0,-0.128906 -0.0625,-0.226562 -0.19531,-0.292969 -0.10547,-0.0625 -0.27734,-0.09766 -0.51562,-0.09766 z m 22.71875,15.542969 c -1.37891,0 -2.75782,-0.335938 -4.13672,-1.003906 -1.37891,-0.671876 -2.7461,-1.363282 -4.10547,-2.078126 -0.42969,0 -0.99219,0.335938 -1.67969,1.007813 -0.66797,0.648437 -1.18359,1.339844 -1.55078,2.074219 h -0.55078 l 4.78515,-11.808594 h 0.58204 c -0.0234,0.300781 -0.0469,0.757812 -0.0664,1.363281 -0.0234,0.582031 -0.0312,1.003907 -0.0312,1.265625 0,1.035156 0.0742,1.933594 0.22656,2.691406 0.14844,0.757813 0.44141,1.632813 0.8711,2.628907 0.45312,0.972656 1.20703,1.761719 2.26171,2.367187 1.07813,0.585938 2.31641,0.875 3.71485,0.875 1.29297,0 2.33984,-0.375 3.13672,-1.132812 0.79687,-0.757813 1.19531,-1.625 1.19531,-2.597656 0,-0.648438 -0.21484,-1.253907 -0.64844,-1.816407 -0.42969,-0.5625 -1.30078,-1.199219 -2.61719,-1.914062 -1.29296,-0.734375 -2.84375,-1.613281 -4.65234,-2.628907 -2.10937,-1.492187 -3.16797,-3.339843 -3.16797,-5.546874 0,-2.1875 1.00391,-4.089844 3.00781,-5.710938 2.00391,-1.625 4.40625,-2.433594 7.20704,-2.433594 1.46484,0 2.77734,0.214844 3.9414,0.648438 1.05469,0.476562 2.1211,0.953125 3.19922,1.425781 0.51563,0 0.94531,-0.171875 1.29297,-0.515625 0.34375,-0.347656 0.71875,-0.867188 1.12891,-1.558594 h 0.61328 l -3.97266,9.863282 h -0.58203 c 0.043,-0.28125 0.0742,-0.617188 0.0977,-1.007813 0.0195,-0.386719 0.0312,-0.851563 0.0312,-1.394531 0,-0.863282 -0.043,-1.597656 -0.12891,-2.207032 -0.0664,-0.625 -0.24609,-1.296874 -0.55078,-2.011718 -0.30078,-0.734375 -0.83985,-1.351563 -1.61328,-1.847656 -0.77735,-0.519532 -1.875,-0.777344 -3.29688,-0.777344 -1.09765,0 -2.12109,0.3125 -3.07031,0.941406 -0.92578,0.605469 -1.39063,1.425781 -1.39063,2.464844 0,0.667968 0.20704,1.296875 0.61329,1.882812 0.43359,0.582032 0.92968,1.035156 1.48828,1.359375 0.55859,0.328125 1.51953,0.867188 2.875,1.625 1.35937,0.734375 2.45703,1.371094 3.29687,1.914063 0.83985,0.519531 1.5625,1.265625 2.16406,2.238281 0.625,0.972656 0.9375,2.042969 0.9375,3.210937 0,2.359376 -1.02343,4.304688 -3.07031,5.84375 -2.04687,1.535157 -4.64062,2.300782 -7.78515,2.300782 z m 31.375,-5.253906 c -0.98829,1.707031 -1.90625,3.003906 -2.7461,3.890624 -0.83984,0.867188 -2.0664,1.300782 -3.68359,1.300782 -1.14063,0 -2.01563,-0.347656 -2.61719,-1.039063 -0.58203,-0.691406 -0.87109,-1.578125 -0.87109,-2.660156 0,-0.84375 0.17187,-1.6875 0.51562,-2.53125 0.32422,-0.648437 0.74219,-1.472656 1.26172,-2.464844 0.51563,-1.019531 1.07422,-2.101562 1.67969,-3.246093 0.60156,-1.148438 0.90234,-2.011719 0.90234,-2.597657 0,-0.238281 -0.0508,-0.410156 -0.16015,-0.519531 -0.0859,-0.105469 -0.22657,-0.160156 -0.42188,-0.160156 -0.38672,0 -0.76172,0.117187 -1.12891,0.355468 -0.36718,0.238282 -0.87109,0.746094 -1.51953,1.527344 -0.64453,0.757813 -1.25781,1.835938 -1.83984,3.242188 l -3.97656,9.769531 h -6.26953 c 0.58203,-1.429687 1.3164,-3.226563 2.19921,-5.386719 0.88282,-2.164062 1.89454,-4.671875 3.03516,-7.527344 1.16406,-2.878906 1.98438,-4.933593 2.45703,-6.167968 0.4961,-1.230469 0.79688,-2.019532 0.90625,-2.367188 0.12891,-0.347656 0.19141,-0.636718 0.19141,-0.875 0,-0.5 -0.35547,-0.746094 -1.06641,-0.746094 l -1.42187,-0.06641 v -0.519531 h 9.53515 L 171.2445,42.14819 c 0.83984,-0.976563 1.53906,-1.699219 2.10156,-2.175781 0.57812,-0.476563 1.48437,-0.714844 2.71094,-0.714844 1.05859,0 1.99609,0.324218 2.8125,0.972656 0.83984,0.652344 1.26171,1.625 1.26171,2.921875 0,0.734375 -0.0859,1.320313 -0.25781,1.753906 -0.15234,0.429688 -0.50781,1.242188 -1.0664,2.433594 -0.5625,1.1875 -1.21875,2.484375 -1.97266,3.890625 -0.73047,1.40625 -1.09766,2.273438 -1.09766,2.597656 0,0.152344 0.043,0.269532 0.12891,0.355469 0.10547,0.08594 0.24609,0.128906 0.41797,0.128906 0.58203,0 1.1875,-0.375 1.8125,-1.132812 0.64453,-0.78125 1.1289,-1.417969 1.45312,-1.914063 0.32422,-0.5 0.59375,-0.953125 0.8086,-1.363281 z m 18,-4.414063 c 0,2.445313 -1.04297,4.660156 -3.13282,6.652344 -2.07031,1.96875 -4.60156,2.953125 -7.59375,2.953125 -0.90625,0 -1.72656,-0.175782 -2.45703,-0.519532 -0.73437,-0.347656 -1.51953,-0.964843 -2.35937,-1.851562 -0.82032,-0.886719 -1.22657,-2.238281 -1.22657,-4.054688 0,-2.402343 1.02344,-4.597656 3.07032,-6.585937 2.0664,-2.011719 4.61718,-3.019531 7.65625,-3.019531 0.94922,0 1.76562,0.175781 2.45703,0.519531 0.6875,0.324219 1.34765,0.824219 1.96875,1.492187 0.625,0.671876 1.04687,1.386719 1.26172,2.140626 0.23828,0.738281 0.35547,1.496093 0.35547,2.273437 z m -4.46094,-4.769531 c 0,-0.347656 -0.0859,-0.617188 -0.25781,-0.8125 -0.14844,-0.195313 -0.41016,-0.292969 -0.77344,-0.292969 -0.39063,0 -0.8086,0.273437 -1.26172,0.8125 -0.45313,0.519531 -1.10938,1.632813 -1.97266,3.34375 -0.83984,1.6875 -1.64453,3.515625 -2.42187,5.480469 -0.77344,1.949218 -1.16406,3.324218 -1.16406,4.121094 0,0.414062 0.0859,0.726562 0.25781,0.941406 0.17578,0.195312 0.43359,0.292968 0.77734,0.292968 0.36719,0 0.75391,-0.238281 1.16406,-0.714843 0.41016,-0.476563 1,-1.46875 1.77735,-2.984375 0.79687,-1.515625 1.63672,-3.363282 2.51953,-5.546875 0.90625,-2.207031 1.35547,-3.753907 1.35547,-4.640625 z m 25.01172,3.761718 c 0,2.382813 -0.94532,4.75 -2.84375,7.109376 -1.8711,2.335937 -4.14453,3.503906 -6.81641,3.503906 -0.96875,0 -1.75781,-0.195313 -2.35937,-0.585938 -0.60157,-0.390625 -0.90625,-1.144531 -0.90625,-2.269531 -0.51563,1.1875 -1.05469,2.441406 -1.61329,3.761719 -0.53906,1.34375 -0.89453,2.238281 -1.0664,2.695312 -0.17188,0.453125 -0.34375,0.90625 -0.51953,1.363282 -0.14844,0.453124 -0.22657,0.765624 -0.22657,0.9375 0,0.347656 0.16407,0.554687 0.48829,0.617187 0.34375,0.08594 1.10937,0.128906 2.29296,0.128906 v 0.519531 h -12.375 v -0.519531 c 0.12891,0 0.30079,-0.0078 0.51563,-0.03125 0.21484,-0.01953 0.55859,-0.0625 1.03516,-0.128906 0.44921,-0.06641 0.85937,-0.261719 1.22656,-0.585937 0.36719,-0.300782 0.89453,-1.253907 1.58203,-2.855469 l 6.59375,-15.703125 c 0.15234,-0.34375 0.26953,-0.660156 0.35547,-0.941406 0.0859,-0.300782 0.1289,-0.5625 0.1289,-0.777344 0,-0.195313 -0.0312,-0.335938 -0.0976,-0.421875 -0.0625,-0.109375 -0.17188,-0.164063 -0.32422,-0.164063 -0.27734,0 -0.58984,0.132813 -0.93359,0.390625 -0.32422,0.257813 -0.69141,0.636719 -1.10157,1.136719 -0.40625,0.476562 -0.85156,1.070312 -1.32422,1.785156 -0.45312,0.691406 -0.82812,1.351563 -1.1289,1.976563 l -0.42188,-0.195313 c 0.82032,-1.707031 1.75782,-3.15625 2.8125,-4.347656 1.05469,-1.210938 2.28125,-1.816406 3.6836,-1.816406 1.12109,0 1.98047,0.347656 2.58593,1.039062 0.625,0.671875 0.9375,1.632813 0.9375,2.886719 l -0.0664,0.8125 c 0.83984,-1.578125 1.59375,-2.757813 2.26172,-3.535156 0.6914,-0.800781 1.67968,-1.203125 2.97265,-1.203125 1.25,0 2.33985,0.488281 3.26563,1.460937 0.92578,0.953125 1.38672,2.269531 1.38672,3.957031 z m -5.26563,-3.46875 c 0,-0.390624 -0.0664,-0.671874 -0.19531,-0.84375 -0.10547,-0.195312 -0.27734,-0.292968 -0.51563,-0.292968 -0.49609,0 -1.04687,0.367187 -1.64843,1.101562 -0.60157,0.738282 -1.1836,1.710938 -1.7461,2.921875 -0.55859,1.1875 -1.21484,2.769531 -1.96875,4.738281 -0.73437,1.945313 -1.10156,3.308594 -1.10156,4.085938 0,0.433594 0.0781,0.769531 0.22656,1.007812 0.17188,0.214844 0.42188,0.324219 0.7461,0.324219 0.51562,0 0.96875,-0.324219 1.35547,-0.972656 0.41015,-0.671875 0.9375,-1.632813 1.58203,-2.890625 0.64843,-1.253906 1.34765,-2.898438 2.10156,-4.929688 0.77734,-2.035156 1.16406,-3.449218 1.16406,-4.25 z m 25.65625,3.46875 c 0,2.382813 -0.94531,4.75 -2.84375,7.109376 -1.87109,2.335937 -4.14453,3.503906 -6.8164,3.503906 -0.96875,0 -1.75782,-0.195313 -2.35938,-0.585938 -0.60156,-0.390625 -0.90625,-1.144531 -0.90625,-2.269531 -0.51562,1.1875 -1.05469,2.441406 -1.61328,3.761719 -0.53906,1.34375 -0.89453,2.238281 -1.06641,2.695312 -0.17187,0.453125 -0.34765,0.90625 -0.51953,1.363282 -0.14844,0.453124 -0.22656,0.765624 -0.22656,0.9375 0,0.347656 0.16406,0.554687 0.48828,0.617187 0.34375,0.08594 1.10938,0.128906 2.29297,0.128906 v 0.519531 h -12.375 v -0.519531 c 0.12891,0 0.30078,-0.0078 0.51562,-0.03125 0.21485,-0.01953 0.5586,-0.0625 1.03516,-0.128906 0.44922,-0.06641 0.85938,-0.261719 1.22656,-0.585937 0.36719,-0.300782 0.89453,-1.253907 1.58203,-2.855469 l 6.59375,-15.703125 c 0.15235,-0.34375 0.26954,-0.660156 0.35547,-0.941406 0.0859,-0.300782 0.12891,-0.5625 0.12891,-0.777344 0,-0.195313 -0.0312,-0.335938 -0.0977,-0.421875 -0.0625,-0.109375 -0.17187,-0.164063 -0.32422,-0.164063 -0.27734,0 -0.58984,0.132813 -0.93359,0.390625 -0.32422,0.257813 -0.69141,0.636719 -1.10156,1.136719 -0.41016,0.476562 -0.85156,1.070312 -1.32422,1.785156 -0.45313,0.691406 -0.82813,1.351563 -1.12891,1.976563 l -0.42187,-0.195313 c 0.82031,-1.707031 1.75781,-3.15625 2.8125,-4.347656 1.05469,-1.210938 2.28125,-1.816406 3.68359,-1.816406 1.1211,0 1.98047,0.347656 2.58594,1.039062 0.625,0.671875 0.9375,1.632813 0.9375,2.886719 l -0.0664,0.8125 c 0.83985,-1.578125 1.59375,-2.757813 2.26172,-3.535156 0.69141,-0.800781 1.67969,-1.203125 2.97266,-1.203125 1.25,0 2.33594,0.488281 3.26562,1.460937 0.92578,0.953125 1.38672,2.269531 1.38672,3.957031 z m -5.26562,-3.46875 c 0,-0.390624 -0.0664,-0.671874 -0.19532,-0.84375 -0.10546,-0.195312 -0.27734,-0.292968 -0.51562,-0.292968 -0.49609,0 -1.04688,0.367187 -1.64844,1.101562 -0.60156,0.738282 -1.18359,1.710938 -1.74609,2.921875 -0.5586,1.1875 -1.21485,2.769531 -1.96875,4.738281 -0.73438,1.945313 -1.10156,3.308594 -1.10156,4.085938 0,0.433594 0.0781,0.769531 0.22656,1.007812 0.17187,0.214844 0.42187,0.324219 0.74609,0.324219 0.51563,0 0.96875,-0.324219 1.35547,-0.972656 0.41016,-0.671875 0.9375,-1.632813 1.58203,-2.890625 0.64844,-1.253906 1.34766,-2.898438 2.10156,-4.929688 0.77735,-2.035156 1.16407,-3.449218 1.16407,-4.25 z m 6.65625,3.308594 c 1.20703,-2.164062 2.25,-3.582031 3.13672,-4.25 0.90234,-0.671875 1.88281,-1.007812 2.9375,-1.007812 0.94921,0 1.76953,0.324218 2.45703,0.972656 0.71093,0.628906 1.0664,1.582031 1.0664,2.855469 0,0.5625 -0.1289,1.203125 -0.38672,1.917969 -0.25781,0.710937 -0.61328,1.542968 -1.0664,2.496093 -0.45313,0.929688 -1.07813,2.109375 -1.875,3.539063 -0.79688,1.402344 -1.19531,2.3125 -1.19531,2.722656 0,0.195312 0.043,0.347656 0.1289,0.457031 0.10938,0.08594 0.25781,0.128907 0.45313,0.128907 0.23437,0 0.54687,-0.128907 0.9375,-0.390626 0.38672,-0.28125 0.76172,-0.648437 1.1289,-1.101562 0.36719,-0.457031 0.74219,-0.976562 1.13282,-1.558594 0.41015,-0.605468 0.74218,-1.148437 1,-1.621094 l 0.42187,0.226563 c -1.16406,1.902344 -2.14453,3.277344 -2.94141,4.121094 -0.77734,0.84375 -1.96093,1.265625 -3.55468,1.265625 -1.16407,0 -2.04688,-0.335938 -2.64844,-1.007813 -0.60547,-0.691406 -0.90625,-1.558593 -0.90625,-2.59375 0,-0.695312 0.0977,-1.308593 0.28906,-1.851562 0.21875,-0.5625 0.64844,-1.492188 1.29297,-2.789063 0.66797,-1.296875 1.25,-2.457031 1.74609,-3.472656 0.4961,-1.015625 0.82032,-1.707031 0.96875,-2.078125 0.15235,-0.367187 0.22657,-0.636719 0.22657,-0.808594 0,-0.152343 -0.043,-0.261719 -0.12891,-0.324219 -0.0625,-0.08594 -0.17187,-0.132812 -0.32422,-0.132812 -0.14844,0 -0.40625,0.140625 -0.77344,0.421875 -0.34375,0.261719 -0.80859,0.738281 -1.39062,1.429687 -0.55859,0.671876 -1.12891,1.546876 -1.71094,2.628907 z m 6.59375,-10.511718 c 0,-0.886719 0.30078,-1.613282 0.90234,-2.175782 0.60547,-0.5625 1.32422,-0.84375 2.16797,-0.84375 0.85937,0 1.59375,0.28125 2.19531,0.84375 0.60547,0.5625 0.90625,1.289063 0.90625,2.175782 0,0.863281 -0.3125,1.589843 -0.9375,2.171874 -0.60547,0.5625 -1.32422,0.84375 -2.16406,0.84375 -0.86328,0 -1.59766,-0.28125 -2.19922,-0.84375 -0.58203,-0.582031 -0.87109,-1.308593 -0.87109,-2.171874 z m 21.0039,5.253906 c 1.01172,0 1.875,0.324218 2.58594,0.972656 0.73047,0.628906 1.09766,1.582031 1.09766,2.855469 0,0.585937 -0.11719,1.214843 -0.35547,1.882812 -0.23828,0.648438 -0.52735,1.351563 -0.8711,2.109375 -0.34765,0.757813 -0.96093,1.992188 -1.84375,3.699219 -0.88281,1.710937 -1.32421,2.714844 -1.32421,3.019531 0,0.171875 0.043,0.300782 0.1289,0.386719 0.0859,0.08594 0.21485,0.128906 0.38672,0.128906 0.21484,0 0.50781,-0.128906 0.875,-0.386719 0.36328,-0.261718 0.85938,-0.746093 1.48438,-1.460937 0.64843,-0.714844 1.32421,-1.785156 2.03515,-3.210937 l 0.42188,0.226562 c -0.99219,1.773438 -1.94922,3.191406 -2.875,4.25 -0.90625,1.039062 -2.1875,1.558594 -3.84766,1.558594 -1.14062,0 -2.00391,-0.347656 -2.58594,-1.039063 -0.58203,-0.691406 -0.87109,-1.546875 -0.87109,-2.5625 0,-0.695312 0.0742,-1.257812 0.22656,-1.6875 0.14844,-0.433593 0.60156,-1.429687 1.35547,-2.984375 0.77734,-1.558594 1.41406,-2.835937 1.90625,-3.832031 0.49609,-0.992187 0.74609,-1.773437 0.74609,-2.335937 0,-0.214844 -0.043,-0.367188 -0.1289,-0.453126 -0.0898,-0.109374 -0.22656,-0.164062 -0.42188,-0.164062 -0.25781,0 -0.59375,0.164062 -1,0.488281 -0.39062,0.324219 -0.85156,0.84375 -1.39062,1.558594 -0.53906,0.710937 -1.09766,1.6875 -1.67969,2.917969 l -4.6875,9.769531 h -6.30078 l 5.49219,-12.332031 c 0.1289,-0.324219 0.28125,-0.679688 0.45312,-1.070313 0.17188,-0.410156 0.25781,-0.703125 0.25781,-0.875 0,-0.152343 -0.0312,-0.261719 -0.0937,-0.324219 -0.0664,-0.06641 -0.16406,-0.09766 -0.29296,-0.09766 -0.30079,0 -0.64454,0.140625 -1.03516,0.421875 -0.38672,0.257813 -0.77344,0.605469 -1.16016,1.039063 -0.36718,0.429687 -0.77734,0.984375 -1.23047,1.652344 -0.42968,0.648437 -0.85937,1.332031 -1.29296,2.042968 l -0.41797,-0.191406 c 1.03125,-1.820312 2.04687,-3.269531 3.03515,-4.347656 1.01563,-1.082032 2.25391,-1.625 3.71875,-1.625 1.03125,0 1.83985,0.324218 2.42188,0.972656 0.60547,0.628906 0.90625,1.515625 0.90625,2.664062 0,0.515626 -0.0547,0.992188 -0.16406,1.425782 -0.0859,0.410156 -0.16016,0.746094 -0.22657,1.007812 0.97266,-1.949218 1.89844,-3.441406 2.78125,-4.480468 0.90625,-1.058594 2.16407,-1.589844 3.78125,-1.589844 z m 18.71094,2.175781 c 0,-0.367187 -0.0781,-0.640625 -0.22656,-0.8125 -0.15235,-0.195313 -0.39063,-0.292969 -0.71094,-0.292969 -0.36719,0 -0.80859,0.324219 -1.32422,0.976563 -0.49609,0.625 -1.12109,1.683593 -1.875,3.179687 -0.7539,1.46875 -1.57422,3.277344 -2.45703,5.417969 -0.86328,2.117187 -1.29297,3.460937 -1.29297,4.023437 0,0.195313 0.043,0.34375 0.12891,0.453126 0.0859,0.109374 0.21484,0.164062 0.38672,0.164062 0.6914,0 1.33593,-0.335938 1.9414,-1.007812 0.60157,-0.671876 1.03516,-1.199219 1.29297,-1.589844 0.27735,-0.410156 0.6875,-1.199219 1.22656,-2.367188 0.5586,-1.191406 1.1836,-2.640625 1.875,-4.347656 0.6875,-1.710938 1.03516,-2.976562 1.03516,-3.796875 z m 7.625,-1.851563 c -0.71094,1.882813 -1.48828,3.882813 -2.32812,6.003907 -0.81641,2.097656 -1.86329,4.628906 -3.13282,7.59375 -1.27343,2.960937 -2.9414,5.253906 -5.00781,6.878906 -2.07031,1.621094 -4.77344,2.433594 -8.11328,2.433594 -1.3125,0 -2.42188,-0.359375 -3.32813,-1.070313 -0.92578,-0.714844 -1.39062,-1.558594 -1.39062,-2.53125 0,-0.78125 0.28125,-1.484375 0.84375,-2.109375 0.53516,-0.605469 1.28125,-0.910156 2.22656,-0.910156 0.82031,0 1.51953,0.269531 2.10156,0.8125 0.58204,0.539063 0.8711,1.199219 0.8711,1.980469 0,0.691406 -0.23438,1.273437 -0.71094,1.75 -0.47266,0.476562 -1.09766,0.714844 -1.87109,0.714844 -0.23828,0 -0.35547,0.08594 -0.35547,0.257812 0,0.152344 0.1289,0.28125 0.38672,0.390625 0.28125,0.128906 0.67968,0.195313 1.19531,0.195313 1.14062,0 2.15234,-0.5 3.03906,-1.492188 0.88281,-0.976562 1.69922,-2.304688 2.45313,-3.992188 0.77734,-1.664062 1.51953,-3.308593 2.23047,-4.933593 l -0.0977,-0.03125 c -0.73047,1.191406 -1.51953,2.121093 -2.35938,2.789062 -0.83984,0.652344 -1.86328,0.976563 -3.07031,0.976563 -1.28906,0 -2.36719,-0.421875 -3.23047,-1.265625 -0.85937,-0.84375 -1.29297,-1.949219 -1.29297,-3.3125 0,-2.574219 1.1211,-5.125 3.36329,-7.65625 2.26171,-2.53125 4.83593,-3.796875 7.72265,-3.796875 0.73047,0 1.35547,0.164062 1.875,0.488281 0.53906,0.324219 0.80469,0.875 0.80469,1.652344 l -0.0312,0.554687 1.00391,-2.371094 z m 0,0"
       id="path12" />
  </g>
</svg>
